<svg width="598" height="480" viewBox="0 0 598 480" fill="none" xmlns="http://www.w3.org/2000/svg">
<rect width="598" height="480" fill="#E5E5E5"/>
<g id="Home">
<rect width="1440" height="4081" transform="translate(-128 -910)" fill="white"/>
<g id="back end section">
<rect width="1440" height="762" transform="translate(-128 -141)" fill="#272643"/>
<g id="section content">
<g id="undraw_server_cluster_jwwq 1" clip-path="url(#clip0_0_1)">
<path id="cercule" d="M299.63 407.954C259.112 407.954 219.848 393.905 188.527 368.201C157.206 342.496 135.767 306.727 127.863 266.988C119.958 227.248 126.077 185.997 145.177 150.264C164.277 114.53 195.177 86.5248 232.61 71.0193C270.044 55.5138 311.696 53.4676 350.469 65.2294C389.242 76.9911 422.738 101.833 445.248 135.523C467.759 169.212 477.892 209.664 473.92 249.987C469.949 290.31 452.119 328.008 423.468 356.659C407.243 372.972 387.944 385.906 366.687 394.711C345.43 403.516 322.638 408.017 299.63 407.954ZM299.63 59.034C203.804 59.034 125.843 136.995 125.843 232.821C125.843 328.647 203.804 406.607 299.63 406.607C395.456 406.607 473.417 328.647 473.417 232.821C473.417 136.995 395.456 59.034 299.63 59.034Z" fill="#CCCCCC"/>
<g id="server">
<path id="background" d="M364.659 434.218V257.781H233.341V434.218H364.659Z" fill="#2F2E41"/>
<g id="layout">
<path id="Vector" d="M387.218 252.394H210.782V322.43H387.218V252.394Z" fill="#E6E6E6"/>
<path id="Vector_2" d="M387.218 282.089H210.782V292.864H387.218V282.089Z" fill="#562756"/>
<path id="Vector_3" d="M352.874 266.536C355.105 266.536 356.914 264.727 356.914 262.495C356.914 260.263 355.105 258.454 352.874 258.454C350.642 258.454 348.833 260.263 348.833 262.495C348.833 264.727 350.642 266.536 352.874 266.536Z" fill="#562756"/>
<path id="Vector_4" d="M367.016 266.536C369.247 266.536 371.056 264.727 371.056 262.495C371.056 260.263 369.247 258.454 367.016 258.454C364.784 258.454 362.975 260.263 362.975 262.495C362.975 264.727 364.784 266.536 367.016 266.536Z" fill="#562756"/>
<path id="Vector_5" d="M381.158 266.536C383.389 266.536 385.198 264.727 385.198 262.495C385.198 260.263 383.389 258.454 381.158 258.454C378.926 258.454 377.117 260.263 377.117 262.495C377.117 264.727 378.926 266.536 381.158 266.536Z" fill="#562756"/>
</g>
<g id="layout_2">
<path id="Vector_6" d="M387.218 330.511H210.782V400.547H387.218V330.511Z" fill="#E6E6E6"/>
<path id="Vector_7" d="M387.218 360.206H210.782V370.981H387.218V360.206Z" fill="#562756"/>
<path id="Vector_8" d="M352.874 343.306C355.105 343.306 356.914 341.497 356.914 339.265C356.914 337.034 355.105 335.225 352.874 335.225C350.642 335.225 348.833 337.034 348.833 339.265C348.833 341.497 350.642 343.306 352.874 343.306Z" fill="#562756"/>
<path id="Vector_9" d="M367.016 343.306C369.247 343.306 371.056 341.497 371.056 339.265C371.056 337.034 369.247 335.225 367.016 335.225C364.784 335.225 362.975 337.034 362.975 339.265C362.975 341.497 364.784 343.306 367.016 343.306Z" fill="#562756"/>
<path id="Vector_10" d="M381.158 343.306C383.389 343.306 385.198 341.497 385.198 339.265C385.198 337.034 383.389 335.225 381.158 335.225C378.926 335.225 377.117 337.034 377.117 339.265C377.117 341.497 378.926 343.306 381.158 343.306Z" fill="#562756"/>
</g>
<g id="layout_3">
<path id="Vector_11" d="M387.218 408.628H210.782V478.664H387.218V408.628Z" fill="#E6E6E6"/>
<path id="Vector_12" d="M387.218 438.323H210.782V449.098H387.218V438.323Z" fill="#562756"/>
<path id="Vector_13" d="M352.874 420.076C355.105 420.076 356.914 418.267 356.914 416.036C356.914 413.804 355.105 411.995 352.874 411.995C350.642 411.995 348.833 413.804 348.833 416.036C348.833 418.267 350.642 420.076 352.874 420.076Z" fill="#562756"/>
<path id="Vector_14" d="M367.016 420.076C369.247 420.076 371.056 418.267 371.056 416.036C371.056 413.804 369.247 411.995 367.016 411.995C364.784 411.995 362.975 413.804 362.975 416.036C362.975 418.267 364.784 420.076 367.016 420.076Z" fill="#562756"/>
<path id="Vector_15" d="M381.158 420.076C383.389 420.076 385.198 418.267 385.198 416.036C385.198 413.804 383.389 411.995 381.158 411.995C378.926 411.995 377.117 413.804 377.117 416.036C377.117 418.267 378.926 420.076 381.158 420.076Z" fill="#562756"/>
</g>
</g>
<path id="Vector_16" d="M598 477.99H0V479.337H598V477.99Z" fill="#3F3D56"/>
<g id="phone">
<path id="Vector_17" d="M162.887 183.204V308.455C162.886 311.076 161.845 313.589 159.992 315.441C158.139 317.294 155.626 318.336 153.006 318.336H104.332C101.711 318.336 99.1974 317.296 97.3437 315.443C95.4899 313.59 94.4481 311.076 94.4474 308.455V183.204C94.4482 180.583 95.4899 178.07 97.3437 176.217C99.1974 174.364 101.711 173.323 104.332 173.324H110.237C109.947 174.037 109.836 174.81 109.915 175.575C109.994 176.341 110.26 177.076 110.689 177.714C111.119 178.353 111.698 178.877 112.377 179.239C113.056 179.602 113.814 179.792 114.584 179.793H142.334C143.104 179.792 143.862 179.602 144.541 179.239C145.22 178.877 145.799 178.353 146.229 177.714C146.658 177.076 146.924 176.341 147.003 175.575C147.082 174.81 146.971 174.037 146.681 173.324H153.006C155.626 173.324 158.139 174.365 159.992 176.218C161.845 178.071 162.886 180.584 162.887 183.204Z" fill="#E6E6E6"/>
<path id="Vector_18" d="M159.645 197.242H97.6896V283.44H159.645V197.242Z" fill="white"/>
<path id="Vector_19" d="M140.008 256.515H115.28V257.928H140.008V256.515Z" fill="#E6E6E6"/>
<path id="Vector_20" d="M153.518 261.703H115.256V263.116H153.518V261.703Z" fill="#562756"/>
<path id="Vector_21" d="M145.282 266.591H115.256V268.004H145.282V266.591Z" fill="#E6E6E6"/>
<path id="Vector_22" d="M132.918 271.479H115.256V272.892H132.918V271.479Z" fill="#E6E6E6"/>
<path id="Vector_23" d="M141.75 276.367H115.256V277.78H141.75V276.367Z" fill="#E6E6E6"/>
<path id="Vector_24" d="M106.892 256.109H104.066V258.935H106.892V256.109Z" fill="#E6E6E6"/>
<path id="Vector_25" d="M106.892 260.997H104.066V263.823H106.892V260.997Z" fill="#562756"/>
<path id="Vector_26" d="M106.892 265.885H104.066V268.711H106.892V265.885Z" fill="#E6E6E6"/>
<path id="Vector_27" d="M106.892 270.773H104.066V273.599H106.892V270.773Z" fill="#E6E6E6"/>
<path id="Vector_28" d="M106.892 275.661H104.066V278.487H106.892V275.661Z" fill="#E6E6E6"/>
<path id="Vector_29" d="M141.249 208.017H116.334V232.932H141.249V208.017Z" fill="#E6E6E6"/>
</g>
<g id="pc">
<path id="Vector_30" d="M381.827 0.756805H216.243V106.804H381.827V0.756805Z" fill="#E6E6E6"/>
<path id="Vector_31" d="M366.011 30.4251H228.726V82.3024H366.011V30.4251Z" fill="white"/>
<path id="Vector_32" d="M286.687 39.4129H253.739V41.2957H286.687V39.4129Z" fill="#E6E6E6"/>
<path id="Vector_33" d="M304.688 46.326H253.706V48.2088H304.688V46.326Z" fill="#562756"/>
<path id="Vector_34" d="M293.715 52.8391H253.706V54.7219H293.715V52.8391Z" fill="#E6E6E6"/>
<path id="Vector_35" d="M277.24 59.3522H253.706V61.235H277.24V59.3522Z" fill="#E6E6E6"/>
<path id="Vector_36" d="M289.008 65.8653H253.706V67.748H289.008V65.8653Z" fill="#E6E6E6"/>
<path id="Vector_37" d="M242.562 38.8715H238.797V42.637H242.562V38.8715Z" fill="#E6E6E6"/>
<path id="Vector_38" d="M242.562 45.3846H238.797V49.1501H242.562V45.3846Z" fill="#562756"/>
<path id="Vector_39" d="M242.562 51.8977H238.797V55.6632H242.562V51.8977Z" fill="#E6E6E6"/>
<path id="Vector_40" d="M242.562 58.4108H238.797V62.1763H242.562V58.4108Z" fill="#E6E6E6"/>
<path id="Vector_41" d="M242.562 64.9239H238.797V68.6894H242.562V64.9239Z" fill="#E6E6E6"/>
<path id="Vector_42" d="M381.757 0.662933H216.173V7.69754H381.757V0.662933Z" fill="#562756"/>
<path id="Vector_43" d="M231.298 5.67147C232.078 5.67147 232.71 5.03926 232.71 4.2594C232.71 3.47953 232.078 2.84732 231.298 2.84732C230.518 2.84732 229.886 3.47953 229.886 4.2594C229.886 5.03926 230.518 5.67147 231.298 5.67147Z" fill="white"/>
<path id="Vector_44" d="M221.4 5.67147C222.18 5.67147 222.812 5.03926 222.812 4.2594C222.812 3.47953 222.18 2.84732 221.4 2.84732C220.62 2.84732 219.988 3.47953 219.988 4.2594C219.988 5.03926 220.62 5.67147 221.4 5.67147Z" fill="white"/>
<path id="Vector_45" d="M226.349 5.67147C227.129 5.67147 227.761 5.03926 227.761 4.2594C227.761 3.47953 227.129 2.84732 226.349 2.84732C225.569 2.84732 224.937 3.47953 224.937 4.2594C224.937 5.03926 225.569 5.67147 226.349 5.67147Z" fill="white"/>
<path id="Vector_46" d="M359.274 36.9251H325.563V70.6358H359.274V36.9251Z" fill="#E6E6E6"/>
</g>
<g id="watch">
<path id="Vector_47" d="M492.709 199.193H452.303V220.069H492.709V199.193Z" fill="#E6E6E6"/>
<path id="Vector_48" d="M492.709 273.943H452.303V294.819H492.709V273.943Z" fill="#E6E6E6"/>
<path id="Vector_49" d="M472.506 280.677C491.102 280.677 506.177 265.602 506.177 247.006C506.177 228.41 491.102 213.335 472.506 213.335C453.91 213.335 438.835 228.41 438.835 247.006C438.835 265.602 453.91 280.677 472.506 280.677Z" fill="#E6E6E6"/>
<path id="Vector_50" d="M472.506 273.27C487.011 273.27 498.77 261.511 498.77 247.006C498.77 232.501 487.011 220.743 472.506 220.743C458.001 220.743 446.242 232.501 446.242 247.006C446.242 261.511 458.001 273.27 472.506 273.27Z" fill="white"/>
<path id="Vector_51" d="M484.275 239.81H463.906V240.974H484.275V239.81Z" fill="#E2E2E2"/>
<path id="Vector_52" d="M495.402 244.084H463.885V245.248H495.402V244.084Z" fill="#562756"/>
<path id="Vector_53" d="M488.619 248.11H463.885V249.274H488.619V248.11Z" fill="#E2E2E2"/>
<path id="Vector_54" d="M478.434 252.137H463.885V253.301H478.434V252.137Z" fill="#E2E2E2"/>
<path id="Vector_55" d="M485.709 256.163H463.885V257.327H485.709V256.163Z" fill="#E2E2E2"/>
<path id="Vector_56" d="M456.996 239.475H454.668V241.803H456.996V239.475Z" fill="#E2E2E2"/>
<path id="Vector_57" d="M456.996 243.502H454.668V245.83H456.996V243.502Z" fill="#562756"/>
<path id="Vector_58" d="M456.996 247.528H454.668V249.856H456.996V247.528Z" fill="#E2E2E2"/>
<path id="Vector_59" d="M456.996 251.555H454.668V253.883H456.996V251.555Z" fill="#E2E2E2"/>
<path id="Vector_60" d="M456.996 255.581H454.668V257.909H456.996V255.581Z" fill="#E2E2E2"/>
</g>
</g>
</g>
</g>
</g>
<defs>
<clipPath id="clip0_0_1">
<rect width="598" height="478.674" fill="white" transform="translate(0 0.662933)"/>
</clipPath>
</defs>
</svg>
