<svg width="489" height="473" viewBox="0 0 489 473" fill="none" xmlns="http://www.w3.org/2000/svg">
<rect width="489" height="473" fill="#E5E5E5"/>
<g id="contact" clip-path="url(#clip0_0_1)">
<path id="Vector" d="M446.132 471.836V424.471C446.132 424.471 464.612 458.051 446.132 471.836Z" fill="#F1F1F1"/>
<path id="Vector_2" d="M447.273 471.828L412.342 439.796C412.342 439.796 449.604 448.907 447.273 471.828Z" fill="#F1F1F1"/>
<g id="paper">
<path id="Vector_3" d="M136.369 129.868L90.3951 156.709C89.7463 157.086 88.974 157.192 88.2476 157.001C87.5212 156.811 86.9001 156.341 86.5204 155.694L59.65 109.771C59.2718 109.123 59.1664 108.351 59.3569 107.626C59.5474 106.9 60.0183 106.28 60.6662 105.9L106.641 79.0602C107.289 78.6825 108.062 78.5772 108.788 78.7675C109.514 78.9578 110.136 79.4281 110.515 80.0753L137.386 125.998C137.764 126.646 137.869 127.418 137.679 128.143C137.488 128.869 137.017 129.489 136.369 129.868ZM61.2379 106.878C60.8492 107.105 60.5666 107.477 60.4523 107.913C60.338 108.348 60.4013 108.811 60.6282 109.2L87.4986 155.123C87.7264 155.511 88.0991 155.793 88.5349 155.907C88.9708 156.021 89.4341 155.958 89.8234 155.732L135.798 128.891C136.186 128.664 136.469 128.292 136.583 127.856C136.698 127.421 136.634 126.958 136.407 126.569L109.537 80.6463C109.309 80.258 108.937 79.9758 108.501 79.8616C108.065 79.7475 107.601 79.8106 107.212 80.0373L61.2379 106.878Z" fill="#F2F2F2"/>
<path id="Vector_4" d="M324.069 208.992L138.705 317.21C138.056 317.588 137.284 317.693 136.557 317.503C135.831 317.312 135.21 316.842 134.83 316.195L15.6285 112.474C15.2504 111.826 15.1449 111.054 15.3354 110.329C15.5259 109.603 15.9968 108.983 16.6447 108.603L202.009 0.385919C202.658 0.00815252 203.43 -0.0971359 204.157 0.0931523C204.883 0.283441 205.504 0.753767 205.884 1.40095L325.086 205.122C325.464 205.77 325.569 206.542 325.379 207.267C325.188 207.993 324.717 208.613 324.069 208.992Z" fill="white"/>
<path id="Vector_5" d="M204.342 53.154L140.76 90.2734C140.177 90.6142 139.481 90.7094 138.827 90.5381C138.173 90.3668 137.614 89.943 137.273 89.3599C136.932 88.7769 136.837 88.0823 137.008 87.4291C137.18 86.7758 137.604 86.2174 138.188 85.8766L201.769 48.7571C202.353 48.4164 203.048 48.3212 203.702 48.4925C204.026 48.5773 204.33 48.725 204.597 48.9272C204.863 49.1293 205.088 49.382 205.256 49.6707C205.425 49.9594 205.536 50.2785 205.581 50.6098C205.627 50.9411 205.606 51.2781 205.521 51.6015C205.436 51.925 205.289 52.2286 205.086 52.4949C204.884 52.7613 204.631 52.9853 204.342 53.154Z" fill="#CCCCCC"/>
<path id="Vector_6" d="M197.335 77.5622L149.622 105.418C149.333 105.587 149.013 105.697 148.682 105.742C148.35 105.788 148.013 105.767 147.689 105.683C147.365 105.598 147.061 105.45 146.794 105.248C146.528 105.046 146.303 104.793 146.134 104.504C145.966 104.216 145.855 103.897 145.81 103.565C145.764 103.234 145.785 102.897 145.87 102.574C145.954 102.25 146.102 101.946 146.305 101.68C146.507 101.414 146.76 101.19 147.049 101.021L194.763 73.1653C195.346 72.8246 196.042 72.7294 196.696 72.9007C197.35 73.072 197.909 73.4958 198.25 74.0789C198.591 74.6619 198.686 75.3565 198.515 76.0097C198.343 76.663 197.919 77.2214 197.335 77.5622Z" fill="#CCCCCC"/>
<path id="Vector_7" d="M126.451 143.196L80.4769 170.036C79.893 170.376 79.1979 170.471 78.5441 170.3C77.8904 170.128 77.3313 169.705 76.9896 169.123L50.1193 123.2C49.7789 122.617 49.684 121.922 49.8555 121.269C50.0269 120.616 50.4507 120.058 51.0338 119.716L97.0081 92.8762C97.592 92.5362 98.2871 92.4414 98.9409 92.6127C99.5946 92.784 100.154 93.2073 100.495 93.7897L127.366 139.712C127.706 140.296 127.801 140.99 127.63 141.643C127.458 142.296 127.034 142.855 126.451 143.196Z" fill="#282745"/>
<path id="Vector_8" d="M237.418 108.562L93.6261 192.509C93.0424 192.85 92.3471 192.945 91.6931 192.773C91.0391 192.602 90.48 192.178 90.1389 191.595C89.7977 191.012 89.7024 190.318 89.8739 189.664C90.0454 189.011 90.4697 188.453 91.0534 188.112L234.845 104.165C235.135 103.996 235.454 103.886 235.786 103.84C236.117 103.795 236.455 103.815 236.779 103.9C237.102 103.985 237.406 104.133 237.673 104.335C237.94 104.537 238.164 104.79 238.333 105.078C238.502 105.367 238.612 105.686 238.657 106.017C238.703 106.349 238.683 106.686 238.598 107.009C238.513 107.333 238.365 107.636 238.163 107.903C237.96 108.169 237.707 108.393 237.418 108.562Z" fill="#CCCCCC"/>
<path id="Vector_9" d="M211.554 143.98L102.487 207.654C102.198 207.823 101.879 207.933 101.547 207.978C101.216 208.024 100.878 208.003 100.554 207.918C99.9004 207.747 99.3414 207.323 99.0002 206.74C98.659 206.157 98.5637 205.463 98.7353 204.809C98.9068 204.156 99.331 203.598 99.9148 203.257L208.982 139.583C209.271 139.414 209.59 139.304 209.922 139.258C210.253 139.213 210.591 139.233 210.915 139.318C211.238 139.403 211.542 139.551 211.809 139.753C212.076 139.955 212.3 140.208 212.469 140.496C212.638 140.785 212.748 141.104 212.793 141.435C212.839 141.767 212.819 142.104 212.734 142.427C212.649 142.751 212.501 143.054 212.299 143.321C212.096 143.587 211.843 143.811 211.554 143.98V143.98Z" fill="#CCCCCC"/>
<path id="Vector_10" d="M255.141 138.851L111.349 222.798C110.766 223.139 110.07 223.234 109.416 223.063C108.762 222.892 108.203 222.468 107.862 221.885C107.521 221.302 107.426 220.607 107.597 219.954C107.769 219.301 108.193 218.742 108.777 218.401L252.569 134.454C253.152 134.114 253.848 134.018 254.502 134.19C255.156 134.361 255.715 134.785 256.056 135.368C256.397 135.951 256.492 136.646 256.321 137.299C256.149 137.952 255.725 138.51 255.141 138.851V138.851Z" fill="#CCCCCC"/>
<path id="Vector_11" d="M229.277 174.269L120.211 237.943C119.922 238.112 119.602 238.222 119.27 238.268C118.939 238.313 118.601 238.293 118.278 238.208C117.954 238.123 117.65 237.975 117.383 237.773C117.116 237.571 116.892 237.319 116.723 237.03C116.554 236.741 116.444 236.422 116.399 236.091C116.353 235.759 116.373 235.422 116.458 235.099C116.543 234.776 116.691 234.472 116.894 234.206C117.096 233.939 117.349 233.715 117.638 233.547L226.705 169.872C226.994 169.704 227.313 169.593 227.645 169.548C227.976 169.503 228.314 169.523 228.638 169.608C228.961 169.693 229.265 169.84 229.532 170.042C229.799 170.245 230.023 170.497 230.192 170.786C230.361 171.075 230.471 171.394 230.517 171.725C230.562 172.056 230.542 172.393 230.457 172.717C230.372 173.04 230.224 173.344 230.022 173.61C229.819 173.877 229.566 174.1 229.277 174.269V174.269Z" fill="#CCCCCC"/>
<path id="Vector_12" d="M272.864 169.141L129.072 253.088C128.783 253.257 128.464 253.367 128.132 253.412C127.801 253.458 127.463 253.437 127.139 253.353C126.816 253.268 126.512 253.12 126.245 252.918C125.978 252.716 125.754 252.463 125.585 252.174C125.416 251.886 125.306 251.567 125.26 251.235C125.215 250.904 125.235 250.567 125.32 250.243C125.405 249.92 125.553 249.616 125.755 249.35C125.958 249.084 126.211 248.86 126.5 248.691L270.292 164.744C270.581 164.575 270.9 164.465 271.232 164.42C271.564 164.374 271.901 164.394 272.225 164.479C272.549 164.564 272.853 164.712 273.119 164.914C273.386 165.116 273.61 165.369 273.779 165.657C273.948 165.946 274.058 166.265 274.104 166.597C274.149 166.928 274.129 167.265 274.044 167.588C273.959 167.912 273.811 168.215 273.609 168.482C273.406 168.748 273.154 168.972 272.864 169.141Z" fill="#CCCCCC"/>
<path id="Vector_13" d="M281.726 184.286L137.934 268.233C137.645 268.402 137.325 268.512 136.994 268.557C136.662 268.603 136.325 268.582 136.001 268.498C135.677 268.413 135.373 268.265 135.106 268.063C134.84 267.861 134.615 267.608 134.446 267.319C134.278 267.031 134.167 266.712 134.122 266.38C134.076 266.049 134.097 265.712 134.182 265.389C134.266 265.065 134.414 264.761 134.617 264.495C134.819 264.229 135.072 264.005 135.361 263.836L279.153 179.889C279.442 179.72 279.762 179.61 280.093 179.565C280.425 179.519 280.762 179.539 281.086 179.624C281.41 179.709 281.714 179.857 281.981 180.059C282.247 180.261 282.471 180.514 282.64 180.802C282.809 181.091 282.92 181.41 282.965 181.742C283.011 182.073 282.99 182.41 282.905 182.733C282.82 183.057 282.673 183.36 282.47 183.627C282.268 183.893 282.015 184.117 281.726 184.286Z" fill="#CCCCCC"/>
<path id="Vector_14" d="M235.226 243.242C237.224 240.893 239.023 238.38 240.602 235.732C242.019 233.343 243.41 230.789 243.722 227.987C243.882 226.793 243.757 225.579 243.359 224.443C242.96 223.307 242.299 222.281 241.429 221.449C240.587 220.674 239.521 220.187 238.385 220.058C237.248 219.929 236.099 220.164 235.106 220.731C234.1 221.307 233.269 222.145 232.701 223.154C232.133 224.164 231.849 225.308 231.879 226.466C231.96 227.741 232.329 228.981 232.957 230.094C233.586 231.206 234.457 232.163 235.507 232.892C239.758 235.968 246.395 235.807 250.925 233.466C256.028 230.83 258.664 223.932 254.655 219.21C253.821 218.228 252.434 219.326 252.643 220.385C252.908 221.816 253.71 223.092 254.885 223.953C256.06 224.813 257.519 225.192 258.965 225.014C260.411 224.835 261.734 224.112 262.664 222.992C263.594 221.872 264.061 220.439 263.969 218.987L262.167 220.039C264.376 221.017 266.804 221.396 269.207 221.138C271.609 220.881 273.902 219.996 275.853 218.573C276.818 217.872 277.681 217.04 278.414 216.1C279.296 214.951 280.778 214.208 281.978 213.38L290.624 207.412C291.896 206.534 290.687 204.443 289.404 205.328L281.574 210.732C280.269 211.633 278.956 212.522 277.659 213.435C276.732 214.087 276.161 215.139 275.318 215.913C273.72 217.348 271.747 218.3 269.629 218.658C267.511 219.016 265.334 218.765 263.353 217.935C263.169 217.836 262.962 217.786 262.752 217.789C262.543 217.793 262.338 217.851 262.157 217.956C261.976 218.062 261.826 218.212 261.719 218.393C261.613 218.573 261.556 218.778 261.551 218.987C261.647 219.854 261.396 220.723 260.852 221.405C260.309 222.088 259.518 222.528 258.651 222.631C257.785 222.733 256.912 222.49 256.225 221.953C255.537 221.416 255.089 220.629 254.979 219.765L252.967 220.939C255.553 223.985 253.831 228.657 250.852 230.701C247.52 232.987 242.597 233.384 238.841 231.963C237.92 231.646 237.074 231.143 236.356 230.485C235.638 229.827 235.064 229.029 234.669 228.139C234.303 227.335 234.199 226.437 234.371 225.571C234.542 224.705 234.982 223.915 235.627 223.311C236.187 222.76 236.939 222.446 237.725 222.438C238.511 222.43 239.269 222.727 239.84 223.267C240.462 223.901 240.918 224.678 241.169 225.529C241.419 226.381 241.456 227.281 241.276 228.151C240.889 230.57 239.55 232.8 238.305 234.866C236.883 237.221 235.275 239.458 233.496 241.556C232.498 242.735 234.219 244.434 235.226 243.242L235.226 243.242Z" fill="#282745"/>
<path id="Vector_15" d="M324.069 208.992L138.705 317.21C138.056 317.588 137.284 317.693 136.557 317.503C135.831 317.312 135.21 316.842 134.83 316.195L15.6285 112.474C15.2504 111.826 15.1449 111.054 15.3354 110.329C15.5259 109.603 15.9968 108.983 16.6447 108.603L202.009 0.385919C202.658 0.00815252 203.43 -0.0971359 204.157 0.0931523C204.883 0.283441 205.504 0.753767 205.884 1.40095L325.086 205.122C325.464 205.77 325.569 206.542 325.379 207.267C325.188 207.993 324.717 208.613 324.069 208.992ZM17.2164 109.58C16.8277 109.808 16.5451 110.18 16.4308 110.616C16.3165 111.051 16.3798 111.514 16.6067 111.903L135.808 315.624C136.036 316.012 136.409 316.294 136.845 316.409C137.28 316.523 137.744 316.46 138.133 316.233L323.498 208.015C323.886 207.788 324.169 207.416 324.283 206.98C324.398 206.545 324.334 206.082 324.107 205.693L204.906 1.97199C204.678 1.58366 204.305 1.30145 203.87 1.18727C203.434 1.0731 202.97 1.13628 202.581 1.36297L17.2164 109.58Z" fill="#3F3D56"/>
</g>
<g id="persone-2">
<path id="Vector_16" d="M256.688 300.653C256.896 300.867 257.087 301.097 257.259 301.341L284.035 300.686L287.159 294.985L296.39 298.569L291.842 309.2C291.474 310.058 290.838 310.775 290.028 311.242C289.218 311.708 288.279 311.9 287.35 311.788L257.098 308.138C256.385 309.04 255.413 309.704 254.312 310.041C253.212 310.379 252.035 310.373 250.937 310.026C249.84 309.679 248.874 309.006 248.169 308.097C247.464 307.188 247.052 306.086 246.989 304.938C246.926 303.789 247.214 302.649 247.816 301.669C248.417 300.688 249.304 299.914 250.356 299.449C251.409 298.984 252.579 298.85 253.71 299.065C254.841 299.28 255.879 299.834 256.688 300.653Z" fill="#FFB7B7"/>
<path id="Vector_17" d="M301.18 308.001L300.542 318.306L319.153 320.295L338.625 322.377L332.893 306.729L301.18 308.001Z" fill="#FFB7B7"/>
<path id="Vector_18" d="M343.974 463.083H335.17L330.981 429.162L343.975 429.163L343.974 463.083Z" fill="#FFB7B7"/>
<path id="Vector_19" d="M346.219 471.609L317.831 471.607V471.249C317.831 468.322 318.995 465.514 321.067 463.445C323.139 461.375 325.95 460.212 328.88 460.212H328.881L346.219 460.213L346.219 471.609Z" fill="#2F2E41"/>
<path id="Vector_20" d="M264.029 462.888L255.933 459.433L265.421 426.596L277.37 431.695L264.029 462.888Z" fill="#FFB7B7"/>
<path id="Vector_21" d="M262.741 471.609L236.635 460.468L236.776 460.139C237.928 457.447 240.102 455.322 242.822 454.232C245.541 453.141 248.583 453.175 251.278 454.325L267.223 461.129L262.741 471.609Z" fill="#2F2E41"/>
<path id="Vector_22" d="M299.957 318.438L292.727 268.096L305.258 263.993L308.938 258.952L326.848 260.01L329.478 265.894L339.028 270.401L337.56 297.627L338.631 320.403L299.957 318.438Z" fill="#2F2E41"/>
<path id="Vector_23" d="M295.406 304.947L282.66 299.854L282.714 299.627C282.769 299.399 288.194 276.755 288.914 273.116C289.665 269.325 292.406 268.277 292.522 268.234L292.608 268.203L297.652 269.736L299.867 287.123L295.406 304.947Z" fill="#2F2E41"/>
<path id="Vector_24" d="M270.586 456.926L253.619 453.45L280.737 378.707L290.018 353.213C290.018 353.213 295.904 332.772 298.564 324.861L300.169 314.248L338.162 318.448C338.162 318.448 348.774 334.015 345.55 359.387L347.008 454.754L330.042 455.623L315.83 359.441L290.888 412.167C290.888 412.167 283.026 434.667 277.401 439.544L270.586 456.926Z" fill="#2F2E41"/>
<path id="Vector_25" d="M322.926 321.988C323.225 321.981 323.524 321.997 323.82 322.037L341.545 301.979L339.483 295.815L348.39 291.491L353.102 302.05C353.483 302.903 353.576 303.856 353.368 304.767C353.16 305.677 352.662 306.496 351.949 307.099L328.7 326.776C328.878 327.913 328.705 329.076 328.204 330.111C327.703 331.147 326.899 332.005 325.897 332.573C324.896 333.141 323.746 333.391 322.599 333.289C321.452 333.188 320.364 332.74 319.478 332.005C318.592 331.271 317.951 330.284 317.64 329.177C317.329 328.07 317.363 326.894 317.738 325.807C318.112 324.719 318.809 323.772 319.736 323.089C320.663 322.407 321.776 322.023 322.926 321.988Z" fill="#FFB7B7"/>
<path id="Vector_26" d="M340.13 303.932L332.736 286.559L335.62 274.458L338.727 270.537C338.955 270.44 339.2 270.391 339.448 270.393C339.695 270.395 339.94 270.449 340.165 270.55C341.311 271.011 342.287 272.423 343.066 274.747L349.995 294.463L340.13 303.932Z" fill="#2F2E41"/>
<path id="Vector_27" d="M301.769 252.514V239.417C301.769 234.762 303.62 230.298 306.915 227.007C310.21 223.716 314.679 221.867 319.339 221.867C323.999 221.867 328.468 223.716 331.763 227.007C335.058 230.298 336.909 234.762 336.909 239.417V252.514C336.909 253.139 336.66 253.739 336.217 254.181C335.775 254.623 335.175 254.871 334.549 254.872H304.129C303.503 254.871 302.904 254.623 302.461 254.181C302.019 253.739 301.77 253.139 301.769 252.514Z" fill="#2F2E41"/>
<path id="Vector_28" d="M315.728 254.567C322.843 254.567 328.61 248.806 328.61 241.7C328.61 234.593 322.843 228.833 315.728 228.833C308.614 228.833 302.847 234.593 302.847 241.7C302.847 248.806 308.614 254.567 315.728 254.567Z" fill="#FFB7B7"/>
<path id="Vector_29" d="M297.612 240.465C297.616 236.784 299.082 233.255 301.688 230.652C304.293 228.05 307.826 226.586 311.511 226.582H314.134C317.818 226.586 321.351 228.05 323.957 230.652C326.562 233.255 328.028 236.784 328.032 240.465V240.727H322.49L320.6 235.44L320.222 240.727H317.358L316.404 238.059L316.213 240.727H297.612L297.612 240.465Z" fill="#2F2E41"/>
<path id="Vector_30" d="M314.461 256.345C314.201 255.993 314.046 255.575 314.013 255.138C313.98 254.702 314.071 254.265 314.276 253.879C317.055 248.599 320.946 238.843 315.782 232.826L315.41 232.394H330.404V254.879L316.783 257.28C316.646 257.304 316.506 257.317 316.366 257.317C315.994 257.317 315.627 257.229 315.296 257.06C314.965 256.891 314.679 256.646 314.461 256.345Z" fill="#2F2E41"/>
</g>
<path id="Vector_31" d="M172.041 255.553L175.715 248.3C175.715 248.3 189.405 251.726 190.649 259.651L172.041 255.553Z" fill="#F1F1F1"/>
<g id="persone">
<path id="Vector_32" d="M139.558 455.674L147.514 458.515L162.269 429.211L150.525 425.019L139.558 455.674Z" fill="#9F616A"/>
<path id="Vector_33" d="M134.771 462.654L138.456 452.355L154.126 457.949C156.772 458.897 158.934 460.855 160.137 463.393C161.34 465.932 161.486 468.843 160.543 471.489L160.427 471.813L134.771 462.654Z" fill="#2F2E41"/>
<path id="Vector_34" d="M191.297 463.535L199.747 463.535L203.767 430.98L191.296 430.981L191.297 463.535Z" fill="#9F616A"/>
<path id="Vector_35" d="M189.142 460.78L205.782 460.779H205.783C207.175 460.779 208.554 461.053 209.841 461.586C211.128 462.118 212.297 462.898 213.281 463.882C214.266 464.865 215.047 466.033 215.58 467.318C216.113 468.603 216.387 469.981 216.387 471.372V471.716L189.143 471.717L189.142 460.78Z" fill="#2F2E41"/>
<path id="Vector_36" d="M156.878 338.485L166.871 394.188L140.337 441.062L156.189 447.258L183.068 401.821L186.514 389.429L188.581 454.142L202.878 453.708L209.432 393.282L198.919 337.108L156.878 338.485Z" fill="#2F2E41"/>
<path id="Vector_37" d="M175.848 351.653C161.167 351.653 151.846 348.848 151.637 348.804L151.299 348.732L158.946 313.319L159.29 280.653C159.29 266.811 168.411 256.605 169.677 255.663C169.89 254.823 170.284 254.039 170.832 253.367C171.379 252.695 172.067 252.15 172.848 251.771C175.89 250.392 179.608 252.046 179.764 252.117L190.923 256.296L190.976 256.451C191.11 256.847 205.808 305.043 205.808 305.043C205.808 305.043 204.918 347.154 204.608 348.534C204.608 348.534 184.005 351.653 175.848 351.653Z" fill="#3F3D56"/>
<path id="Vector_38" d="M187.129 246.016C195.458 246.016 202.21 239.272 202.21 230.952C202.21 222.631 195.458 215.887 187.129 215.887C178.799 215.887 172.047 222.631 172.047 230.952C172.047 239.272 178.799 246.016 187.129 246.016Z" fill="#9F616A"/>
<path id="Vector_39" opacity="0.2" d="M170.313 283.325L196.699 320.097L200.595 302.925L170.313 283.325Z" fill="black"/>
<path id="Vector_40" d="M253.037 308.345C252.295 308.932 251.433 309.348 250.512 309.566C249.592 309.784 248.634 309.797 247.708 309.605C246.781 309.413 245.908 309.021 245.15 308.456C244.392 307.89 243.767 307.166 243.319 306.333L220.608 309.964L225.529 299.084L246.341 297.304C247.791 296.646 249.433 296.542 250.955 297.012C252.477 297.482 253.773 298.493 254.599 299.854C255.424 301.215 255.721 302.831 255.433 304.396C255.145 305.961 254.293 307.366 253.037 308.345H253.037Z" fill="#9F616A"/>
<path id="Vector_41" d="M226.698 298.465L234.858 297.666L237.12 309.036L226.852 309.217L226.698 298.465Z" fill="#F1F1F1"/>
<path id="Vector_42" d="M233.387 312.998L193.422 309.443L173.242 277.386L173.18 277.102C172.607 274.484 173.008 271.746 174.308 269.401C175.608 267.056 177.718 265.264 180.244 264.359C182.77 263.454 185.539 263.498 188.035 264.483C190.531 265.469 192.582 267.327 193.806 269.713L205.652 292.794L229.56 296.404L233.387 312.998Z" fill="#3F3D56"/>
<path id="Vector_43" d="M174.283 244.031L186.801 244.48C187.564 244.508 189.635 236.282 189.906 234.576C190.12 233.465 190.732 232.47 191.627 231.776C192.522 231.083 193.639 230.739 194.769 230.808C195.706 230.897 198.069 229.148 200.507 227.077C205.137 223.146 204.896 215.763 199.811 212.441C199.672 212.35 199.535 212.268 199.401 212.193C196.193 210.399 192.441 209.797 188.765 209.751C185.432 209.709 182.006 210.128 179.07 211.704C173.807 214.528 171.006 220.701 170.76 226.663C170.514 232.626 172.427 238.457 174.599 244.017" fill="#2F2E41"/>
</g>
<path id="Vector_44" d="M488.084 472.307H0.655496C0.481648 472.307 0.314919 472.238 0.19199 472.115C0.0690605 471.993 0 471.826 0 471.652C0 471.479 0.0690605 471.312 0.19199 471.189C0.314919 471.067 0.481648 470.998 0.655496 470.998H488.345C488.518 470.998 488.685 471.067 488.808 471.189C488.931 471.312 489 471.479 489 471.652C489 472.014 488.446 472.307 488.084 472.307Z" fill="#CBCBCB"/>
</g>
<defs>
<clipPath id="clip0_0_1">
<rect width="489" height="472.307" fill="white"/>
</clipPath>
</defs>
</svg>
