<svg width="800" height="662" viewBox="0 0 800 662" fill="none" xmlns="http://www.w3.org/2000/svg">
<g id="devops_illustraction 1" clip-path="url(#clip0_202_2)">
<g id="devops_illustration">
<path id="floor" d="M799.154 655.886H0.847C0.379 655.886 0 655.386 0 654.76C0 654.134 0.379 653.634 0.847 653.634H799.154C799.621 653.634 800.001 654.134 800.001 654.76C800.001 655.386 799.621 655.886 799.154 655.886Z" fill="#CBCBCB"/>
<g id="Server 3">
<path id="server_1" d="M679.232 398.721H381.593C379.216 398.718 376.937 397.773 375.257 396.092C373.576 394.412 372.631 392.133 372.628 389.756V289.348C372.631 286.971 373.576 284.692 375.257 283.012C376.937 281.331 379.216 280.386 381.593 280.383H679.232C681.609 280.386 683.888 281.331 685.568 283.012C687.249 284.692 688.194 286.971 688.197 289.348V389.756C688.194 392.133 687.249 394.412 685.568 396.092C683.888 397.773 681.609 398.718 679.232 398.721Z" fill="#3F3D56"/>
<path id="server_1_bar" d="M498.139 307.277H419.247V316.242H498.139V307.277Z" fill="#F2F2F2"/>
<path id="server_1_dot_1" d="M602.133 318.035C605.104 318.035 607.512 315.627 607.512 312.656C607.512 309.685 605.104 307.277 602.133 307.277C599.162 307.277 596.754 309.685 596.754 312.656C596.754 315.627 599.162 318.035 602.133 318.035Z" fill="#F2F2F2"/>
<path id="server_1_dot_2" d="M620.063 318.035C623.034 318.035 625.442 315.627 625.442 312.656C625.442 309.685 623.034 307.277 620.063 307.277C617.092 307.277 614.684 309.685 614.684 312.656C614.684 315.627 617.092 318.035 620.063 318.035Z" fill="#F2F2F2"/>
<path id="server_1_dot_3" d="M637.992 318.035C640.963 318.035 643.371 315.627 643.371 312.656C643.371 309.685 640.963 307.277 637.992 307.277C635.021 307.277 632.613 309.685 632.613 312.656C632.613 315.627 635.021 318.035 637.992 318.035Z" fill="#F2F2F2"/>
</g>
<g id="Server 2">
<path id="server_2" d="M679.232 526.024H381.593C379.216 526.021 376.938 525.076 375.257 523.395C373.576 521.714 372.631 519.436 372.628 517.059V416.651C372.631 414.274 373.576 411.995 375.257 410.315C376.937 408.634 379.216 407.689 381.593 407.686H679.232C681.609 407.689 683.888 408.634 685.568 410.315C687.249 411.995 688.194 414.274 688.197 416.651V517.059C688.194 519.436 687.249 521.715 685.568 523.395C683.888 525.076 681.609 526.021 679.232 526.024Z" fill="#E6E6E6"/>
<path id="server_2_bar" d="M498.139 434.581H419.247V443.546H498.139V434.581Z" fill="#3F3D56"/>
<path id="server_2_dot_1" d="M602.133 445.339C605.104 445.339 607.512 442.931 607.512 439.96C607.512 436.989 605.104 434.581 602.133 434.581C599.162 434.581 596.754 436.989 596.754 439.96C596.754 442.931 599.162 445.339 602.133 445.339Z" fill="#3F3D56"/>
<path id="server_2_dot_2" d="M620.063 445.339C623.034 445.339 625.442 442.931 625.442 439.96C625.442 436.989 623.034 434.581 620.063 434.581C617.092 434.581 614.684 436.989 614.684 439.96C614.684 442.931 617.092 445.339 620.063 445.339Z" fill="#3F3D56"/>
<path id="server_2_dot_3" d="M637.992 445.339C640.963 445.339 643.371 442.931 643.371 439.96C643.371 436.989 640.963 434.581 637.992 434.581C635.021 434.581 632.613 436.989 632.613 439.96C632.613 442.931 635.021 445.339 637.992 445.339Z" fill="#3F3D56"/>
</g>
<g id="Server 1">
<path id="server_3" d="M679.232 653.328H381.593C379.216 653.325 376.938 652.38 375.257 650.699C373.576 649.018 372.631 646.74 372.628 644.363V543.954C372.631 541.577 373.576 539.298 375.257 537.618C376.937 535.937 379.216 534.992 381.593 534.989H679.232C681.609 534.992 683.888 535.937 685.568 537.618C687.249 539.298 688.194 541.577 688.197 543.954V644.363C688.194 646.74 687.249 649.019 685.568 650.699C683.888 652.38 681.609 653.325 679.232 653.328Z" fill="#E6E6E6"/>
<path id="server_3_bar" d="M498.139 561.885H419.247V570.85H498.139V561.885Z" fill="#3F3D56"/>
<path id="server_3_dot_1" d="M602.133 572.643C605.104 572.643 607.512 570.235 607.512 567.264C607.512 564.293 605.104 561.885 602.133 561.885C599.162 561.885 596.754 564.293 596.754 567.264C596.754 570.235 599.162 572.643 602.133 572.643Z" fill="#3F3D56"/>
<path id="server_3_dot_2" d="M620.063 572.643C623.034 572.643 625.442 570.235 625.442 567.264C625.442 564.293 623.034 561.885 620.063 561.885C617.092 561.885 614.684 564.293 614.684 567.264C614.684 570.235 617.092 572.643 620.063 572.643Z" fill="#3F3D56"/>
<path id="server_3_dot_3" d="M637.992 572.643C640.963 572.643 643.371 570.235 643.371 567.264C643.371 564.293 640.963 561.885 637.992 561.885C635.021 561.885 632.613 564.293 632.613 567.264C632.613 570.235 635.021 572.643 637.992 572.643Z" fill="#3F3D56"/>
</g>
<path id="ladder" d="M567.026 182.335L566.697 182.092L566.689 182.086C566.264 181.771 565.782 181.542 565.269 181.413C564.756 181.284 564.223 181.258 563.7 181.335C563.176 181.412 562.674 181.592 562.22 181.864C561.766 182.135 561.37 182.493 561.055 182.918L494.06 273.118H486.689V271.386C486.689 270.959 486.519 270.549 486.217 270.247C485.915 269.945 485.505 269.775 485.078 269.775H480.678C480.251 269.775 479.841 269.945 479.539 270.247C479.237 270.549 479.067 270.959 479.067 271.386V273.118H476.526V271.386C476.526 270.959 476.356 270.549 476.054 270.247C475.752 269.945 475.342 269.775 474.915 269.775H470.515C470.088 269.775 469.678 269.945 469.376 270.247C469.074 270.549 468.904 270.959 468.904 271.386V273.118H466.367V271.386C466.367 270.959 466.197 270.549 465.895 270.247C465.593 269.945 465.183 269.775 464.756 269.775H460.356C459.929 269.775 459.519 269.945 459.217 270.247C458.915 270.549 458.745 270.959 458.745 271.386V273.118H456.2V271.386C456.2 270.959 456.03 270.549 455.728 270.247C455.426 269.945 455.016 269.775 454.589 269.775H450.189C449.762 269.775 449.352 269.945 449.05 270.247C448.748 270.549 448.578 270.959 448.578 271.386V273.118H446.041V271.386C446.041 270.959 445.871 270.549 445.569 270.247C445.267 269.945 444.857 269.775 444.43 269.775H440.03C439.603 269.775 439.193 269.945 438.891 270.247C438.589 270.549 438.419 270.959 438.419 271.386V273.118H435.874V271.386C435.874 270.959 435.704 270.549 435.402 270.247C435.1 269.945 434.69 269.775 434.263 269.775H429.863C429.436 269.775 429.026 269.945 428.724 270.247C428.422 270.549 428.252 270.959 428.252 271.386V273.118H425.707V271.386C425.707 270.959 425.537 270.549 425.235 270.247C424.933 269.945 424.523 269.775 424.096 269.775H419.696C419.269 269.775 418.859 269.945 418.557 270.247C418.255 270.549 418.085 270.959 418.085 271.386V273.118H415.548V271.386C415.548 270.959 415.378 270.549 415.076 270.247C414.774 269.945 414.364 269.775 413.937 269.775H409.537C409.11 269.775 408.7 269.945 408.398 270.247C408.096 270.549 407.926 270.959 407.926 271.386V273.118H405.381V271.386C405.381 270.959 405.211 270.549 404.909 270.247C404.607 269.945 404.197 269.775 403.77 269.775H399.37C398.943 269.775 398.533 269.945 398.231 270.247C397.929 270.549 397.759 270.959 397.759 271.386V273.118H395.222V271.386C395.222 270.959 395.052 270.549 394.75 270.247C394.448 269.945 394.038 269.775 393.611 269.775H389.211C388.784 269.775 388.374 269.945 388.072 270.247C387.77 270.549 387.6 270.959 387.6 271.386V273.118H384.411C383.343 273.118 382.319 273.542 381.563 274.297C380.808 275.053 380.384 276.077 380.384 277.145V280.987C380.384 282.055 380.808 283.079 381.563 283.835C382.319 284.59 383.343 285.014 384.411 285.014H493.392C494.772 285.014 496.109 284.538 497.18 283.667C498.25 282.796 498.987 281.583 499.267 280.232L499.309 280.262L567.852 187.975L567.858 187.967C568.495 187.109 568.764 186.034 568.608 184.978C568.452 183.921 567.883 182.97 567.026 182.333V182.335Z" fill="#2F2E41"/>
<g id="Upper_body">
<path id="hand_1" d="M275.206 69.377L299.053 76.03L292.378 100.123L261.978 95.113L275.206 69.377Z" fill="#ED9DA0"/>
<path id="head" d="M320.569 66.0362C329.722 49.2931 323.569 28.3005 306.825 19.1479C290.082 9.9954 269.09 16.1488 259.937 32.8919C250.785 49.635 256.938 70.6276 273.681 79.7802C290.424 88.9327 311.417 82.7793 320.569 66.0362Z" fill="#ED9DA0"/>
<path id="hair" d="M287.809 56.79C291.951 57.329 295.075 53.09 296.524 49.174C297.973 45.258 299.077 40.697 302.678 38.581C307.598 35.69 313.892 39.167 319.518 38.213C325.871 37.136 330.002 30.403 330.326 23.967C330.65 17.531 328.089 11.341 325.576 5.408L324.699 12.782C324.816 10.2828 324.29 7.79525 323.172 5.55734C322.053 3.31943 320.379 1.40598 318.309 0L319.44 10.821C319.199 9.32846 318.666 7.89819 317.871 6.61226C317.075 5.32632 316.034 4.21002 314.807 3.32739C313.579 2.44477 312.19 1.81318 310.717 1.46887C309.245 1.12457 307.72 1.07432 306.228 1.321L306.406 7.76801C299.068 6.89501 291.666 6.022 284.306 6.686C276.946 7.35 269.535 9.679 263.957 14.526C255.613 21.776 252.566 33.715 253.589 44.726C254.612 55.737 259.155 66.072 263.889 76.06C265.08 78.573 266.728 81.409 269.489 81.729C271.971 82.017 274.243 79.942 275.014 77.565C275.609 75.1262 275.586 72.5776 274.947 70.15C274.247 66.44 273.369 62.65 274.025 58.931C274.681 55.212 277.356 51.54 281.103 51.084C284.85 50.628 288.685 54.912 286.883 58.229L287.809 56.79Z" fill="#2F2E41"/>
</g>
<g id="Lower_body">
<path id="foot_1" d="M162.39 593.492L145.023 580.407L131.29 598.634L148.657 611.719L162.39 593.492Z" fill="#ED9DA0"/>
<path id="shoe_1" d="M121.911 617.557L160.657 646.749C163.991 649.255 167.843 650.984 171.931 651.809L181.663 653.755C182.735 653.97 183.846 653.852 184.849 653.418C185.853 652.984 186.699 652.254 187.277 651.326C187.854 650.398 188.135 649.316 188.081 648.225C188.028 647.133 187.642 646.084 186.976 645.217L175.316 630.039L160.087 597.792L159.995 597.874C157.725 599.906 154.282 602.963 154.021 603.114C149.204 604.128 145.52 603.492 143.07 601.224C138.798 597.269 139.747 589.609 139.757 589.532L139.765 589.473L139.714 589.442C139.23 589.108 138.675 588.889 138.092 588.803C137.51 588.717 136.915 588.766 136.354 588.946C134.1 589.743 132.896 592.678 132.724 593.128C130.528 593.412 124.756 599.89 124.291 600.418C121.005 600.978 118.733 602.186 117.536 604.006C117.004 604.915 116.671 605.926 116.557 606.973C116.444 608.019 116.553 609.078 116.878 610.079C117.651 613.073 119.425 615.712 121.905 617.559L121.911 617.557Z" fill="#2F2E41"/>
<path id="foot_2" d="M311.121 610.326H288.391V634.182H311.121V610.326Z" fill="#ED9DA0"/>
<path id="shoe_2" d="M292.463 655.883H343.175C347.536 655.878 351.842 654.897 355.775 653.013L365.124 648.52C366.154 648.025 367.008 647.228 367.573 646.234C368.138 645.241 368.386 644.099 368.284 642.961C368.183 641.822 367.736 640.742 367.004 639.865C366.273 638.987 365.29 638.354 364.189 638.049L344.903 632.712L311.903 615.369L311.878 615.494C311.261 618.619 310.305 623.34 310.186 623.627C306.802 627.504 303.326 629.29 299.855 628.937C293.8 628.323 289.774 621.331 289.734 621.26L289.704 621.206L289.642 621.213C289.027 621.239 288.426 621.405 287.885 621.7C287.345 621.995 286.88 622.41 286.525 622.913C285.143 624.996 285.986 628.204 286.125 628.688C284.47 630.306 283.725 639.346 283.671 640.079C281.279 642.614 280.142 645.052 280.287 647.324C280.415 648.417 280.772 649.47 281.336 650.415C281.9 651.36 282.657 652.175 283.558 652.806C286.086 654.819 289.227 655.906 292.458 655.888L292.463 655.883Z" fill="#2F2E41"/>
<path id="pants" d="M326.17 331.96C326.17 331.96 337.976 389.453 323.022 436.636L314.959 612.272L284.459 615.687L273.832 481.104L263.6 414.204L242.35 475.204L172.304 604.275L140.035 579.09C140.035 579.09 175.794 481.52 202.211 461.034L215.46 310.134L326.17 331.96Z" fill="#3F3D56"/>
<path id="laptop" d="M328.309 347.334L212.981 339.893L221.662 303.931L327.068 327.493L328.309 347.334Z" fill="#E6E6E6"/>
</g>
<g id="mid body">
<path id="arm_sleeve" d="M217.266 159.754C217.266 159.754 207.085 151.954 207.085 171.006L205.478 233.966L223.428 293.443L233.877 274.153L229.59 232.358L217.266 159.754Z" fill="#6C63FF"/>
<path id="hand_2" d="M422.725 270.457C421.052 270.882 419.306 270.935 417.61 270.612C415.914 270.29 414.309 269.599 412.909 268.589C411.509 267.579 410.347 266.274 409.506 264.766C408.665 263.259 408.164 261.585 408.04 259.863L367.508 249.006L383.813 234.528L419.803 247.057C422.712 247.036 425.527 248.083 427.714 250.001C429.902 251.918 431.309 254.571 431.67 257.458C432.03 260.344 431.318 263.262 429.669 265.658C428.021 268.055 425.55 269.762 422.725 270.457Z" fill="#ED9DA0"/>
<path id="tshirt" d="M257.186 95.454L264.42 85.411C264.42 85.411 272.505 88.159 294.158 98.937L295.688 108.346L333.274 339.523L264.956 336.572L246.356 336.172L240.268 322.524L232.76 335.882L214.592 335.495L196.106 324.778L214.324 269.052L220.218 218.152L211.105 170.202C211.105 170.202 199.643 126.164 243.791 102.42L257.186 95.454Z" fill="#6C63FF"/>
<path id="arm" d="M393.017 264.328C392.165 264.792 391.224 265.072 390.257 265.149C389.29 265.225 388.317 265.098 387.402 264.774L320.726 239.468C304.46 233.701 290.842 222.223 282.405 207.168L254.6 157.568C250.669 153.164 248.649 147.38 248.984 141.486C249.318 135.593 251.98 130.074 256.384 126.143C260.787 122.213 266.572 120.193 272.465 120.527C278.358 120.861 283.877 123.523 287.808 127.927L335.934 204.207L396.5 239.716C397.687 240.495 398.606 241.62 399.133 242.938C399.66 244.256 399.77 245.704 399.447 247.087L396.435 259.85C396.112 261.218 395.379 262.456 394.335 263.397C393.935 263.758 393.493 264.071 393.019 264.329L393.017 264.328Z" fill="#6C63FF"/>
</g>
</g>
</g>
<defs>
<clipPath id="clip0_202_2">
<rect width="800" height="661.187" fill="white"/>
</clipPath>
</defs>
</svg>
