<svg width="598" height="480" viewBox="0 0 598 480" fill="none" xmlns="http://www.w3.org/2000/svg">
<rect width="598" height="480" fill="#E5E5E5"/>
<g id="Home">
<rect width="1440" height="4081" transform="translate(-714 -1672)" fill="white"/>
<g id="front end section">
<g id="section content">
<g id="front end illustrator" clip-path="url(#clip0_0_1)">
<g id="canvas_1">
<path id="Vector" d="M361.085 211.851H224.067C220.271 211.846 216.631 210.314 213.947 207.591C211.262 204.867 209.752 201.175 209.748 197.323V15.8939C209.753 12.0423 211.263 8.34976 213.947 5.62631C216.631 2.90286 220.271 1.37092 224.067 1.36658H361.085C364.882 1.37092 368.521 2.90286 371.206 5.62631C373.89 8.34976 375.4 12.0423 375.404 15.8939V197.323C375.4 201.175 373.89 204.867 371.206 207.591C368.521 210.314 364.882 211.846 361.085 211.851V211.851Z" fill="#F0F0F0"/>
<path id="Vector_2" d="M290.152 234.304C303.829 234.304 314.917 223.055 314.917 209.179C314.917 195.303 303.829 184.053 290.152 184.053C276.475 184.053 265.387 195.303 265.387 209.179C265.387 223.055 276.475 234.304 290.152 234.304Z" fill="#562756"/>
<path id="Vector_3" d="M361.085 212.552H224.067C220.088 212.547 216.272 210.941 213.458 208.086C210.644 205.231 209.061 201.36 209.057 197.323V15.894C209.061 11.8564 210.644 7.98556 213.458 5.13059C216.272 2.27561 220.088 0.669657 224.067 0.665039H361.085C365.065 0.669587 368.88 2.2755 371.694 5.13049C374.508 7.98547 376.091 11.8564 376.096 15.894V197.323C376.091 201.36 374.509 205.231 371.694 208.086C368.88 210.941 365.065 212.547 361.085 212.552ZM224.067 2.06827C220.454 2.0724 216.99 3.53035 214.436 6.12228C211.881 8.71421 210.444 12.2284 210.44 15.894V197.323C210.444 200.988 211.881 204.503 214.436 207.095C216.99 209.687 220.454 211.145 224.067 211.149H361.085C364.698 211.145 368.162 209.687 370.717 207.095C373.272 204.503 374.709 200.988 374.713 197.323V15.894C374.709 12.2284 373.272 8.71411 370.717 6.12218C368.162 3.53025 364.698 2.07233 361.085 2.06827H224.067Z" fill="#562756"/>
<path id="Vector_4" d="M286.774 222.256C286.346 222.256 285.924 222.155 285.542 221.961C285.159 221.766 284.826 221.485 284.57 221.137L277.814 211.998C277.597 211.704 277.439 211.37 277.349 211.015C277.259 210.659 277.239 210.289 277.29 209.926C277.342 209.562 277.463 209.213 277.647 208.897C277.832 208.581 278.075 208.305 278.365 208.085C278.654 207.865 278.983 207.705 279.334 207.614C279.684 207.523 280.049 207.502 280.407 207.554C280.765 207.606 281.11 207.729 281.421 207.916C281.732 208.103 282.004 208.351 282.221 208.644L286.641 214.623L297.994 197.346C298.4 196.732 299.03 196.307 299.745 196.163C300.461 196.019 301.203 196.168 301.81 196.579C302.416 196.989 302.838 197.627 302.982 198.352C303.126 199.077 302.981 199.83 302.578 200.447L289.066 221.011C288.821 221.383 288.493 221.69 288.107 221.906C287.722 222.123 287.291 222.242 286.85 222.255C286.825 222.255 286.799 222.256 286.774 222.256Z" fill="white"/>
</g>
<g id="monitor">
<path id="Vector_5" d="M268.665 308.877H5.87815C4.31972 308.876 2.82564 308.247 1.72367 307.129C0.621691 306.011 0.00181259 304.495 1.52588e-05 302.914V61.5587C0.00175414 59.9776 0.621615 58.4617 1.7236 57.3437C2.82559 56.2256 4.3197 55.5967 5.87815 55.595H268.665C270.224 55.5967 271.718 56.2256 272.82 57.3436C273.922 58.4617 274.542 59.9776 274.543 61.5587V302.914C274.542 304.495 273.922 306.011 272.82 307.129C271.718 308.247 270.224 308.876 268.665 308.877V308.877Z" fill="#3F3D56"/>
<path id="Vector_6" d="M263.133 303.265H11.4105C9.85207 303.263 8.35799 302.634 7.25601 301.516C6.15404 300.398 5.53416 298.882 5.53236 297.301V67.1716C5.5341 65.5905 6.15396 64.0746 7.25595 62.9566C8.35794 61.8385 9.85205 61.2096 11.4105 61.2079H263.133C264.691 61.2096 266.185 61.8385 267.287 62.9566C268.389 64.0746 269.009 65.5905 269.011 67.1716V297.301C269.009 298.882 268.389 300.398 267.287 301.516C266.185 302.634 264.691 303.263 263.133 303.265V303.265Z" fill="white"/>
<path id="Vector_7" d="M24.1997 86.2092C53.8236 85.6866 83.4507 85.6115 113.081 85.984C142.707 86.3586 172.323 87.1828 201.929 88.4566C218.542 89.1714 235.149 90.0277 251.749 91.0255C253.082 91.1056 253.078 89.0005 251.749 88.9207C222.172 87.145 192.574 85.8164 162.954 84.9347C133.338 84.0555 103.714 83.6258 74.0815 83.6457C57.4533 83.6569 40.8261 83.8098 24.1997 84.1044C22.8662 84.1279 22.862 86.2328 24.1997 86.2092V86.2092Z" fill="#3F3D56"/>
<path id="Vector_8" d="M230.65 73.0112L243.604 72.033C244.927 71.9331 244.938 69.8275 243.604 69.9282L230.65 70.9063C229.327 71.0062 229.316 73.1119 230.65 73.0112V73.0112Z" fill="#3F3D56"/>
<path id="Vector_9" d="M31.8659 70.1805C30.9651 70.1749 30.0826 70.4383 29.3283 70.9381C28.5741 71.4378 27.9816 72.1518 27.6245 72.9908C27.2252 73.8121 27.1019 74.7435 27.2735 75.6425C27.4452 76.5416 27.9024 77.3588 28.5752 77.9694C29.2076 78.5153 29.9662 78.8896 30.78 79.0573C31.5937 79.2251 32.4361 79.1807 33.2284 78.9285C34.0387 78.6414 34.7413 78.1065 35.2396 77.3975C35.7379 76.6885 36.0073 75.8403 36.0108 74.9695C36.0469 74.0034 35.789 73.0495 35.272 72.2374C34.7549 71.4254 34.0039 70.7945 33.1211 70.4308C32.8558 70.3577 32.5729 70.3939 32.3338 70.5316C32.0948 70.6693 31.9191 70.8973 31.8451 71.1658C31.7797 71.4347 31.8183 71.7188 31.9531 71.9596C32.0878 72.2004 32.3085 72.3796 32.5696 72.4604C32.7504 72.5313 32.4044 72.3703 32.5732 72.4636C32.6426 72.5019 32.7133 72.5366 32.7815 72.5776C32.8395 72.6124 32.8949 72.6505 32.9513 72.6878C33.1449 72.816 32.8568 72.5937 32.9805 72.7089C33.0879 72.8089 33.1942 72.9064 33.2918 73.0167C33.3286 73.0584 33.4732 73.1744 33.3609 73.0933C33.2749 73.0313 33.3277 73.0459 33.3609 73.0957C33.386 73.1335 33.4126 73.1703 33.4374 73.2083C33.5183 73.3324 33.5918 73.4614 33.6575 73.5944C33.6728 73.6252 33.6867 73.6567 33.7022 73.6873C33.7313 73.7447 33.7734 73.7598 33.7051 73.6879C33.6399 73.6192 33.6814 73.6239 33.7047 73.69C33.7201 73.7334 33.7368 73.7763 33.7518 73.8199C33.8004 73.9619 33.8412 74.1065 33.8741 74.253C33.8893 74.3208 33.9015 74.3889 33.9146 74.4571C33.9609 74.6988 33.9078 74.3068 33.919 74.4864C33.9284 74.6362 33.9393 74.7845 33.9367 74.935C33.9355 75.0039 33.9326 75.0727 33.9278 75.1414C33.9255 75.1756 33.9217 75.2098 33.9195 75.2441C33.9087 75.4092 33.9083 75.1837 33.9311 75.1683C33.8837 75.3085 33.8523 75.4537 33.8374 75.6012C33.8188 75.6666 33.7968 75.7306 33.7761 75.7953C33.7039 76.0211 33.8438 75.6723 33.7669 75.8266C33.7036 75.9592 33.6328 76.0879 33.555 76.2123C33.5212 76.2643 33.3937 76.382 33.498 76.3001C33.611 76.2113 33.4387 76.3643 33.4019 76.4036C33.3546 76.4542 33.3056 76.503 33.2548 76.55C33.2222 76.5822 33.1879 76.6125 33.1519 76.6407C33.1453 76.6374 33.3252 76.5188 33.2282 76.5816C33.105 76.6613 32.9883 76.7466 32.8584 76.8161C32.8432 76.8242 32.6772 76.9022 32.6779 76.905C32.6707 76.8766 32.8914 76.8262 32.7399 76.8758C32.7081 76.8862 32.6769 76.8988 32.6452 76.9097C32.5073 76.9568 32.3665 76.9948 32.2238 77.0235C32.1911 77.0302 32.1566 77.0335 32.1244 77.042C32.0171 77.0701 32.2268 77.0255 32.2331 77.0291C32.1539 77.0257 32.0745 77.0328 31.9971 77.0503C31.8499 77.0589 31.7024 77.0589 31.5552 77.0503C31.5211 77.0483 31.4871 77.0449 31.4531 77.0429C31.3741 77.0382 31.3161 76.9804 31.4212 77.0432C31.5024 77.0916 31.4956 77.0562 31.4237 77.0428C31.3901 77.0365 31.3563 77.0311 31.3227 77.0247C31.177 76.9971 31.033 76.9613 30.8912 76.9175C30.8149 76.8939 30.7401 76.8665 30.6649 76.8398C30.6321 76.8301 30.6002 76.8177 30.5694 76.8025C30.569 76.7939 30.7634 76.8968 30.6608 76.8407C30.5312 76.7698 30.3972 76.7104 30.2707 76.633C30.2032 76.5917 30.1383 76.5467 30.0727 76.5025C30.0438 76.4848 30.0163 76.4649 29.9906 76.4429C29.9927 76.434 30.1514 76.5831 30.0681 76.5026C29.9628 76.4008 29.8501 76.3096 29.7504 76.2012C29.7275 76.1764 29.706 76.1504 29.6832 76.1255L29.6612 76.1C29.605 76.0303 29.6039 76.0306 29.6581 76.101C29.7131 76.1174 29.7106 76.1786 29.6584 76.0991C29.6398 76.0708 29.62 76.0433 29.6015 76.0149C29.5173 75.8931 29.4454 75.763 29.3871 75.6265C29.3921 75.6225 29.4769 75.8797 29.4121 75.6856C29.3998 75.6489 29.3861 75.6128 29.3741 75.5761C29.3502 75.5032 29.3292 75.4294 29.3111 75.3549C29.2932 75.2811 29.284 75.2049 29.2659 75.1314C29.2354 75.0074 29.2837 75.2292 29.2782 75.2236C29.2609 75.2063 29.2682 75.0988 29.267 75.0731C29.2587 74.9079 29.2772 74.7477 29.2801 74.5835C29.2824 74.4564 29.2697 74.6826 29.2671 74.676C29.2677 74.6379 29.2744 74.6002 29.2868 74.5642C29.3056 74.4776 29.3231 74.3911 29.346 74.3055C29.3724 74.2075 29.4027 74.1107 29.4369 74.0151C29.4498 73.9793 29.4654 73.944 29.4773 73.908C29.5209 73.7758 29.3908 74.0676 29.4626 73.9484C29.5613 73.7844 29.6348 73.607 29.7396 73.4451C29.7644 73.4067 29.9153 73.1929 29.8352 73.3008C29.7554 73.4084 29.9172 73.2046 29.9479 73.17C30.0751 73.0262 30.2247 72.9082 30.3565 72.7706C30.4345 72.6891 30.302 72.8107 30.2942 72.8164C30.335 72.7868 30.375 72.7561 30.4163 72.7272C30.4883 72.6768 30.5621 72.6292 30.6376 72.5844C30.7227 72.5337 30.819 72.496 30.9014 72.4425C30.9989 72.3792 30.8269 72.4703 30.8239 72.4722C30.8684 72.4498 30.9149 72.4318 30.9628 72.4184C31.0431 72.3895 31.3925 72.2366 31.4658 72.2844C31.4624 72.2823 31.2005 72.3058 31.4122 72.292C31.4623 72.2888 31.5121 72.2838 31.5622 72.2817C31.6636 72.2774 31.7646 72.28 31.8659 72.2853C32.1405 72.2835 32.4033 72.1721 32.5974 71.9751C32.7915 71.7781 32.9014 71.5115 32.9032 71.2329C32.8973 70.9557 32.7862 70.6914 32.5929 70.4953C32.3996 70.2993 32.1392 70.1865 31.8659 70.1805V70.1805Z" fill="#3F3D56"/>
<path id="Vector_10" d="M230.65 85.6403L243.604 84.6622C244.927 84.5622 244.938 82.4566 243.604 82.5573L230.65 83.5355C229.327 83.6354 229.316 85.741 230.65 85.6403V85.6403Z" fill="#3F3D56"/>
<path id="Vector_11" d="M229.676 79.8728L248.093 81.5704C249.422 81.6929 249.414 79.5873 248.093 79.4655L229.676 77.768C228.347 77.6454 228.355 79.751 229.676 79.8728V79.8728Z" fill="#3F3D56"/>
<path id="Vector_12" d="M46.3883 70.1805C45.4875 70.1749 44.605 70.4383 43.8508 70.9381C43.0966 71.4378 42.504 72.1518 42.147 72.9908C41.7476 73.8121 41.6243 74.7435 41.796 75.6425C41.9676 76.5416 42.4248 77.3588 43.0976 77.9694C43.7301 78.5153 44.4886 78.8896 45.3024 79.0573C46.1162 79.2251 46.9586 79.1807 47.7509 78.9285C48.5611 78.6414 49.2638 78.1065 49.762 77.3975C50.2603 76.6885 50.5297 75.8403 50.5332 74.9695C50.5694 74.0034 50.3114 73.0495 49.7944 72.2374C49.2774 71.4254 48.5264 70.7945 47.6435 70.4308C47.3783 70.3577 47.0953 70.3939 46.8563 70.5316C46.6172 70.6693 46.4416 70.8973 46.3675 71.1658C46.3021 71.4347 46.3407 71.7188 46.4755 71.9596C46.6103 72.2004 46.8309 72.3796 47.092 72.4604C47.2728 72.5313 46.9269 72.3703 47.0957 72.4636C47.1651 72.5019 47.2358 72.5366 47.3039 72.5776C47.3619 72.6124 47.4174 72.6505 47.4737 72.6878C47.6674 72.816 47.3792 72.5937 47.503 72.7089C47.6103 72.8089 47.7167 72.9064 47.8142 73.0167C47.8511 73.0584 47.9956 73.1744 47.8833 73.0933C47.7974 73.0313 47.8502 73.0459 47.8833 73.0957C47.9084 73.1335 47.935 73.1703 47.9598 73.2083C48.0407 73.3324 48.1142 73.4614 48.18 73.5944C48.1952 73.6252 48.2092 73.6567 48.2247 73.6873C48.2537 73.7447 48.2958 73.7598 48.2275 73.6879C48.1623 73.6192 48.2038 73.6239 48.2272 73.69C48.2425 73.7334 48.2593 73.7763 48.2742 73.8199C48.3228 73.9619 48.3637 74.1065 48.3965 74.253C48.4117 74.3208 48.4239 74.3889 48.437 74.4571C48.4833 74.6988 48.4303 74.3068 48.4415 74.4864C48.4508 74.6362 48.4617 74.7845 48.4591 74.935C48.458 75.0039 48.455 75.0727 48.4503 75.1414C48.4479 75.1756 48.4441 75.2098 48.4419 75.2441C48.4311 75.4092 48.4308 75.1837 48.4536 75.1683C48.4062 75.3085 48.3747 75.4537 48.3598 75.6012C48.3413 75.6666 48.3192 75.7306 48.2985 75.7953C48.2264 76.0211 48.3663 75.6723 48.2894 75.8266C48.226 75.9592 48.1553 76.0879 48.0774 76.2123C48.0436 76.2643 47.9162 76.382 48.0204 76.3001C48.1335 76.2113 47.9611 76.3643 47.9243 76.4036C47.8771 76.4542 47.828 76.503 47.7772 76.55C47.7447 76.5822 47.7103 76.6125 47.6743 76.6407C47.6677 76.6374 47.8476 76.5188 47.7507 76.5816C47.6274 76.6613 47.5107 76.7466 47.3808 76.8161C47.3657 76.8242 47.1996 76.9022 47.2003 76.905C47.1932 76.8766 47.4138 76.8262 47.2623 76.8758C47.2305 76.8862 47.1993 76.8988 47.1676 76.9097C47.0297 76.9568 46.8889 76.9948 46.7462 77.0235C46.7135 77.0302 46.679 77.0335 46.6468 77.042C46.5396 77.0701 46.7493 77.0255 46.7556 77.0291C46.6763 77.0257 46.5969 77.0328 46.5195 77.0503C46.3723 77.0589 46.2248 77.0589 46.0776 77.0503C46.0436 77.0483 46.0096 77.0449 45.9755 77.0429C45.8965 77.0382 45.8385 76.9804 45.9437 77.0432C46.0248 77.0916 46.0181 77.0562 45.9462 77.0428C45.9126 77.0365 45.8788 77.0311 45.8452 77.0247C45.6995 76.9971 45.5554 76.9613 45.4136 76.9175C45.3374 76.8939 45.2626 76.8665 45.1873 76.8398C45.1545 76.8301 45.1226 76.8177 45.0919 76.8025C45.0914 76.7939 45.2859 76.8968 45.1832 76.8407C45.0536 76.7698 44.9197 76.7104 44.7931 76.633C44.7256 76.5917 44.6608 76.5467 44.5951 76.5025C44.5662 76.4848 44.5388 76.4649 44.513 76.4429C44.5152 76.434 44.6738 76.5831 44.5905 76.5026C44.4852 76.4008 44.3726 76.3096 44.2728 76.2012C44.25 76.1764 44.2284 76.1504 44.2057 76.1255L44.1837 76.1C44.1274 76.0303 44.1264 76.0306 44.1805 76.101C44.2355 76.1174 44.233 76.1786 44.1808 76.0991C44.1623 76.0708 44.1425 76.0433 44.1239 76.0149C44.0397 75.8931 43.9679 75.763 43.9095 75.6265C43.9146 75.6225 43.9994 75.8797 43.9345 75.6856C43.9223 75.6489 43.9085 75.6128 43.8965 75.5761C43.8727 75.5032 43.8517 75.4294 43.8335 75.3549C43.8156 75.2811 43.8064 75.2049 43.7883 75.1314C43.7578 75.0074 43.8061 75.2292 43.8006 75.2236C43.7833 75.2063 43.7907 75.0988 43.7894 75.0731C43.7811 74.9079 43.7996 74.7477 43.8025 74.5835C43.8048 74.4564 43.7922 74.6826 43.7895 74.676C43.7902 74.6379 43.7968 74.6002 43.8092 74.5642C43.828 74.4776 43.8455 74.3911 43.8685 74.3055C43.8948 74.2075 43.9251 74.1107 43.9594 74.0151C43.9722 73.9793 43.9878 73.944 43.9997 73.908C44.0434 73.7758 43.9133 74.0676 43.985 73.9484C44.0837 73.7844 44.1572 73.607 44.262 73.4451C44.2868 73.4067 44.4378 73.1929 44.3577 73.3008C44.2779 73.4084 44.4397 73.2046 44.4703 73.17C44.5975 73.0262 44.7472 72.9082 44.8789 72.7706C44.9569 72.6891 44.8245 72.8107 44.8167 72.8164C44.8575 72.7868 44.8974 72.7561 44.9387 72.7272C45.0107 72.6768 45.0845 72.6292 45.1601 72.5844C45.2452 72.5337 45.3414 72.496 45.4239 72.4425C45.5213 72.3792 45.3494 72.4703 45.3463 72.4722C45.3908 72.4498 45.4373 72.4318 45.4852 72.4184C45.5656 72.3895 45.9149 72.2366 45.9882 72.2844C45.9849 72.2823 45.7229 72.3058 45.9347 72.292C45.9847 72.2888 46.0346 72.2838 46.0847 72.2817C46.186 72.2774 46.2871 72.28 46.3883 72.2853C46.6629 72.2835 46.9257 72.1721 47.1198 71.9751C47.314 71.7781 47.4239 71.5115 47.4257 71.2329C47.4198 70.9557 47.3086 70.6914 47.1153 70.4953C46.922 70.2993 46.6616 70.1865 46.3883 70.1805V70.1805Z" fill="#3F3D56"/>
<path id="Vector_13" d="M60.9108 70.1805C60.01 70.1749 59.1274 70.4383 58.3732 70.9381C57.619 71.4378 57.0265 72.1518 56.6694 72.9908C56.27 73.8121 56.1467 74.7435 56.3184 75.6425C56.4901 76.5416 56.9473 77.3588 57.6201 77.9694C58.2525 78.5153 59.0111 78.8896 59.8248 79.0573C60.6386 79.2251 61.481 79.1807 62.2733 78.9285C63.0836 78.6414 63.7862 78.1065 64.2845 77.3975C64.7827 76.6885 65.0522 75.8403 65.0556 74.9695C65.0918 74.0034 64.8339 73.0495 64.3168 72.2374C63.7998 71.4254 63.0488 70.7945 62.166 70.4308C61.9007 70.3577 61.6178 70.3939 61.3787 70.5316C61.1397 70.6693 60.964 70.8973 60.89 71.1658C60.8245 71.4347 60.8632 71.7188 60.998 71.9596C61.1327 72.2004 61.3534 72.3796 61.6145 72.4604C61.7952 72.5313 61.4493 72.3703 61.6181 72.4636C61.6875 72.5019 61.7582 72.5366 61.8264 72.5776C61.8843 72.6124 61.9398 72.6505 61.9962 72.6878C62.1898 72.816 61.9016 72.5937 62.0254 72.7089C62.1327 72.8089 62.2391 72.9064 62.3366 73.0167C62.3735 73.0584 62.5181 73.1744 62.4057 73.0933C62.3198 73.0313 62.3726 73.0459 62.4057 73.0957C62.4308 73.1335 62.4574 73.1703 62.4822 73.2083C62.5631 73.3324 62.6366 73.4614 62.7024 73.5944C62.7177 73.6252 62.7316 73.6567 62.7471 73.6873C62.7761 73.7447 62.8183 73.7598 62.75 73.6879C62.6847 73.6192 62.7263 73.6239 62.7496 73.69C62.7649 73.7334 62.7817 73.7763 62.7966 73.8199C62.8453 73.9619 62.8861 74.1065 62.9189 74.253C62.9341 74.3208 62.9464 74.3889 62.9594 74.4571C63.0057 74.6988 62.9527 74.3068 62.9639 74.4864C62.9732 74.6362 62.9841 74.7845 62.9815 74.935C62.9804 75.0039 62.9774 75.0727 62.9727 75.1414C62.9703 75.1756 62.9665 75.2098 62.9643 75.2441C62.9536 75.4092 62.9532 75.1837 62.976 75.1683C62.9286 75.3085 62.8971 75.4537 62.8822 75.6012C62.8637 75.6666 62.8416 75.7306 62.8209 75.7953C62.7488 76.0211 62.8887 75.6723 62.8118 75.8266C62.7485 75.9592 62.6777 76.0879 62.5998 76.2123C62.566 76.2643 62.4386 76.382 62.5428 76.3001C62.6559 76.2113 62.4835 76.3643 62.4468 76.4036C62.3995 76.4542 62.3505 76.503 62.2996 76.55C62.2671 76.5822 62.2327 76.6125 62.1967 76.6407C62.1901 76.6374 62.37 76.5188 62.2731 76.5816C62.1498 76.6613 62.0331 76.7466 61.9032 76.8161C61.8881 76.8242 61.722 76.9022 61.7227 76.905C61.7156 76.8766 61.9362 76.8262 61.7848 76.8758C61.7529 76.8862 61.7217 76.8988 61.69 76.9097C61.5521 76.9568 61.4114 76.9948 61.2686 77.0235C61.236 77.0302 61.2014 77.0335 61.1692 77.042C61.062 77.0701 61.2717 77.0255 61.278 77.0291C61.1987 77.0257 61.1194 77.0328 61.0419 77.0503C60.8947 77.0589 60.7472 77.0589 60.6 77.0503C60.566 77.0483 60.532 77.0449 60.498 77.0429C60.4189 77.0382 60.3609 76.9804 60.4661 77.0432C60.5472 77.0916 60.5405 77.0562 60.4686 77.0428C60.435 77.0365 60.4012 77.0311 60.3676 77.0247C60.2219 76.9971 60.0778 76.9613 59.9361 76.9175C59.8598 76.8939 59.785 76.8665 59.7097 76.8398C59.6769 76.8301 59.645 76.8177 59.6143 76.8025C59.6138 76.7939 59.8083 76.8968 59.7056 76.8407C59.5761 76.7698 59.4421 76.7104 59.3155 76.633C59.248 76.5917 59.1832 76.5467 59.1175 76.5025C59.0886 76.4848 59.0612 76.4649 59.0354 76.4429C59.0376 76.434 59.1963 76.5831 59.113 76.5026C59.0076 76.4008 58.895 76.3096 58.7952 76.2012C58.7724 76.1764 58.7508 76.1504 58.7281 76.1255L58.7061 76.1C58.6498 76.0303 58.6488 76.0306 58.7029 76.101C58.7579 76.1174 58.7554 76.1786 58.7033 76.0991C58.6847 76.0708 58.6649 76.0433 58.6464 76.0149C58.5621 75.8931 58.4903 75.763 58.4319 75.6265C58.437 75.6225 58.5218 75.8797 58.4569 75.6856C58.4447 75.6489 58.4309 75.6128 58.4189 75.5761C58.3951 75.5032 58.3741 75.4294 58.356 75.3549C58.3381 75.2811 58.3288 75.2049 58.3108 75.1314C58.2803 75.0074 58.3286 75.2292 58.3231 75.2236C58.3058 75.2063 58.3131 75.0988 58.3118 75.0731C58.3035 74.9079 58.3221 74.7477 58.325 74.5835C58.3272 74.4564 58.3146 74.6826 58.312 74.676C58.3126 74.6379 58.3193 74.6002 58.3317 74.5642C58.3505 74.4776 58.3679 74.3911 58.3909 74.3055C58.4173 74.2075 58.4475 74.1107 58.4818 74.0151C58.4946 73.9793 58.5103 73.944 58.5222 73.908C58.5658 73.7758 58.4357 74.0676 58.5075 73.9484C58.6062 73.7844 58.6797 73.607 58.7844 73.4451C58.8093 73.4067 58.9603 73.1929 58.8801 73.3008C58.8003 73.4084 58.9621 73.2046 58.9927 73.17C59.12 73.0262 59.2696 72.9082 59.4014 72.7706C59.4793 72.6891 59.3469 72.8107 59.3391 72.8164C59.3799 72.7868 59.4199 72.7561 59.4612 72.7272C59.5332 72.6768 59.607 72.6292 59.6825 72.5844C59.7676 72.5337 59.8639 72.496 59.9463 72.4425C60.0438 72.3792 59.8718 72.4703 59.8687 72.4722C59.9132 72.4498 59.9598 72.4318 60.0077 72.4184C60.088 72.3895 60.4374 72.2366 60.5106 72.2844C60.5073 72.2823 60.2454 72.3058 60.4571 72.292C60.5072 72.2888 60.557 72.2838 60.6071 72.2817C60.7085 72.2774 60.8095 72.28 60.9108 72.2853C61.1853 72.2835 61.4481 72.1721 61.6423 71.9751C61.8364 71.7781 61.9463 71.5115 61.9481 71.2329C61.9422 70.9557 61.8311 70.6914 61.6378 70.4953C61.4445 70.2993 61.1841 70.1865 60.9108 70.1805V70.1805Z" fill="#3F3D56"/>
<path id="Vector_14" d="M30.6029 125.455L31.528 161.381L32.4531 197.307C32.5698 201.84 31.9386 208.023 36.4707 210.678C38.3613 211.786 40.6217 212.029 42.7644 212.089C45.6087 212.169 48.4622 212.11 51.3075 212.113L86.7492 212.151C91.4059 212.156 96.5205 212.019 99.8568 208.213C102.642 205.037 103.431 200.634 103.71 196.525C104.079 191.102 103.902 185.612 103.95 180.178L104.109 162.123L104.268 144.068C104.316 138.583 104.572 133.054 104.335 127.572C104.154 123.39 103.457 118.923 100.693 115.637C97.5446 111.893 92.5662 111.387 88.0256 111.24C76.2824 110.858 64.537 110.536 52.7929 110.185C50.091 110.104 47.3814 109.957 44.6779 109.993C42.2738 109.946 39.8795 110.318 37.5995 111.093C33.8024 112.535 30.8363 115.995 30.9683 120.286C30.9769 121.185 31.1724 122.072 31.5421 122.889C31.9118 123.705 32.4474 124.434 33.1137 125.026C34.1272 125.896 35.6018 124.414 34.5807 123.538C31.813 121.162 33.1534 116.711 35.5728 114.603C39.0783 111.548 44.574 112.044 48.8486 112.172L82.1175 113.167C84.6976 113.244 87.2849 113.27 89.8619 113.424C92.1623 113.562 94.5652 113.865 96.6242 114.989C100.185 116.932 101.574 120.92 102.042 124.777C102.631 129.629 102.276 134.637 102.233 139.511L102.082 156.689L101.782 190.696C101.746 194.832 101.809 199.101 100.437 203.056C99.8475 204.891 98.7679 206.524 97.3184 207.773C95.4981 209.114 93.3228 209.868 91.0747 209.939C88.5495 210.146 85.9953 210.046 83.4643 210.043L74.82 210.034L58.223 210.016L49.5787 210.006C47.0528 210.004 44.5085 210.093 41.9858 209.953C40.0495 209.844 37.8889 209.505 36.4624 208.044C34.8644 206.407 34.7161 203.879 34.6428 201.708C33.8789 179.103 33.4763 156.478 32.8941 133.867L32.6775 125.455C32.6427 124.103 30.5679 124.098 30.6029 125.455L30.6029 125.455Z" fill="#3F3D56"/>
<path id="Vector_15" d="M161.996 125.455L162.922 161.381L163.847 197.307C163.963 201.84 163.332 208.023 167.864 210.678C169.755 211.786 172.015 212.029 174.158 212.089C177.002 212.169 179.856 212.11 182.701 212.113L218.143 212.151C222.799 212.156 227.914 212.019 231.25 208.213C234.035 205.037 234.824 200.634 235.104 196.525C235.472 191.102 235.295 185.612 235.343 180.178L235.502 162.123L235.661 144.068C235.71 138.583 235.965 133.054 235.728 127.572C235.547 123.39 234.85 118.923 232.087 115.637C228.938 111.893 223.96 111.387 219.419 111.24C207.676 110.858 195.931 110.536 184.186 110.185C181.485 110.104 178.775 109.957 176.071 109.993C173.667 109.946 171.273 110.318 168.993 111.093C165.196 112.535 162.23 115.995 162.362 120.286C162.37 121.185 162.566 122.072 162.936 122.889C163.305 123.705 163.841 124.434 164.507 125.026C165.521 125.896 166.995 124.414 165.974 123.538C163.206 121.162 164.547 116.711 166.966 114.603C170.472 111.548 175.967 112.044 180.242 112.172L213.511 113.167C216.091 113.244 218.678 113.27 221.255 113.424C223.556 113.562 225.959 113.865 228.018 114.989C231.578 116.932 232.968 120.92 233.436 124.777C234.024 129.629 233.67 134.637 233.627 139.511L233.475 156.689L233.176 190.696C233.139 194.832 233.202 199.101 231.831 203.056C231.241 204.891 230.161 206.524 228.712 207.773C226.892 209.114 224.716 209.868 222.468 209.939C219.943 210.146 217.389 210.046 214.858 210.043L206.214 210.034L189.616 210.016L180.972 210.006C178.446 210.004 175.902 210.093 173.379 209.953C171.443 209.844 169.282 209.505 167.856 208.044C166.258 206.407 166.11 203.879 166.036 201.708C165.272 179.103 164.87 156.478 164.288 133.867L164.071 125.455C164.036 124.103 161.961 124.098 161.996 125.455L161.996 125.455Z" fill="#3F3D56"/>
<path id="Vector_16" d="M193.157 146.881C190.736 146.036 187.926 145.197 185.421 146.187C183.057 147.121 181.756 149.409 181.5 151.891C181.214 154.66 182.375 157.3 183.604 159.697C185.083 162.58 186.609 165.439 188.112 168.31L193.312 178.237C193.43 178.432 193.607 178.582 193.817 178.666C194.026 178.749 194.256 178.763 194.474 178.703C194.691 178.643 194.883 178.514 195.022 178.334C195.161 178.155 195.239 177.934 195.245 177.706C194.951 174.377 195.472 171.026 196.761 167.951C198.091 164.842 200.264 162.217 201.808 159.227C203.23 156.476 204.178 153.319 203.425 150.217C202.816 147.709 201.018 145.268 198.426 144.684C197.117 144.348 195.732 144.496 194.521 145.103C193.31 145.71 192.353 146.736 191.82 147.995C191.331 149.256 193.336 149.802 193.821 148.554C194.511 146.777 196.926 146.232 198.536 146.912C200.634 147.799 201.629 150.342 201.626 152.504C201.623 155.46 200.13 158.16 198.616 160.588C197.087 163.04 195.479 165.411 194.462 168.144C193.341 171.195 192.9 174.461 193.17 177.706L195.103 177.175C191.727 170.729 188.165 164.347 184.978 157.803C183.752 155.286 182.65 151.891 184.529 149.381C186.455 146.807 190.132 148.047 192.606 148.91C193.871 149.352 194.414 147.319 193.157 146.881L193.157 146.881Z" fill="#3F3D56"/>
</g>
<g id="girl">
<path id="Vector_17" d="M66.4133 219.929C65.688 219.221 64.7954 218.714 63.8213 218.457C62.8471 218.2 61.8242 218.201 60.8507 218.461C59.8835 218.73 58.9871 219.213 58.2261 219.876C57.4651 220.539 56.8585 221.365 56.4499 222.294C54.4898 226.529 56.2458 231.466 58.9541 234.924C61.4707 238.138 65.5594 240.255 69.5423 238.568C71.3569 237.779 72.8816 236.432 73.9012 234.717C74.9209 233.002 75.384 231.005 75.2254 229.009C74.7232 224.306 70.9567 220.498 66.5336 219.349C65.2395 219.013 64.6875 221.043 65.9821 221.379C67.5196 221.757 68.9429 222.51 70.1281 223.573C71.3133 224.636 72.2246 225.977 72.7828 227.479C73.2725 228.948 73.2936 230.536 72.8433 232.019C72.3929 233.501 71.4939 234.801 70.2738 235.736C64.0918 240.552 57.0207 231.343 57.7138 225.318C57.7878 224.429 58.0624 223.569 58.5162 222.805C58.9701 222.041 59.5911 221.393 60.3313 220.912C61.0519 220.481 61.89 220.298 62.7213 220.389C63.5526 220.48 64.3328 220.841 64.9463 221.417C65.1429 221.604 65.4033 221.705 65.6725 221.701C65.9416 221.696 66.1985 221.586 66.3888 221.392C66.5792 221.199 66.6881 220.939 66.6927 220.666C66.6972 220.393 66.597 220.128 66.4132 219.929L66.4133 219.929Z" fill="#3F3D56"/>
<path id="Vector_18" d="M95.7664 198.058L71.6292 219.688C71.4931 219.81 71.3161 219.874 71.1347 219.867C70.9533 219.861 70.7812 219.784 70.654 219.653C70.5268 219.521 70.4541 219.345 70.4509 219.161C70.4478 218.977 70.5143 218.799 70.6369 218.663L93.1267 193.75L95.7664 198.058Z" fill="#3F3D56"/>
<path id="Vector_19" d="M122.938 477.966H129.741L130.955 471.449L134.066 477.966H152.11C152.975 477.966 153.817 477.686 154.514 477.166C155.211 476.646 155.725 475.913 155.983 475.076C156.24 474.238 156.227 473.339 155.945 472.509C155.663 471.679 155.127 470.963 154.415 470.464L140.005 460.368V453.78L124.849 454.697L122.938 477.966Z" fill="#2F2E41"/>
<path id="Vector_20" d="M204.198 477.966H211.001L212.216 471.449L215.326 477.966H233.37C234.235 477.966 235.078 477.686 235.774 477.166C236.471 476.646 236.986 475.913 237.243 475.076C237.501 474.238 237.487 473.339 237.205 472.509C236.923 471.679 236.387 470.963 235.675 470.464L221.266 460.368V453.78L206.109 454.697L204.198 477.966Z" fill="#2F2E41"/>
<path id="Vector_21" d="M166.113 184.318C175.087 179.341 178.385 167.925 173.479 158.82C168.574 149.716 157.322 146.37 148.348 151.347C139.374 156.324 136.076 167.739 140.982 176.844C145.887 185.948 157.139 189.295 166.113 184.318Z" fill="#FFB6B6"/>
<path id="Vector_22" d="M181.786 264.504L133.671 259.08C133.671 259.08 112.287 287.284 120.306 311.692V338.871L126.187 445.12L140.889 445.934L145.165 397.661L149.175 378.406L152.552 305.046L169.757 326.065L171.361 334.201L176.707 337.998L186.598 351.786L206.913 436.442L224.816 436.713C224.816 436.713 215.199 348.846 214.13 348.846C213.061 348.846 186.33 289.725 186.33 289.725V286.597L185.261 280.504C185.261 280.504 187.934 278.335 186.865 277.25C185.796 276.165 184.726 272.911 184.726 272.911L181.786 264.504Z" fill="#2F2E41"/>
<path id="Vector_23" d="M164.411 188.84L174.034 199.688L187.399 204.569L179.915 249.045L182.397 261.835L186.063 275.894C171.939 283.821 155.161 272.873 139.748 268.011L124.583 274.809L125.385 256.097L125.796 208.949C125.812 207.139 126.194 205.35 126.92 203.696C127.645 202.041 128.698 200.556 130.013 199.331C131.328 198.107 132.877 197.169 134.564 196.578C136.251 195.986 138.04 195.752 139.819 195.891L149.977 188.297L164.411 188.84Z" fill="#562756"/>
<path id="Vector_24" d="M134.881 196.123C134.881 196.123 120.521 195.477 122.129 224.43L116.02 237.149L103.733 225.515L103.678 221.812L93.2867 210.028L84.9459 219.383L90.4979 227.995L91.5681 232.804L94.9494 234.9L103.772 248.585L107.853 252.66C107.853 252.66 113.03 257.895 118.886 257.106C120.448 256.9 121.969 256.446 123.393 255.761C126.178 254.416 128.93 252.004 131.244 247.921C136.093 239.488 140.441 230.768 144.263 221.808L134.881 196.123Z" fill="#562756"/>
<path id="Vector_25" d="M167.184 201.991C167.184 201.991 174.777 189.608 197.408 207.322L211.203 209.4L208.69 192.54L205.71 190.4L202.004 175.042L214.325 173.35L218.188 182.865L221.494 186.48L221.286 190.494L227.425 205.614L228.431 211.334C228.431 211.334 229.76 218.625 225.809 223.08C224.758 224.271 223.529 225.287 222.168 226.091C219.499 227.662 215.982 228.601 211.354 228.23C201.756 227.52 192.209 226.229 182.764 224.363L167.184 201.991Z" fill="#562756"/>
<path id="Vector_26" d="M179.866 171.292C178.836 175.242 176.941 179.094 173.808 181.655C170.669 184.215 155.918 190.263 154.687 185.05C155.51 188.692 155.005 190.081 153.664 191.379C153.436 191.063 153.194 190.761 152.945 190.467C152.028 189.389 150.927 188.489 149.694 187.808C149.657 190.006 149.807 192.203 150.144 194.375C149.591 194.89 149.065 195.433 148.567 196.003C146.202 188.79 141 180.145 144.798 173.593C146.306 170.993 145.055 170.633 143.726 170.33C141.407 169.803 140.151 160.136 139.605 157.786C138.927 154.839 138.664 151.45 140.469 149.037C142.274 146.623 146.824 146.532 147.737 149.415L149.66 146.777C152.149 141.256 158.719 142.378 164.659 143.108C170.6 143.831 175.835 148.082 178.497 153.52C181.153 158.957 181.395 165.419 179.866 171.292Z" fill="#2F2E41"/>
<path id="Vector_27" d="M61.1153 225.809L64.1701 231.821C64.276 231.995 64.4294 232.135 64.6118 232.223C64.7943 232.311 64.9979 232.344 65.1983 232.318C65.3987 232.291 65.5872 232.206 65.7412 232.073C65.8952 231.941 66.008 231.766 66.0661 231.569C66.8619 227.408 68.7686 223.548 71.5782 220.41C72.4771 219.412 71.014 217.919 70.1112 218.922C67.0459 222.315 64.955 226.496 64.0656 231.01L65.9615 230.758L62.9067 224.747C62.2947 223.542 60.5038 224.606 61.1153 225.809V225.809Z" fill="#3F3D56"/>
<path id="Vector_28" d="M127.945 461.29H137.431L141.947 424.165H127.945V461.29Z" fill="#FFB6B6"/>
<path id="Vector_29" d="M209.205 461.29H218.692L223.207 424.165H209.205V461.29Z" fill="#FFB6B6"/>
<path id="Vector_30" d="M77.1159 208.736C77.1918 209.54 77.4408 210.319 77.8452 211.015C78.2496 211.712 78.7996 212.31 79.4565 212.768C80.1134 213.225 80.8613 213.531 81.6474 213.664C82.4334 213.797 83.2386 213.753 84.0062 213.536L95.0387 229.689L98.7895 220.212L87.7378 206.325C87.2928 205.041 86.3989 203.968 85.2255 203.307C84.0522 202.647 82.681 202.447 81.3717 202.744C80.0624 203.041 78.906 203.815 78.1217 204.919C77.3373 206.024 76.9794 207.381 77.1159 208.736V208.736Z" fill="#FFB8B8"/>
<path id="Vector_31" d="M197.745 163.435C197.526 164.213 197.477 165.029 197.603 165.828C197.728 166.626 198.025 167.387 198.472 168.056C198.918 168.726 199.504 169.288 200.188 169.703C200.872 170.118 201.637 170.376 202.43 170.458L206.88 189.585L213.785 182.155L208.501 165.131C208.549 163.77 208.104 162.439 207.249 161.39C206.395 160.34 205.191 159.645 203.865 159.436C202.539 159.227 201.184 159.519 200.056 160.256C198.928 160.993 198.106 162.124 197.745 163.435V163.435Z" fill="#FFB8B8"/>
<path id="Vector_32" d="M181.595 161.35C181.54 161.371 181.492 161.392 181.436 161.413C181.331 161.46 181.222 161.5 181.111 161.532C180.404 161.793 179.668 161.963 178.919 162.037C178.6 162.072 178.279 162.088 177.958 162.086C177.546 162.087 177.135 162.059 176.727 162.002C176.273 161.945 175.824 161.851 175.385 161.722C175.177 161.664 174.971 161.596 174.77 161.518C173.396 161.019 172.156 160.204 171.145 159.136C170.135 158.068 169.382 156.778 168.947 155.365V155.358C168.9 155.22 168.861 155.079 168.829 154.937C168.626 154.147 168.523 153.333 168.525 152.516V152.502C168.525 150.511 169.142 148.569 170.288 146.953C170.98 145.963 171.776 145.8 171.333 144.665C169.917 141.047 175.752 138.107 179.189 139.705C179.313 139.693 179.437 139.689 179.562 139.691C181.879 139.691 182.729 143.164 184.106 145.121L184.066 145.135C183.715 145.258 183.412 145.489 183.198 145.796C182.984 146.103 182.87 146.47 182.871 146.846C182.873 147.222 182.99 147.588 183.207 147.893C183.423 148.198 183.729 148.426 184.08 148.547C184.998 148.853 185.927 149.124 186.865 149.359C189.951 153.076 186.375 163.919 181.595 161.35Z" fill="#2F2E41"/>
<path id="Vector_33" d="M170.562 146.016C170.427 149.349 171.261 152.649 172.96 155.505C174.659 158.361 177.148 160.648 180.117 162.081C181.323 162.639 182.379 160.825 181.164 160.263C178.511 159.013 176.284 156.992 174.765 154.455C173.247 151.918 172.506 148.981 172.636 146.016C172.709 144.662 170.634 144.666 170.562 146.016Z" fill="#FF6584"/>
</g>
<path id="flower" d="M89.1382 465.32C88.7691 465.337 88.4037 465.239 88.0916 465.038C87.7794 464.838 87.5355 464.545 87.393 464.199C87.2505 463.853 87.2162 463.471 87.2947 463.105C87.3733 462.738 87.5609 462.406 87.8322 462.151L87.9557 461.653C87.9395 461.613 87.9231 461.573 87.9067 461.534C86.2478 457.52 75.6622 468.708 75.2046 472.48C75.003 474.147 75.0881 475.837 75.4559 477.475C72.027 469.886 70.2465 461.638 70.2351 453.29C70.2344 451.196 70.3491 449.102 70.5787 447.021C70.7684 445.314 71.0317 443.619 71.3685 441.937C73.2063 432.809 77.1521 424.253 82.8819 416.973C86.1587 417.158 89.0305 416.652 89.3078 410.208C89.3572 409.062 90.1951 408.07 90.3797 406.941C90.0669 406.983 89.7489 407.009 89.4361 407.029C89.3386 407.035 89.2361 407.04 89.1386 407.045L89.1019 407.047C88.758 407.062 88.4171 406.977 88.1201 406.8C87.823 406.624 87.5826 406.364 87.4277 406.052C87.2727 405.741 87.2099 405.39 87.2468 405.043C87.2837 404.696 87.4188 404.367 87.6356 404.096C87.7707 403.927 87.9059 403.759 88.0411 403.59C88.2463 403.33 88.4565 403.075 88.6616 402.815C88.6853 402.79 88.7076 402.764 88.7283 402.737C88.9643 402.44 89.2001 402.149 89.4361 401.852C89.0055 401.174 88.4263 400.606 87.7437 400.192C85.3794 398.788 82.1177 399.761 80.4099 401.93C78.697 404.1 78.374 407.144 78.9688 409.855C79.5539 412.161 80.5216 414.35 81.8306 416.327C81.7023 416.494 81.569 416.655 81.4408 416.822C79.097 419.879 77.0543 423.163 75.3419 426.624C75.8264 422.785 69.9018 408.919 67.6106 405.982C64.8585 402.454 59.2152 403.994 58.7303 408.466C58.7256 408.509 58.721 408.552 58.7166 408.595C59.0569 408.79 59.39 408.997 59.7159 409.216C60.1254 409.493 60.4427 409.89 60.6262 410.353C60.8097 410.817 60.8509 411.326 60.7444 411.814C60.6379 412.302 60.3886 412.746 60.0292 413.087C59.6699 413.429 59.2172 413.652 58.7305 413.728L58.6807 413.736C54.1253 420.335 68.7286 437.51 72.3839 433.654C70.6634 438.6 69.5842 443.753 69.1735 448.982C68.9409 452.067 68.9547 455.166 69.2145 458.249L69.1991 458.14C68.387 451.425 54.4537 441.443 50.3849 442.274C48.0411 442.753 45.7324 442.644 46.0883 445.043C46.094 445.081 46.0998 445.12 46.1057 445.158C46.7372 445.419 47.3521 445.719 47.9468 446.058C48.2871 446.253 48.6202 446.46 48.9461 446.678C49.3556 446.956 49.6729 447.352 49.8564 447.816C50.0399 448.28 50.0811 448.789 49.9746 449.277C49.8681 449.764 49.6188 450.208 49.2595 450.55C48.9001 450.891 48.4474 451.115 47.9607 451.191L47.9108 451.199C47.8749 451.204 47.8441 451.209 47.8083 451.214C45.7347 458.453 61.1121 470.135 70.4607 466.418H70.4659C71.3923 470.502 72.7346 474.478 74.4712 478.281H88.7796C88.8309 478.12 88.877 477.953 88.9232 477.792C87.5988 477.876 86.2692 477.796 84.964 477.553C86.0256 476.231 87.0872 474.899 88.1488 473.577C88.1725 473.553 88.1947 473.527 88.2155 473.499C88.7539 472.823 89.2976 472.152 89.836 471.475L89.8363 471.474C89.865 469.401 89.6305 467.333 89.1386 465.32L89.1382 465.32ZM72.7531 432.618L72.7607 432.608L72.7531 432.629V432.618ZM69.5838 461.605L69.4607 461.324C69.4658 461.121 69.4658 460.918 69.4607 460.71C69.4607 460.653 69.4504 460.596 69.4504 460.538C69.4966 460.897 69.5376 461.256 69.5889 461.615L69.5838 461.605Z" fill="#562756"/>
<path id="Vector_34" d="M248.176 477.932H46.1631V479.335H248.176V477.932Z" fill="#CCCCCC"/>
<g id="canvas_2">
<path id="Vector_35" d="M583.681 211.851H446.663C442.867 211.846 439.227 210.314 436.542 207.591C433.858 204.867 432.348 201.175 432.344 197.323V15.8939C432.348 12.0423 433.858 8.34976 436.543 5.62631C439.227 2.90286 442.867 1.37092 446.663 1.36658H583.681C587.477 1.37092 591.117 2.90286 593.801 5.62631C596.486 8.34976 597.996 12.0423 598 15.8939V197.323C597.996 201.175 596.486 204.867 593.801 207.591C591.117 210.314 587.477 211.846 583.681 211.851V211.851Z" fill="#F0F0F0"/>
<path id="Vector_36" d="M515.131 95.5898L515.114 95.6048C513.538 93.9786 511.406 93.0297 509.159 92.9548C506.913 92.8798 504.724 93.6845 503.046 95.2022C501.368 96.7198 500.33 98.8341 500.147 101.107C499.964 103.38 500.649 105.637 502.062 107.412L502.045 107.427L513.712 120.703L526.798 108.866C527.658 108.089 528.359 107.148 528.861 106.096C529.362 105.044 529.655 103.902 529.721 102.735C529.787 101.569 529.627 100.4 529.248 99.2969C528.869 98.1934 528.279 97.1765 527.513 96.3043C526.746 95.432 525.818 94.7216 524.781 94.2136C523.743 93.7056 522.618 93.41 521.468 93.3436C520.318 93.2773 519.166 93.4415 518.079 93.8269C516.991 94.2123 515.99 94.8114 515.131 95.5898L515.131 95.5898Z" fill="#562756"/>
</g>
</g>
</g>
</g>
</g>
<defs>
<clipPath id="clip0_0_1">
<rect width="598" height="478.67" fill="white" transform="translate(0 0.665039)"/>
</clipPath>
</defs>
</svg>
