<svg width="64" height="65" viewBox="0 0 64 65" fill="none" xmlns="http://www.w3.org/2000/svg">
<path d="M32 0.498047C14.32 0.498047 0 15.1803 0 33.3074C0 47.8256 9.16 60.0881 21.88 64.4354C23.48 64.7225 24.08 63.7382 24.08 62.8769C24.08 62.0977 24.04 59.514 24.04 56.7662C16 58.2836 13.92 54.7566 13.28 52.9111C12.92 51.9678 11.36 49.056 10 48.2767C8.88 47.6616 7.28 46.1441 9.96 46.1031C12.48 46.0621 14.28 48.4818 14.88 49.4661C17.76 54.4285 22.36 53.0341 24.2 52.1729C24.48 50.0402 25.32 48.6048 26.24 47.7846C19.12 46.9644 11.68 44.1346 11.68 31.585C11.68 28.0169 12.92 25.0641 14.96 22.7674C14.64 21.9472 13.52 18.5842 15.28 14.0729C15.28 14.0729 17.96 13.2117 24.08 17.4359C26.64 16.6977 29.36 16.3286 32.08 16.3286C34.8 16.3286 37.52 16.6977 40.08 17.4359C46.2 13.1707 48.88 14.0729 48.88 14.0729C50.64 18.5842 49.52 21.9472 49.2 22.7674C51.24 25.0641 52.48 27.9759 52.48 31.585C52.48 44.1756 45 46.9644 37.88 47.7846C39.04 48.8099 40.04 50.7785 40.04 53.8543C40.04 58.2426 40 61.7696 40 62.8769C40 63.7382 40.6 64.7635 42.2 64.4354C48.5529 62.2371 54.0734 58.0512 57.9841 52.4671C61.8948 46.8831 63.9989 40.182 64 33.3074C64 15.1803 49.68 0.498047 32 0.498047Z" fill="#333333"/>
</svg>
