<svg width="598" height="435" viewBox="0 0 598 435" fill="none" xmlns="http://www.w3.org/2000/svg">
<g clip-path="url(#clip0_30_7)">
<path d="M348.334 76.6854C359.542 76.6854 368.627 67.5984 368.627 56.3889C368.627 45.1795 359.542 36.0924 348.334 36.0924C337.126 36.0924 328.041 45.1795 328.041 56.3889C328.041 67.5984 337.126 76.6854 348.334 76.6854Z" fill="#F2F2F2"/>
<path d="M505.754 377.909C535.918 354.93 550.325 316.317 541.305 279.483C541.081 278.568 540.845 277.655 540.596 276.744C534.616 254.879 519.823 234.099 498.263 227.113C480.159 221.247 460.399 225.757 441.512 223.425C404.437 218.845 375.694 188.843 355.469 157.429C335.245 126.016 319.701 90.8531 292.827 64.901C248.53 22.1235 176.269 12.9134 121.346 40.7584C66.4234 68.6035 31.4382 130.38 32.9302 191.948C34.4223 253.516 70.9665 312.379 124.038 343.61C143.534 355.083 166.083 363.211 188.524 360.367C207.996 357.899 225.689 347.435 245.069 344.328C275.539 339.444 305.815 353.222 332.169 369.279C358.524 385.335 383.98 404.367 413.928 411.811C443.008 419.039 479.034 398.264 505.754 377.909Z" fill="#F2F2F2"/>
<path d="M462.417 42.0513C461.755 41.6104 461.087 41.1923 460.425 40.7667C441.312 28.5403 420.825 18.6077 399.388 11.1741L394.418 79.7546H362.907V1.16299C360.923 0.752514 358.925 0.36484 356.926 -3.05176e-05V79.7546H319.479C298.865 79.7546 279.095 71.5641 264.518 56.985C249.941 42.4059 241.752 22.6324 241.752 2.01445V2.01438C239.746 2.44766 237.754 2.91135 235.763 3.40545V79.7546H205.263L200.529 14.3592C178.499 22.8092 157.585 33.9214 138.252 47.4484C137.918 47.6764 137.584 47.912 137.257 48.1401C135.577 49.3183 133.92 50.5194 132.271 51.7356V313.371H222.159L220.57 291.364L211.83 170.539H387.843L379.103 291.364L377.515 313.371H466.407V44.6966C465.084 43.7997 463.754 42.9179 462.417 42.0513ZM235.763 150.585H210.386L205.697 85.7445H235.763V150.585ZM356.926 150.585H314.304V149.3C314.304 148.683 314.182 148.071 313.946 147.501C313.709 146.93 313.362 146.412 312.925 145.976C312.488 145.54 311.97 145.194 311.399 144.958C310.828 144.722 310.217 144.602 309.599 144.603H291.07C290.453 144.602 289.842 144.724 289.272 144.96C288.702 145.196 288.184 145.542 287.748 145.978C287.312 146.414 286.966 146.932 286.73 147.502C286.494 148.072 286.373 148.683 286.373 149.3V150.585H241.752V85.7445H356.926V150.585ZM362.907 150.585V85.7445H393.984L389.295 150.585H362.907Z" fill="#3F3D56"/>
<path d="M-2.28882e-05 330.125C6.60247 337.949 13.7438 345.303 21.3718 352.131L576.628 352.891C584.256 346.063 591.397 338.71 598 330.885L-2.28882e-05 330.125Z" fill="#3F3D56"/>
<path d="M376.537 259.66V324.807C376.538 325.637 376.868 326.434 377.455 327.021C378.042 327.608 378.838 327.938 379.668 327.938H476.194C477.024 327.938 477.82 327.608 478.407 327.021C478.994 326.434 479.324 325.637 479.325 324.807V259.66C479.323 258.83 478.992 258.035 478.405 257.449C477.819 256.863 477.023 256.533 476.194 256.532H379.668C378.839 256.533 378.043 256.863 377.457 257.449C376.87 258.035 376.539 258.83 376.537 259.66Z" fill="#3F3D56"/>
<path d="M378.802 260.47V324.004C378.803 324.447 378.979 324.872 379.293 325.186C379.606 325.5 380.031 325.676 380.475 325.677H475.391C475.834 325.676 476.259 325.5 476.573 325.186C476.886 324.872 477.063 324.447 477.064 324.004V260.47C477.064 260.026 476.887 259.6 476.574 259.286C476.26 258.971 475.835 258.794 475.391 258.793H380.475C380.031 258.794 379.605 258.971 379.292 259.286C378.978 259.6 378.802 260.026 378.802 260.47Z" fill="#562756"/>
<path d="M374.519 337.513C374.695 337.735 374.92 337.913 375.176 338.036C375.432 338.158 375.712 338.221 375.996 338.22H479.352C479.635 338.219 479.914 338.156 480.169 338.034C480.424 337.912 480.649 337.735 480.827 337.516C481.005 337.296 481.132 337.04 481.199 336.765C481.265 336.49 481.269 336.204 481.211 335.927L479.607 328.305C479.541 327.994 479.397 327.705 479.191 327.464C478.984 327.222 478.72 327.037 478.423 326.923C478.208 326.839 477.979 326.796 477.748 326.796H377.594C377.363 326.796 377.134 326.839 376.919 326.923C376.622 327.036 376.358 327.222 376.151 327.464C375.944 327.705 375.801 327.994 375.735 328.305L374.13 335.927C374.073 336.204 374.078 336.49 374.146 336.764C374.213 337.038 374.34 337.294 374.519 337.513Z" fill="#2F2E41"/>
<path d="M474.202 330.079H476.643C476.848 330.079 477.014 329.913 477.014 329.708V328.54C477.014 328.335 476.848 328.169 476.643 328.169H474.202C473.997 328.169 473.831 328.335 473.831 328.54V329.708C473.831 329.913 473.997 330.079 474.202 330.079Z" fill="#3F3D56"/>
<path d="M467.835 330.079H470.276C470.481 330.079 470.647 329.913 470.647 329.708V328.54C470.647 328.335 470.481 328.169 470.276 328.169H467.835C467.63 328.169 467.464 328.335 467.464 328.54V329.708C467.464 329.913 467.63 330.079 467.835 330.079Z" fill="#3F3D56"/>
<path d="M461.468 330.079H463.91C464.114 330.079 464.281 329.913 464.281 329.708V328.54C464.281 328.335 464.114 328.169 463.91 328.169H461.468C461.263 328.169 461.097 328.335 461.097 328.54V329.708C461.097 329.913 461.263 330.079 461.468 330.079Z" fill="#3F3D56"/>
<path d="M455.102 330.079H457.543C457.748 330.079 457.914 329.913 457.914 329.708V328.54C457.914 328.335 457.748 328.169 457.543 328.169H455.102C454.897 328.169 454.731 328.335 454.731 328.54V329.708C454.731 329.913 454.897 330.079 455.102 330.079Z" fill="#3F3D56"/>
<path d="M448.735 330.079H451.176C451.381 330.079 451.547 329.913 451.547 329.708V328.54C451.547 328.335 451.381 328.169 451.176 328.169H448.735C448.53 328.169 448.364 328.335 448.364 328.54V329.708C448.364 329.913 448.53 330.079 448.735 330.079Z" fill="#3F3D56"/>
<path d="M442.368 330.079H444.809C445.014 330.079 445.181 329.913 445.181 329.708V328.54C445.181 328.335 445.014 328.169 444.809 328.169H442.368C442.163 328.169 441.997 328.335 441.997 328.54V329.708C441.997 329.913 442.163 330.079 442.368 330.079Z" fill="#3F3D56"/>
<path d="M436.002 330.079H438.443C438.648 330.079 438.814 329.913 438.814 329.708V328.54C438.814 328.335 438.648 328.169 438.443 328.169H436.002C435.797 328.169 435.631 328.335 435.631 328.54V329.708C435.631 329.913 435.797 330.079 436.002 330.079Z" fill="#3F3D56"/>
<path d="M429.635 330.079H432.076C432.281 330.079 432.447 329.913 432.447 329.708V328.54C432.447 328.335 432.281 328.169 432.076 328.169H429.635C429.43 328.169 429.264 328.335 429.264 328.54V329.708C429.264 329.913 429.43 330.079 429.635 330.079Z" fill="#3F3D56"/>
<path d="M423.268 330.079H425.709C425.914 330.079 426.08 329.913 426.08 329.708V328.54C426.08 328.335 425.914 328.169 425.709 328.169H423.268C423.063 328.169 422.897 328.335 422.897 328.54V329.708C422.897 329.913 423.063 330.079 423.268 330.079Z" fill="#3F3D56"/>
<path d="M416.901 330.079H419.343C419.548 330.079 419.714 329.913 419.714 329.708V328.54C419.714 328.335 419.548 328.169 419.343 328.169H416.901C416.697 328.169 416.53 328.335 416.53 328.54V329.708C416.53 329.913 416.697 330.079 416.901 330.079Z" fill="#3F3D56"/>
<path d="M410.535 330.079H412.976C413.181 330.079 413.347 329.913 413.347 329.708V328.54C413.347 328.335 413.181 328.169 412.976 328.169H410.535C410.33 328.169 410.164 328.335 410.164 328.54V329.708C410.164 329.913 410.33 330.079 410.535 330.079Z" fill="#3F3D56"/>
<path d="M404.168 330.079H406.609C406.814 330.079 406.98 329.913 406.98 329.708V328.54C406.98 328.335 406.814 328.169 406.609 328.169H404.168C403.963 328.169 403.797 328.335 403.797 328.54V329.708C403.797 329.913 403.963 330.079 404.168 330.079Z" fill="#3F3D56"/>
<path d="M397.801 330.079H400.243C400.448 330.079 400.614 329.913 400.614 329.708V328.54C400.614 328.335 400.448 328.169 400.243 328.169H397.801C397.596 328.169 397.43 328.335 397.43 328.54V329.708C397.43 329.913 397.596 330.079 397.801 330.079Z" fill="#3F3D56"/>
<path d="M391.435 330.079H393.876C394.081 330.079 394.247 329.913 394.247 329.708V328.54C394.247 328.335 394.081 328.169 393.876 328.169H391.435C391.23 328.169 391.064 328.335 391.064 328.54V329.708C391.064 329.913 391.23 330.079 391.435 330.079Z" fill="#3F3D56"/>
<path d="M385.068 330.079H387.509C387.714 330.079 387.88 329.913 387.88 329.708V328.54C387.88 328.335 387.714 328.169 387.509 328.169H385.068C384.863 328.169 384.697 328.335 384.697 328.54V329.708C384.697 329.913 384.863 330.079 385.068 330.079Z" fill="#3F3D56"/>
<path d="M378.701 330.079H381.143C381.348 330.079 381.514 329.913 381.514 329.708V328.54C381.514 328.335 381.348 328.169 381.143 328.169H378.701C378.496 328.169 378.33 328.335 378.33 328.54V329.708C378.33 329.913 378.496 330.079 378.701 330.079Z" fill="#3F3D56"/>
<path d="M474.277 333.263H476.718C476.923 333.263 477.089 333.097 477.089 332.892V331.724C477.089 331.519 476.923 331.352 476.718 331.352H474.277C474.072 331.352 473.906 331.519 473.906 331.724V332.892C473.906 333.097 474.072 333.263 474.277 333.263Z" fill="#3F3D56"/>
<path d="M467.91 333.263H470.351C470.556 333.263 470.722 333.097 470.722 332.892V331.724C470.722 331.519 470.556 331.352 470.351 331.352H467.91C467.705 331.352 467.539 331.519 467.539 331.724V332.892C467.539 333.097 467.705 333.263 467.91 333.263Z" fill="#3F3D56"/>
<path d="M461.543 333.263H463.985C464.19 333.263 464.356 333.097 464.356 332.892V331.724C464.356 331.519 464.19 331.352 463.985 331.352H461.543C461.339 331.352 461.172 331.519 461.172 331.724V332.892C461.172 333.097 461.339 333.263 461.543 333.263Z" fill="#3F3D56"/>
<path d="M455.177 333.263H457.618C457.823 333.263 457.989 333.097 457.989 332.892V331.724C457.989 331.519 457.823 331.352 457.618 331.352H455.177C454.972 331.352 454.806 331.519 454.806 331.724V332.892C454.806 333.097 454.972 333.263 455.177 333.263Z" fill="#3F3D56"/>
<path d="M448.81 333.263H451.251C451.456 333.263 451.622 333.097 451.622 332.892V331.724C451.622 331.519 451.456 331.352 451.251 331.352H448.81C448.605 331.352 448.439 331.519 448.439 331.724V332.892C448.439 333.097 448.605 333.263 448.81 333.263Z" fill="#3F3D56"/>
<path d="M442.443 333.263H444.885C445.09 333.263 445.256 333.097 445.256 332.892V331.724C445.256 331.519 445.09 331.352 444.885 331.352H442.443C442.239 331.352 442.072 331.519 442.072 331.724V332.892C442.072 333.097 442.239 333.263 442.443 333.263Z" fill="#3F3D56"/>
<path d="M436.077 333.263H438.518C438.723 333.263 438.889 333.097 438.889 332.892V331.724C438.889 331.519 438.723 331.352 438.518 331.352H436.077C435.872 331.352 435.706 331.519 435.706 331.724V332.892C435.706 333.097 435.872 333.263 436.077 333.263Z" fill="#3F3D56"/>
<path d="M429.71 333.263H432.151C432.356 333.263 432.522 333.097 432.522 332.892V331.724C432.522 331.519 432.356 331.352 432.151 331.352H429.71C429.505 331.352 429.339 331.519 429.339 331.724V332.892C429.339 333.097 429.505 333.263 429.71 333.263Z" fill="#3F3D56"/>
<path d="M423.343 333.263H425.785C425.99 333.263 426.156 333.097 426.156 332.892V331.724C426.156 331.519 425.99 331.352 425.785 331.352H423.343C423.138 331.352 422.972 331.519 422.972 331.724V332.892C422.972 333.097 423.138 333.263 423.343 333.263Z" fill="#3F3D56"/>
<path d="M416.977 333.263H419.418C419.623 333.263 419.789 333.097 419.789 332.892V331.724C419.789 331.519 419.623 331.352 419.418 331.352H416.977C416.772 331.352 416.606 331.519 416.606 331.724V332.892C416.606 333.097 416.772 333.263 416.977 333.263Z" fill="#3F3D56"/>
<path d="M410.61 333.263H413.051C413.256 333.263 413.422 333.097 413.422 332.892V331.724C413.422 331.519 413.256 331.352 413.051 331.352H410.61C410.405 331.352 410.239 331.519 410.239 331.724V332.892C410.239 333.097 410.405 333.263 410.61 333.263Z" fill="#3F3D56"/>
<path d="M404.243 333.263H406.685C406.89 333.263 407.056 333.097 407.056 332.892V331.724C407.056 331.519 406.89 331.352 406.685 331.352H404.243C404.038 331.352 403.872 331.519 403.872 331.724V332.892C403.872 333.097 404.038 333.263 404.243 333.263Z" fill="#3F3D56"/>
<path d="M397.877 333.263H400.318C400.523 333.263 400.689 333.097 400.689 332.892V331.724C400.689 331.519 400.523 331.352 400.318 331.352H397.877C397.672 331.352 397.506 331.519 397.506 331.724V332.892C397.506 333.097 397.672 333.263 397.877 333.263Z" fill="#3F3D56"/>
<path d="M391.51 333.263H393.951C394.156 333.263 394.322 333.097 394.322 332.892V331.724C394.322 331.519 394.156 331.352 393.951 331.352H391.51C391.305 331.352 391.139 331.519 391.139 331.724V332.892C391.139 333.097 391.305 333.263 391.51 333.263Z" fill="#3F3D56"/>
<path d="M385.143 333.263H387.585C387.789 333.263 387.956 333.097 387.956 332.892V331.724C387.956 331.519 387.789 331.352 387.585 331.352H385.143C384.938 331.352 384.772 331.519 384.772 331.724V332.892C384.772 333.097 384.938 333.263 385.143 333.263Z" fill="#3F3D56"/>
<path d="M378.777 333.263H381.218C381.423 333.263 381.589 333.097 381.589 332.892V331.724C381.589 331.519 381.423 331.352 381.218 331.352H378.777C378.572 331.352 378.406 331.519 378.406 331.724V332.892C378.406 333.097 378.572 333.263 378.777 333.263Z" fill="#3F3D56"/>
<path d="M421.433 337.083H446.158C446.363 337.083 446.529 336.917 446.529 336.712V335.544C446.529 335.339 446.363 335.173 446.158 335.173H421.433C421.228 335.173 421.062 335.339 421.062 335.544V336.712C421.062 336.917 421.228 337.083 421.433 337.083Z" fill="#3F3D56"/>
<path d="M395.238 272.693H393.077C392.422 272.693 391.891 273.224 391.891 273.88C391.891 274.535 392.422 275.066 393.077 275.066H395.238C395.894 275.066 396.425 274.535 396.425 273.88C396.425 273.224 395.894 272.693 395.238 272.693Z" fill="white"/>
<path d="M419.957 272.693H417.795C417.14 272.693 416.609 273.224 416.609 273.88C416.609 274.535 417.14 275.066 417.795 275.066H419.957C420.612 275.066 421.143 274.535 421.143 273.88C421.143 273.224 420.612 272.693 419.957 272.693Z" fill="white"/>
<path d="M426.96 272.693H424.799C424.144 272.693 423.612 273.224 423.612 273.88C423.612 274.535 424.144 275.066 424.799 275.066H426.96C427.615 275.066 428.146 274.535 428.146 273.88C428.146 273.224 427.615 272.693 426.96 272.693Z" fill="white"/>
<path d="M413.233 272.495H399.801C399.145 272.495 398.614 273.026 398.614 273.682C398.614 274.337 399.145 274.868 399.801 274.868H413.233C413.888 274.868 414.42 274.337 414.42 273.682C414.42 273.026 413.888 272.495 413.233 272.495Z" fill="white"/>
<path d="M446.191 272.495H432.758C432.103 272.495 431.572 273.026 431.572 273.682C431.572 274.337 432.103 274.868 432.758 274.868H446.191C446.846 274.868 447.377 274.337 447.377 273.682C447.377 273.026 446.846 272.495 446.191 272.495Z" fill="white"/>
<path d="M401.83 278.049H399.669C399.013 278.049 398.482 278.581 398.482 279.236C398.482 279.891 399.013 280.423 399.669 280.423H401.83C402.485 280.423 403.016 279.891 403.016 279.236C403.016 278.581 402.485 278.049 401.83 278.049Z" fill="white"/>
<path d="M426.548 278.049H424.387C423.732 278.049 423.2 278.581 423.2 279.236C423.2 279.891 423.732 280.423 424.387 280.423H426.548C427.203 280.423 427.735 279.891 427.735 279.236C427.735 278.581 427.203 278.049 426.548 278.049Z" fill="white"/>
<path d="M433.552 278.049H431.39C430.735 278.049 430.204 278.581 430.204 279.236C430.204 279.891 430.735 280.423 431.39 280.423H433.552C434.207 280.423 434.738 279.891 434.738 279.236C434.738 278.581 434.207 278.049 433.552 278.049Z" fill="white"/>
<path d="M419.825 277.852H406.392C405.737 277.852 405.206 278.383 405.206 279.038C405.206 279.694 405.737 280.225 406.392 280.225H419.825C420.48 280.225 421.011 279.694 421.011 279.038C421.011 278.383 420.48 277.852 419.825 277.852Z" fill="white"/>
<path d="M452.782 277.852H439.35C438.694 277.852 438.163 278.383 438.163 279.038C438.163 279.694 438.694 280.225 439.35 280.225H452.782C453.437 280.225 453.969 279.694 453.969 279.038C453.969 278.383 453.437 277.852 452.782 277.852Z" fill="white"/>
<path d="M408.421 283.406H406.26C405.605 283.406 405.074 283.937 405.074 284.593C405.074 285.248 405.605 285.779 406.26 285.779H408.421C409.077 285.779 409.608 285.248 409.608 284.593C409.608 283.937 409.077 283.406 408.421 283.406Z" fill="white"/>
<path d="M433.14 283.406H430.978C430.323 283.406 429.792 283.937 429.792 284.593C429.792 285.248 430.323 285.779 430.978 285.779H433.14C433.795 285.779 434.326 285.248 434.326 284.593C434.326 283.937 433.795 283.406 433.14 283.406Z" fill="white"/>
<path d="M440.143 283.406H437.982C437.327 283.406 436.795 283.937 436.795 284.593C436.795 285.248 437.327 285.779 437.982 285.779H440.143C440.798 285.779 441.329 285.248 441.329 284.593C441.329 283.937 440.798 283.406 440.143 283.406Z" fill="white"/>
<path d="M426.416 283.208H412.984C412.328 283.208 411.797 283.739 411.797 284.395C411.797 285.05 412.328 285.581 412.984 285.581H426.416C427.071 285.581 427.603 285.05 427.603 284.395C427.603 283.739 427.071 283.208 426.416 283.208Z" fill="white"/>
<path d="M459.374 283.208H445.941C445.286 283.208 444.755 283.739 444.755 284.395C444.755 285.05 445.286 285.581 445.941 285.581H459.374C460.029 285.581 460.56 285.05 460.56 284.395C460.56 283.739 460.029 283.208 459.374 283.208Z" fill="white"/>
<path d="M415.013 288.762H412.852C412.196 288.762 411.665 289.294 411.665 289.949C411.665 290.604 412.196 291.136 412.852 291.136H415.013C415.668 291.136 416.199 290.604 416.199 289.949C416.199 289.294 415.668 288.762 415.013 288.762Z" fill="white"/>
<path d="M439.731 288.762H437.57C436.915 288.762 436.383 289.294 436.383 289.949C436.383 290.604 436.915 291.136 437.57 291.136H439.731C440.386 291.136 440.918 290.604 440.918 289.949C440.918 289.294 440.386 288.762 439.731 288.762Z" fill="white"/>
<path d="M446.735 288.762H444.573C443.918 288.762 443.387 289.294 443.387 289.949C443.387 290.604 443.918 291.136 444.573 291.136H446.735C447.39 291.136 447.921 290.604 447.921 289.949C447.921 289.294 447.39 288.762 446.735 288.762Z" fill="white"/>
<path d="M433.008 288.565H419.575C418.92 288.565 418.389 289.096 418.389 289.751C418.389 290.407 418.92 290.938 419.575 290.938H433.008C433.663 290.938 434.194 290.407 434.194 289.751C434.194 289.096 433.663 288.565 433.008 288.565Z" fill="white"/>
<path d="M419.957 310.062H417.795C417.14 310.062 416.609 310.593 416.609 311.249C416.609 311.904 417.14 312.435 417.795 312.435H419.957C420.612 312.435 421.143 311.904 421.143 311.249C421.143 310.593 420.612 310.062 419.957 310.062Z" fill="white"/>
<path d="M426.96 310.062H424.799C424.144 310.062 423.612 310.593 423.612 311.249C423.612 311.904 424.144 312.435 424.799 312.435H426.96C427.615 312.435 428.146 311.904 428.146 311.249C428.146 310.593 427.615 310.062 426.96 310.062Z" fill="white"/>
<path d="M446.191 310.26H432.758C432.103 310.26 431.572 310.791 431.572 311.447C431.572 312.102 432.103 312.633 432.758 312.633H446.191C446.846 312.633 447.377 312.102 447.377 311.447C447.377 310.791 446.846 310.26 446.191 310.26Z" fill="white"/>
<path d="M395.238 310.062H393.077C392.422 310.062 391.891 310.593 391.891 311.249C391.891 311.904 392.422 312.435 393.077 312.435H395.238C395.894 312.435 396.425 311.904 396.425 311.249C396.425 310.593 395.894 310.062 395.238 310.062Z" fill="white"/>
<path d="M413.233 310.26H399.801C399.145 310.26 398.614 310.791 398.614 311.447C398.614 312.102 399.145 312.633 399.801 312.633H413.233C413.888 312.633 414.42 312.102 414.42 311.447C414.42 310.791 413.888 310.26 413.233 310.26Z" fill="white"/>
<path d="M401.83 304.706H399.669C399.013 304.706 398.482 305.237 398.482 305.892C398.482 306.548 399.013 307.079 399.669 307.079H401.83C402.485 307.079 403.016 306.548 403.016 305.892C403.016 305.237 402.485 304.706 401.83 304.706Z" fill="white"/>
<path d="M426.548 304.706H424.387C423.732 304.706 423.2 305.237 423.2 305.892C423.2 306.548 423.732 307.079 424.387 307.079H426.548C427.203 307.079 427.735 306.548 427.735 305.892C427.735 305.237 427.203 304.706 426.548 304.706Z" fill="white"/>
<path d="M433.552 304.706H431.39C430.735 304.706 430.204 305.237 430.204 305.892C430.204 306.548 430.735 307.079 431.39 307.079H433.552C434.207 307.079 434.738 306.548 434.738 305.892C434.738 305.237 434.207 304.706 433.552 304.706Z" fill="white"/>
<path d="M419.825 304.903H406.392C405.737 304.903 405.206 305.435 405.206 306.09C405.206 306.745 405.737 307.277 406.392 307.277H419.825C420.48 307.277 421.011 306.745 421.011 306.09C421.011 305.435 420.48 304.903 419.825 304.903Z" fill="white"/>
<path d="M408.421 299.349H406.26C405.605 299.349 405.074 299.88 405.074 300.536C405.074 301.191 405.605 301.722 406.26 301.722H408.421C409.077 301.722 409.608 301.191 409.608 300.536C409.608 299.88 409.077 299.349 408.421 299.349Z" fill="white"/>
<path d="M433.14 299.349H430.978C430.323 299.349 429.792 299.88 429.792 300.536C429.792 301.191 430.323 301.722 430.978 301.722H433.14C433.795 301.722 434.326 301.191 434.326 300.536C434.326 299.88 433.795 299.349 433.14 299.349Z" fill="white"/>
<path d="M440.143 299.349H437.982C437.327 299.349 436.795 299.88 436.795 300.536C436.795 301.191 437.327 301.722 437.982 301.722H440.143C440.798 301.722 441.329 301.191 441.329 300.536C441.329 299.88 440.798 299.349 440.143 299.349Z" fill="white"/>
<path d="M426.416 299.547H412.984C412.328 299.547 411.797 300.078 411.797 300.734C411.797 301.389 412.328 301.92 412.984 301.92H426.416C427.071 301.92 427.603 301.389 427.603 300.734C427.603 300.078 427.071 299.547 426.416 299.547Z" fill="white"/>
<path d="M415.013 293.993H412.852C412.196 293.993 411.665 294.524 411.665 295.179C411.665 295.835 412.196 296.366 412.852 296.366H415.013C415.668 296.366 416.199 295.835 416.199 295.179C416.199 294.524 415.668 293.993 415.013 293.993Z" fill="white"/>
<path d="M439.731 293.993H437.57C436.915 293.993 436.383 294.524 436.383 295.179C436.383 295.835 436.915 296.366 437.57 296.366H439.731C440.386 296.366 440.918 295.835 440.918 295.179C440.918 294.524 440.386 293.993 439.731 293.993Z" fill="white"/>
<path d="M446.735 293.993H444.573C443.918 293.993 443.387 294.524 443.387 295.179C443.387 295.835 443.918 296.366 444.573 296.366H446.735C447.39 296.366 447.921 295.835 447.921 295.179C447.921 294.524 447.39 293.993 446.735 293.993Z" fill="white"/>
<path d="M433.008 294.19H419.575C418.92 294.19 418.389 294.722 418.389 295.377C418.389 296.032 418.92 296.564 419.575 296.564H433.008C433.663 296.564 434.194 296.032 434.194 295.377C434.194 294.722 433.663 294.19 433.008 294.19Z" fill="white"/>
<path d="M383.748 372.838L373.602 356.798L405.448 331.407L418.593 316.841C420.301 314.949 422.475 313.538 424.899 312.75C427.323 311.961 429.911 311.823 432.405 312.348C434.899 312.874 437.212 314.044 439.111 315.744C441.011 317.443 442.432 319.611 443.232 322.032C444.416 325.619 444.162 329.526 442.521 332.928C440.88 336.331 437.982 338.963 434.438 340.268L413.652 347.927L383.748 372.838Z" fill="#FFB6B6"/>
<path d="M145.688 256.535V334.496H200.296V256.535C200.297 255.974 200.118 255.428 199.786 254.977C199.453 254.525 198.985 254.192 198.449 254.027C198.197 253.943 197.932 253.902 197.666 253.905H148.326C147.98 253.904 147.637 253.972 147.317 254.104C146.998 254.235 146.707 254.429 146.462 254.673C146.217 254.918 146.023 255.208 145.89 255.527C145.757 255.847 145.689 256.189 145.688 256.535ZM166.999 283.323C167.014 281.786 167.634 280.317 168.726 279.235C169.818 278.153 171.292 277.546 172.829 277.546C174.366 277.546 175.84 278.153 176.932 279.235C178.023 280.317 178.644 281.786 178.658 283.323V292.368C178.65 293.909 178.033 295.385 176.94 296.472C175.848 297.559 174.37 298.169 172.829 298.169C171.288 298.169 169.81 297.559 168.717 296.472C167.625 295.385 167.007 293.909 166.999 292.368V283.323Z" fill="#2F2E41"/>
<path d="M145.521 332.002V339.52C145.523 339.91 145.677 340.283 145.952 340.559C146.226 340.835 146.599 340.992 146.988 340.995H198.996C199.386 340.993 199.759 340.837 200.034 340.56C200.309 340.284 200.463 339.91 200.463 339.52V332.002H145.521Z" fill="#3F3D56"/>
<path d="M59.7833 139.077V281.422C59.7847 283.236 60.5058 284.975 61.7883 286.258C63.0708 287.541 64.8098 288.262 66.6235 288.264H277.529C279.343 288.262 281.082 287.541 282.365 286.258C283.647 284.975 284.368 283.236 284.37 281.422V139.077C284.365 137.265 283.643 135.528 282.361 134.247C281.079 132.966 279.342 132.246 277.529 132.243H66.6235C64.8113 132.246 63.074 132.966 61.7919 134.247C60.5099 135.528 59.7876 137.265 59.7833 139.077Z" fill="#3F3D56"/>
<path d="M64.731 140.848V279.666C64.7327 280.635 65.1184 281.564 65.8036 282.25C66.4888 282.935 67.4177 283.321 68.3867 283.323H275.774C276.743 283.321 277.672 282.935 278.357 282.25C279.042 281.564 279.428 280.635 279.429 279.666V140.848C279.429 139.878 279.044 138.947 278.359 138.26C277.674 137.573 276.744 137.186 275.774 137.184H68.3867C67.4165 137.186 66.4867 137.573 65.8014 138.26C65.1161 138.947 64.7311 139.878 64.731 140.848Z" fill="white"/>
<path d="M103.218 340.486C103.43 340.75 103.698 340.964 104.003 341.11C104.309 341.256 104.643 341.331 104.982 341.329H228.364C228.701 341.329 229.034 341.253 229.339 341.108C229.643 340.963 229.911 340.751 230.124 340.489C230.337 340.227 230.488 339.921 230.567 339.593C230.647 339.265 230.652 338.923 230.583 338.593L228.668 329.494C228.588 329.123 228.417 328.778 228.17 328.489C227.924 328.201 227.608 327.98 227.254 327.844C226.997 327.744 226.724 327.692 226.448 327.692H106.889C106.614 327.692 106.34 327.744 106.084 327.844C105.729 327.98 105.414 328.201 105.167 328.489C104.92 328.778 104.75 329.123 104.67 329.494L102.755 338.593C102.687 338.923 102.693 339.264 102.773 339.592C102.853 339.919 103.006 340.224 103.218 340.486Z" fill="#2F2E41"/>
<path d="M269.043 156.307H74.9922C74.7905 156.303 74.5985 156.219 74.4575 156.075C74.3164 155.931 74.2374 155.737 74.2374 155.535C74.2374 155.334 74.3164 155.14 74.4575 154.996C74.5985 154.851 74.7905 154.768 74.9922 154.764H269.043C269.245 154.768 269.437 154.851 269.578 154.996C269.719 155.14 269.798 155.334 269.798 155.535C269.798 155.737 269.719 155.931 269.578 156.075C269.437 156.219 269.245 156.303 269.043 156.307Z" fill="#3F3D56"/>
<path d="M88.2015 150.823C90.6992 150.823 92.7239 148.753 92.7239 146.199C92.7239 143.645 90.6992 141.575 88.2015 141.575C85.7038 141.575 83.679 143.645 83.679 146.199C83.679 148.753 85.7038 150.823 88.2015 150.823Z" fill="#3F3D56"/>
<path d="M103.824 150.823C106.322 150.823 108.347 148.753 108.347 146.199C108.347 143.645 106.322 141.575 103.824 141.575C101.327 141.575 99.302 143.645 99.302 146.199C99.302 148.753 101.327 150.823 103.824 150.823Z" fill="#3F3D56"/>
<path d="M119.448 150.823C121.945 150.823 123.97 148.753 123.97 146.199C123.97 143.645 121.945 141.575 119.448 141.575C116.95 141.575 114.925 143.645 114.925 146.199C114.925 148.753 116.95 150.823 119.448 150.823Z" fill="#3F3D56"/>
<path d="M259.636 142.718H248.539C248.32 142.723 248.111 142.814 247.958 142.971C247.805 143.128 247.719 143.339 247.719 143.558C247.719 143.778 247.805 143.988 247.958 144.145C248.111 144.302 248.32 144.393 248.539 144.398H259.636C259.856 144.395 260.067 144.305 260.222 144.148C260.377 143.991 260.464 143.779 260.464 143.558C260.464 143.337 260.377 143.126 260.222 142.968C260.067 142.811 259.856 142.721 259.636 142.718Z" fill="#3F3D56"/>
<path d="M259.636 145.873H248.539C248.32 145.878 248.111 145.968 247.957 146.125C247.804 146.282 247.718 146.493 247.718 146.713C247.718 146.932 247.804 147.143 247.957 147.3C248.111 147.457 248.32 147.548 248.539 147.553H259.636C259.857 147.55 260.068 147.46 260.223 147.303C260.378 147.146 260.466 146.934 260.466 146.713C260.466 146.492 260.378 146.28 260.223 146.122C260.068 145.965 259.857 145.876 259.636 145.873Z" fill="#3F3D56"/>
<path d="M259.636 149.027H248.539C248.32 149.033 248.111 149.123 247.958 149.28C247.805 149.437 247.719 149.648 247.719 149.867C247.719 150.087 247.805 150.298 247.958 150.455C248.111 150.612 248.32 150.702 248.539 150.707H259.636C259.856 150.704 260.067 150.614 260.222 150.457C260.377 150.3 260.464 150.088 260.464 149.867C260.464 149.647 260.377 149.435 260.222 149.278C260.067 149.12 259.856 149.031 259.636 149.027Z" fill="#3F3D56"/>
<path d="M527.148 335.302C527.482 336.277 528.118 337.121 528.962 337.712C529.806 338.304 530.816 338.612 531.847 338.594L551.981 338.076C553.019 338.055 554.023 337.7 554.843 337.062C555.662 336.424 556.253 335.537 556.527 334.536L559.376 304.064C560.387 304.522 561.487 304.748 562.597 304.725C563.561 304.701 564.511 304.487 565.392 304.096C566.273 303.705 567.069 303.144 567.734 302.445C568.398 301.746 568.918 300.923 569.265 300.023C569.611 299.123 569.777 298.164 569.753 297.199C569.729 296.235 569.515 295.285 569.124 294.404C568.733 293.522 568.172 292.727 567.473 292.062C566.774 291.397 565.951 290.877 565.052 290.53C564.152 290.184 563.192 290.018 562.228 290.042C561.785 290.041 561.343 290.087 560.909 290.179C560.437 289.669 559.864 289.263 559.226 288.988C558.588 288.712 557.899 288.574 557.205 288.581L526.233 289.381C525.976 289.39 525.721 289.422 525.469 289.476C524.79 289.602 524.146 289.873 523.58 290.269C523.014 290.666 522.54 291.179 522.189 291.774C521.838 292.369 521.619 293.033 521.546 293.72C521.473 294.407 521.548 295.102 521.766 295.758L527.148 335.302ZM559.96 301.995L561.988 294.733C562.218 293.894 562.224 293.009 562.003 292.168C562.102 292.168 562.188 292.121 562.287 292.121C563.677 292.092 565.022 292.616 566.026 293.577C567.031 294.539 567.614 295.859 567.646 297.25C567.679 298.64 567.159 299.986 566.2 300.994C565.242 302.001 563.923 302.587 562.533 302.624C561.634 302.652 560.745 302.434 559.96 301.995Z" fill="#2F2E41"/>
<path d="M525.469 289.475C526.129 293.249 533.548 295.902 542.468 295.441C550.671 295.063 557.377 292.182 558.606 288.768C558.152 288.633 557.679 288.57 557.205 288.581L526.233 289.381C525.976 289.39 525.721 289.422 525.469 289.475Z" fill="#3F3D56"/>
<path d="M544.103 318.557C544.143 318.547 544.182 318.53 544.217 318.507L548.59 315.644C548.643 315.61 548.686 315.563 548.716 315.507C548.746 315.452 548.762 315.389 548.762 315.326C548.762 315.263 548.746 315.201 548.716 315.146C548.686 315.09 548.643 315.043 548.59 315.009L544.045 312.031C544.004 312.004 543.957 311.985 543.908 311.975C543.859 311.966 543.808 311.966 543.759 311.976C543.71 311.986 543.664 312.006 543.622 312.034C543.581 312.062 543.546 312.098 543.518 312.14C543.491 312.182 543.472 312.228 543.463 312.278C543.453 312.327 543.454 312.377 543.464 312.426C543.474 312.475 543.494 312.522 543.523 312.563C543.551 312.604 543.587 312.639 543.629 312.667L547.688 315.326L543.801 317.871C543.726 317.92 543.671 317.994 543.645 318.08C543.619 318.167 543.625 318.259 543.661 318.341C543.698 318.424 543.762 318.491 543.842 318.53C543.923 318.57 544.015 318.579 544.103 318.557H544.103Z" fill="#562756"/>
<path d="M537.196 318.876C537.27 318.857 537.336 318.817 537.387 318.761C537.437 318.704 537.469 318.634 537.48 318.559C537.49 318.484 537.478 318.408 537.444 318.34C537.411 318.272 537.358 318.215 537.292 318.178L533.262 315.866L537.157 312.972C537.198 312.943 537.231 312.905 537.257 312.862C537.282 312.82 537.299 312.772 537.307 312.723C537.314 312.674 537.311 312.623 537.299 312.575C537.287 312.527 537.266 312.481 537.236 312.441C537.206 312.401 537.169 312.367 537.126 312.342C537.083 312.316 537.036 312.299 536.986 312.292C536.937 312.284 536.887 312.287 536.838 312.299C536.79 312.311 536.745 312.333 536.705 312.363L532.343 315.603C532.292 315.64 532.252 315.69 532.225 315.747C532.198 315.804 532.186 315.867 532.19 315.93C532.194 315.993 532.213 316.054 532.246 316.108C532.28 316.162 532.326 316.206 532.38 316.237L536.914 318.837C537 318.886 537.101 318.9 537.196 318.876Z" fill="#562756"/>
<path d="M543.668 321.066C543.705 321.056 543.74 321.042 543.772 321.022C543.815 320.996 543.852 320.962 543.881 320.921C543.911 320.881 543.932 320.835 543.944 320.787C543.956 320.738 543.958 320.688 543.95 320.639C543.942 320.589 543.925 320.542 543.899 320.499L537.701 310.307C537.648 310.221 537.564 310.159 537.466 310.136C537.368 310.112 537.265 310.128 537.179 310.181C537.093 310.233 537.031 310.317 537.007 310.415C536.983 310.513 536.999 310.617 537.051 310.703L543.25 320.895C543.292 320.964 543.355 321.018 543.431 321.049C543.506 321.08 543.589 321.085 543.668 321.066Z" fill="#562756"/>
<path d="M195.204 198.267H161.618C160.247 198.267 159.137 199.378 159.137 200.748V204.03C159.137 205.4 160.247 206.511 161.618 206.511H195.204C196.574 206.511 197.684 205.4 197.684 204.03V200.748C197.684 199.378 196.574 198.267 195.204 198.267Z" fill="#562756"/>
<path d="M214.781 214.756H142.041C140.67 214.756 139.56 215.866 139.56 217.237V220.519C139.56 221.889 140.67 223 142.041 223H214.781C216.151 223 217.261 221.889 217.261 220.519V217.237C217.261 215.866 216.151 214.756 214.781 214.756Z" fill="#E6E6E6"/>
<path d="M214.781 231.244H142.041C140.67 231.244 139.56 232.355 139.56 233.725V237.007C139.56 238.378 140.67 239.489 142.041 239.489H214.781C216.151 239.489 217.261 238.378 217.261 237.007V233.725C217.261 232.355 216.151 231.244 214.781 231.244Z" fill="#E6E6E6"/>
<path d="M220.947 286.458L221.111 286.979L221.12 286.996L226.079 302.076L231.784 319.453L242.518 352.11L242.622 357.183V357.2L243.42 398.009L241.209 403.541L243.697 412.611C243.697 412.611 242.553 398.901 236.414 406.774C232.937 411.249 228.871 415.827 225.533 420.12C230.397 422.088 235.339 423.869 240.359 425.461C241.443 425.808 242.535 426.138 243.628 426.467C243.862 426.537 244.096 426.606 244.33 426.675C260.97 431.597 278.174 434.363 295.518 434.905C296.42 434.931 297.304 434.948 298.162 434.965C298.466 434.974 298.761 434.983 299.055 434.983C300.026 434.991 300.989 435 301.96 435C303.919 435 305.87 434.971 307.812 434.913C322.187 434.508 336.477 432.575 350.443 429.147C350.348 423.38 350.087 416.642 349.715 409.445C349.541 405.916 345.648 402.092 345.414 398.398C345.25 395.623 348.744 393.013 348.562 390.194C347.382 372.843 345.909 379.503 344.816 367.216C344.703 366.011 344.599 364.857 344.504 363.756C343.802 355.865 343.316 350.931 343.316 350.931L347.981 321.526L355.307 275.359L354.743 274.431L354.11 274.119L315.468 254.989L313.37 249.613C312.758 248.064 311.698 246.734 310.324 245.792C308.951 244.851 307.327 244.343 305.662 244.332L280.207 244.228C278.886 244.222 277.582 244.531 276.405 245.13C275.227 245.729 274.209 246.6 273.435 247.671L266.543 257.218L220.947 286.458Z" fill="#3F3D56"/>
<path d="M248.388 344.843L242.622 357.183L238.686 365.612L231.914 401.07L228.524 404.668L225.62 391.929L195.221 398.68C194.224 393.138 194.954 398.867 194.338 392.788C194.512 392.615 194.694 392.441 194.876 392.268C195.361 391.817 195.769 391.392 195.76 390.985C195.413 370.017 196.454 334.334 205.141 312.716C206.502 309.186 208.296 305.839 210.482 302.752C210.655 302.518 210.82 302.284 210.985 302.05C214.99 296.439 217.522 290.915 221.111 286.987V286.979C221.134 286.961 221.154 286.94 221.172 286.918C221.185 286.911 221.197 286.903 221.207 286.892L245.865 273.815L246.922 303.541L247.677 324.908L248.388 344.843Z" fill="#3F3D56"/>
<path d="M337.299 348.348L344.5 363.76L347.014 369.128L353.784 404.582L357.162 408.172L360.074 395.436L361.442 395.155L386.111 390.045L393.301 412.884C394.921 410.184 395.56 407.006 395.108 403.889C394.657 400.772 393.143 397.906 390.822 395.777C390.331 395.333 389.922 394.9 389.934 394.491C390.343 369.829 388.835 324.798 375.214 306.264C370.888 300.382 368.293 294.523 364.516 290.431C364.505 290.419 364.505 290.407 364.493 290.407L355.303 275.358L354.742 274.434L354.111 274.118L337.299 348.348Z" fill="#3F3D56"/>
<path d="M293.67 236.982C312.373 236.982 327.535 221.818 327.535 203.112C327.535 184.405 312.373 169.241 293.67 169.241C274.966 169.241 259.804 184.405 259.804 203.112C259.804 221.818 274.966 236.982 293.67 236.982Z" fill="#FFB6B6"/>
<path d="M339.442 179.453C339.18 179.173 338.864 178.948 338.512 178.792C338.161 178.637 337.782 178.554 337.398 178.548L337.907 177.135C338.073 176.689 338.118 176.208 338.037 175.739C337.956 175.271 337.752 174.833 337.446 174.469C337.14 174.105 336.742 173.83 336.294 173.671C335.847 173.511 335.365 173.474 334.898 173.562L333.043 173.919L333.218 172.68C333.285 172.219 333.231 171.748 333.061 171.314C332.89 170.879 332.61 170.497 332.247 170.204C331.885 169.911 331.452 169.718 330.992 169.643C330.532 169.568 330.06 169.614 329.623 169.776C329.226 169.933 328.798 169.998 328.372 169.968C327.946 169.938 327.532 169.813 327.161 169.602C326.788 169.397 326.464 169.113 326.212 168.771C325.96 168.428 325.786 168.034 325.701 167.618L325.055 164.501L324.987 164.334C321.84 159.089 315.791 155.273 308.388 153.874C301.799 152.62 295.042 153.258 288.529 153.859C285.945 154.102 283.026 154.376 280.594 155.866C278.527 157.143 276.779 159.697 277.136 162.274C270.714 160.305 263.828 164.235 260.415 169.191C256.372 175.09 255.711 182.478 255.605 188.256C255.316 201.923 258.135 213.105 263.965 221.497C264.39 222.105 264.497 223.374 265.34 223.8L265.166 223.519C266.108 223.99 267.066 224.75 266.708 225.564C265.682 227.905 272.5 233.081 277.303 234.792C286.066 237.916 297.717 237.65 305.91 236.525L306.199 234.587C309.156 234.184 311.238 233.416 311.823 232.215C312.857 231.333 313.739 230.543 314.506 229.813L314.514 229.805C314.529 229.79 314.559 229.767 314.575 229.752C318.276 226.202 319.135 224.18 319.522 221.102C319.895 218.084 319.234 215.02 318.557 212.261C332.8 214.465 312.948 197.088 326.218 193.729C326.37 193.682 326.525 193.644 326.682 193.615C327.069 193.523 327.457 193.432 327.829 193.326C329.624 192.838 331.343 192.104 332.937 191.144C336.646 188.886 337.869 185.891 339.785 182.516C340.061 182.036 340.177 181.48 340.115 180.929C340.054 180.378 339.818 179.861 339.442 179.453Z" fill="#2F2E41"/>
<path d="M413.446 350.76C413.438 352.09 413.423 353.952 413.362 356.256C413.355 356.575 413.347 356.902 413.339 357.236C413.241 361.47 413.142 365.02 412.982 368.965C412.975 369.239 412.967 369.505 412.952 369.779C412.739 375.282 412.405 381.69 411.827 391.838C410.755 410.583 408.886 394.415 407.008 400.99C406.917 401.317 406.818 401.705 406.727 402.161C406.443 403.816 405.963 405.431 405.298 406.973C404.303 407.566 403.277 408.136 402.266 408.706C399.385 410.31 396.459 411.853 393.51 413.32C391.854 414.141 390.189 414.947 388.517 415.722C388.251 415.844 387.993 415.965 387.734 416.079C379.172 420.04 370.348 423.408 361.324 426.159C359.56 426.691 357.805 427.208 356.026 427.687C354.172 428.204 352.317 428.69 350.44 429.146C336.475 432.575 322.185 434.509 307.81 434.916C305.872 434.976 303.919 434.999 301.958 434.999C300.985 434.999 300.028 434.992 299.055 434.984C298.759 434.984 298.462 434.976 298.166 434.969C297.307 434.946 296.418 434.931 295.521 434.908C278.176 434.367 260.973 431.6 244.333 426.676L243.627 426.47C242.532 426.136 241.445 425.809 240.359 425.459C235.342 423.871 230.4 422.092 225.53 420.123C221.814 418.626 218.141 417.019 214.51 415.304C214.477 415.295 214.446 415.279 214.419 415.258C213.659 414.909 212.891 414.544 212.131 414.171C212.033 414.118 211.926 414.065 211.82 414.012C208.985 412.628 206.18 411.179 203.406 409.664C201.073 404.305 197.79 403.278 195.753 398.565C195.16 397.165 194.732 395.701 194.476 394.202C194.476 394.187 194.468 394.172 194.468 394.149C194.681 396.977 193.564 389.132 194.461 394.119C194.453 394.027 194.446 393.929 194.438 393.814C194.415 393.541 194.385 393.206 194.339 392.788C191.732 367.331 191.9 338.217 190.767 314.227C190.691 312.676 190.613 311.192 190.532 309.773C190.509 309.301 190.478 308.838 190.448 308.382C190.501 308.245 190.562 308.1 190.63 307.963C190.645 307.924 190.663 307.886 190.684 307.849C190.706 307.802 190.731 307.757 190.76 307.713C190.775 307.69 190.798 307.659 190.813 307.637C190.824 307.611 190.837 307.585 190.851 307.561C190.919 307.454 190.995 307.34 191.079 307.234C191.117 307.188 191.147 307.15 191.185 307.112C191.211 307.073 191.242 307.038 191.276 307.006C191.3 306.969 191.328 306.936 191.36 306.907C191.39 306.876 191.421 306.838 191.459 306.801C191.475 306.777 191.496 306.756 191.52 306.74C191.58 306.671 191.646 306.607 191.717 306.55C191.988 306.3 192.278 306.071 192.584 305.865C192.69 305.797 192.804 305.729 192.91 305.653C193.676 305.194 194.483 304.808 195.32 304.497C195.608 304.391 195.897 304.292 196.209 304.186C196.323 304.155 196.429 304.117 196.543 304.079C196.71 304.026 196.878 303.973 197.052 303.935C197.919 303.676 198.854 303.456 199.865 303.251C199.986 303.228 200.115 303.205 200.245 303.175C200.427 303.137 200.617 303.106 200.807 303.076C201.065 303.03 201.331 302.985 201.597 302.939C203.855 302.582 206.416 302.316 209.243 302.141C209.509 302.126 209.775 302.11 210.041 302.095C210.353 302.08 210.664 302.065 210.984 302.05C211.25 302.034 211.523 302.027 211.797 302.019C212.063 302.004 212.337 301.996 212.618 301.989C213.385 301.966 214.176 301.943 214.981 301.928C217.277 301.882 219.694 301.898 222.232 301.951C223.41 301.981 224.611 302.012 225.842 302.065C225.926 302.065 226.002 302.072 226.078 302.072C227.149 302.11 228.229 302.156 229.338 302.217C230.113 302.255 230.896 302.293 231.679 302.338C232.416 302.384 233.161 302.43 233.914 302.483C234.499 302.513 235.084 302.559 235.677 302.597C236.178 302.635 236.68 302.673 237.182 302.703L237.866 302.749C238.238 302.779 238.61 302.802 238.99 302.84C239.826 302.909 240.662 302.977 241.514 303.045C242.357 303.121 243.216 303.197 244.075 303.273C244.934 303.349 245.8 303.433 246.667 303.517C246.758 303.524 246.841 303.532 246.925 303.539C247.715 303.623 248.506 303.699 249.304 303.783C249.486 303.798 249.676 303.813 249.859 303.836C250.62 303.912 251.395 304.002 252.163 304.083C252.399 304.109 252.633 304.134 252.87 304.159C253.471 304.225 254.064 304.282 254.67 304.353C255.468 304.444 256.281 304.528 257.071 304.634C257.687 304.702 258.303 304.771 258.918 304.847C259.883 304.961 260.864 305.083 261.844 305.212C262.217 305.257 262.589 305.303 262.961 305.356C265.758 305.706 268.586 306.094 271.458 306.496C275.813 307.112 280.237 307.781 284.69 308.503C289.152 309.225 293.638 309.988 298.15 310.791C299.29 310.997 300.431 311.202 301.578 311.415C302.095 311.513 302.612 311.612 303.129 311.711C304.01 311.871 304.892 312.038 305.773 312.205C306.655 312.372 307.537 312.54 308.418 312.714C309.467 312.92 310.524 313.125 311.572 313.33C318.481 314.698 325.352 316.158 332.055 317.686C333.157 317.937 334.259 318.195 335.354 318.446C337.542 318.955 339.711 319.472 341.859 319.997C342.452 320.133 343.037 320.278 343.623 320.422C345.082 320.787 346.541 321.152 347.977 321.525L348.228 321.593C349.285 321.851 350.318 322.117 351.352 322.391C353.792 323.03 356.191 323.676 358.549 324.329C360.115 324.763 361.663 325.201 363.193 325.644C365.481 326.306 367.723 326.975 369.904 327.651C370.444 327.819 370.983 327.986 371.515 328.145C373.111 328.639 374.685 329.141 376.212 329.643C377.428 330.038 378.614 330.441 379.784 330.844C380.955 331.247 382.102 331.65 383.227 332.053C383.949 332.311 384.664 332.585 385.378 332.843C386.404 333.223 387.415 333.603 388.403 333.983C388.707 334.097 389.003 334.219 389.3 334.333C389.49 334.417 389.672 334.485 389.855 334.561C390.212 334.705 390.577 334.842 390.926 334.987C391.283 335.124 391.633 335.268 391.983 335.42C392.325 335.557 392.674 335.701 393.009 335.846C393.351 335.982 393.685 336.127 394.02 336.279C394.301 336.393 394.574 336.515 394.84 336.636C395.38 336.872 395.92 337.108 396.444 337.351C396.702 337.472 396.961 337.586 397.219 337.708L397.812 337.982C397.896 338.027 397.979 338.065 398.063 338.103C398.253 338.195 398.45 338.293 398.64 338.385C399.081 338.59 399.514 338.81 399.94 339.015C400.51 339.304 401.065 339.593 401.597 339.874C402.137 340.163 402.661 340.452 403.163 340.733C403.246 340.779 403.322 340.825 403.406 340.87C403.52 340.931 403.634 340.999 403.748 341.06C404.135 341.281 404.508 341.509 404.88 341.729C405.61 342.178 406.301 342.619 406.947 343.059C407.092 343.158 407.229 343.257 407.373 343.348C407.852 343.69 408.308 344.025 408.734 344.367C408.734 344.374 408.734 344.374 408.741 344.374C408.886 344.481 409.022 344.595 409.159 344.701C409.273 344.808 409.395 344.899 409.509 345.005C409.904 345.347 410.269 345.674 410.603 346.009C410.715 346.112 410.822 346.221 410.922 346.336C410.967 346.372 411.007 346.413 411.044 346.457C411.196 346.609 411.333 346.761 411.462 346.913C411.482 346.934 411.5 346.957 411.515 346.982C411.698 347.195 411.865 347.407 412.024 347.62C412.1 347.727 412.184 347.833 412.252 347.94C412.344 348.069 412.435 348.206 412.511 348.335C412.579 348.441 412.64 348.555 412.701 348.662C412.862 348.936 412.999 349.223 413.111 349.521C413.197 349.722 413.265 349.931 413.316 350.144C413.374 350.346 413.417 350.552 413.446 350.76Z" fill="#2F2E41"/>
<path opacity="0.2" d="M413.446 350.76C413.438 352.09 413.423 353.952 413.362 356.256C413.355 356.575 413.339 356.902 413.332 357.236C413.256 360.467 413.142 364.458 412.982 368.965C412.975 369.239 412.967 369.505 412.952 369.779C412.739 375.282 412.404 381.69 411.827 391.838C410.755 410.583 408.886 394.415 407.008 400.99C401.795 397.782 396.079 394.423 389.969 390.972C388.867 390.348 387.754 389.722 386.632 389.094C374.411 382.275 360.761 375.13 346.511 368.053C345.948 367.772 345.378 367.491 344.816 367.217C312.173 351.079 276.543 335.382 247.677 324.907C242.107 322.885 236.786 321.061 231.785 319.457C221.252 316.089 212.146 313.733 205.139 312.714C197.843 311.65 192.804 312.03 190.767 314.227C190.691 312.676 190.612 311.192 190.531 309.773C190.501 309.301 190.471 308.838 190.44 308.382C190.487 308.256 190.548 308.137 190.607 308.017C190.616 307.999 190.622 307.981 190.63 307.963C190.645 307.924 190.663 307.886 190.683 307.849C190.706 307.802 190.731 307.757 190.759 307.713C190.784 307.659 190.815 307.608 190.851 307.561C190.919 307.454 190.995 307.34 191.079 307.234C191.14 307.154 191.206 307.078 191.276 307.006C191.3 306.969 191.328 306.936 191.36 306.907C191.39 306.876 191.421 306.838 191.459 306.8C191.475 306.777 191.496 306.756 191.519 306.74C191.58 306.671 191.646 306.607 191.717 306.55C191.988 306.3 192.278 306.071 192.584 305.865C192.69 305.797 192.804 305.729 192.91 305.653C193.676 305.194 194.483 304.808 195.32 304.497C195.608 304.391 195.897 304.292 196.209 304.186C196.323 304.155 196.429 304.117 196.543 304.079C196.71 304.026 196.878 303.973 197.052 303.935C197.919 303.676 198.854 303.456 199.865 303.251C200.169 303.19 200.488 303.129 200.807 303.076C201.065 303.03 201.331 302.985 201.597 302.939C203.855 302.582 206.416 302.316 209.243 302.141C209.509 302.126 209.775 302.11 210.041 302.095C210.353 302.08 210.664 302.065 210.984 302.05C211.25 302.034 211.523 302.027 211.797 302.019C212.063 302.004 212.336 301.996 212.618 301.989C213.385 301.966 214.176 301.943 214.981 301.928C217.277 301.89 219.693 301.905 222.232 301.958C223.41 301.981 224.611 302.019 225.842 302.072C225.918 302.072 226.002 302.08 226.078 302.08C227.149 302.11 228.236 302.164 229.338 302.217C230.113 302.255 230.896 302.293 231.679 302.338C232.416 302.384 233.161 302.43 233.913 302.483C234.499 302.513 235.084 302.559 235.677 302.597C236.178 302.635 236.68 302.673 237.182 302.703C237.782 302.749 238.382 302.794 238.99 302.84C239.826 302.909 240.662 302.977 241.514 303.045C242.357 303.121 243.216 303.197 244.075 303.273C244.934 303.349 245.8 303.433 246.667 303.517C246.758 303.524 246.841 303.532 246.925 303.539C247.715 303.623 248.506 303.699 249.304 303.783C253.727 304.231 258.28 304.756 262.961 305.356C265.758 305.713 268.591 306.096 271.458 306.504C275.813 307.12 280.237 307.789 284.69 308.503C289.152 309.225 293.638 309.988 298.15 310.791C299.29 310.996 300.431 311.202 301.578 311.415C302.977 311.673 304.375 311.936 305.773 312.205C306.655 312.372 307.537 312.54 308.418 312.714C309.467 312.92 310.524 313.125 311.572 313.33C318.481 314.698 325.352 316.158 332.055 317.686C333.157 317.937 334.259 318.195 335.353 318.446C337.542 318.955 339.711 319.472 341.859 319.997C342.452 320.141 343.037 320.285 343.623 320.43C345.089 320.795 346.541 321.16 347.977 321.524V321.532C348.061 321.547 348.145 321.57 348.228 321.593C349.277 321.859 350.318 322.125 351.352 322.399C353.792 323.037 356.191 323.681 358.549 324.329C360.115 324.77 361.665 325.204 363.193 325.645C365.481 326.313 367.723 326.982 369.904 327.651C370.444 327.818 370.983 327.986 371.515 328.145C373.111 328.647 374.677 329.146 376.212 329.643C377.428 330.038 378.614 330.441 379.784 330.844C380.955 331.247 382.102 331.65 383.227 332.053C383.957 332.311 384.671 332.577 385.378 332.835C386.412 333.216 387.415 333.596 388.403 333.983C388.707 334.097 389.003 334.219 389.3 334.333C389.855 334.546 390.394 334.766 390.926 334.987C391.283 335.124 391.633 335.268 391.983 335.42C392.325 335.557 392.674 335.701 393.009 335.846C393.351 335.982 393.685 336.127 394.02 336.279C394.301 336.393 394.574 336.515 394.84 336.636C395.38 336.872 395.92 337.108 396.444 337.351C396.702 337.472 396.961 337.586 397.219 337.708L397.812 337.982C397.896 338.027 397.979 338.065 398.063 338.103C398.709 338.407 399.332 338.711 399.94 339.015C400.51 339.304 401.065 339.593 401.597 339.874C402.228 340.209 402.828 340.536 403.406 340.87C403.52 340.931 403.634 340.999 403.748 341.06C404.135 341.281 404.508 341.509 404.88 341.729C405.61 342.178 406.301 342.619 406.948 343.059C407.586 343.5 408.179 343.934 408.734 344.367C408.734 344.374 408.734 344.374 408.741 344.374C409.007 344.587 409.266 344.8 409.509 345.005C409.904 345.347 410.269 345.674 410.603 346.009C410.715 346.112 410.822 346.221 410.922 346.336C410.967 346.372 411.007 346.413 411.044 346.457C411.204 346.632 411.363 346.807 411.515 346.982C411.698 347.195 411.865 347.407 412.024 347.62C412.1 347.727 412.184 347.833 412.252 347.94C412.344 348.069 412.435 348.206 412.511 348.335C412.579 348.441 412.64 348.555 412.701 348.662C412.862 348.936 413 349.223 413.111 349.521C413.194 349.723 413.263 349.932 413.317 350.144C413.374 350.346 413.417 350.552 413.446 350.76Z" fill="black"/>
</g>
<defs>
<clipPath id="clip0_30_7">
<rect width="598" height="435" fill="white"/>
</clipPath>
</defs>
</svg>
