<svg width="598" height="435" viewBox="0 0 598 435" fill="none" xmlns="http://www.w3.org/2000/svg">
<rect width="598" height="435" fill="#E5E5E5"/>
<g id="Home">
<rect width="1440" height="4081" transform="translate(-714 -200)" fill="white"/>
<g id="hero serction">
<g id="hero illustration" clip-path="url(#clip0_0_1)">
<g id="background">
<path id="Vector" d="M348.334 76.6854C359.542 76.6854 368.627 67.5984 368.627 56.3889C368.627 45.1795 359.542 36.0924 348.334 36.0924C337.126 36.0924 328.041 45.1795 328.041 56.3889C328.041 67.5984 337.126 76.6854 348.334 76.6854Z" fill="#F2F2F2"/>
<path id="Vector_2" d="M505.754 377.909C535.918 354.93 550.325 316.317 541.305 279.483C541.081 278.568 540.845 277.655 540.596 276.744C534.616 254.879 519.823 234.099 498.263 227.113C480.159 221.247 460.399 225.757 441.512 223.425C404.437 218.845 375.694 188.843 355.469 157.429C335.245 126.016 319.701 90.8531 292.827 64.901C248.53 22.1235 176.269 12.9134 121.346 40.7584C66.4234 68.6035 31.4382 130.38 32.9302 191.948C34.4223 253.516 70.9665 312.379 124.038 343.61C143.534 355.083 166.083 363.211 188.524 360.367C207.996 357.899 225.689 347.435 245.069 344.328C275.539 339.444 305.815 353.222 332.169 369.279C358.524 385.335 383.98 404.367 413.928 411.811C443.008 419.039 479.034 398.264 505.754 377.909Z" fill="#F2F2F2"/>
</g>
<g id="table">
<path id="Vector_3" d="M-2.28882e-05 330.125C6.60247 337.949 13.7438 345.303 21.3718 352.131L576.628 352.891C584.256 346.063 591.397 338.71 598 330.885L-2.28882e-05 330.125Z" fill="#3F3D56"/>
<path id="Vector_4" d="M145.521 332.002V339.52C145.523 339.91 145.677 340.283 145.952 340.559C146.226 340.835 146.599 340.992 146.988 340.995H198.996C199.386 340.993 199.759 340.837 200.034 340.56C200.309 340.284 200.463 339.91 200.463 339.52V332.002H145.521Z" fill="#3F3D56"/>
</g>
<path id="curtains" d="M462.417 42.0513C461.755 41.6104 461.087 41.1923 460.425 40.7667C441.312 28.5403 420.825 18.6077 399.388 11.1741L394.418 79.7546H362.907V1.16299C360.923 0.752514 358.925 0.36484 356.926 -3.05176e-05V79.7546H319.479C298.865 79.7546 279.095 71.5641 264.518 56.985C249.941 42.4059 241.752 22.6324 241.752 2.01445V2.01438C239.746 2.44766 237.754 2.91135 235.763 3.40545V79.7546H205.263L200.529 14.3592C178.499 22.8092 157.585 33.9214 138.252 47.4484C137.918 47.6764 137.584 47.912 137.257 48.1401C135.577 49.3183 133.92 50.5194 132.271 51.7356V313.371H222.159L220.57 291.364L211.83 170.539H387.843L379.103 291.364L377.515 313.371H466.407V44.6966C465.084 43.7997 463.754 42.9179 462.417 42.0513ZM235.763 150.585H210.386L205.697 85.7445H235.763V150.585ZM356.926 150.585H314.304V149.3C314.304 148.683 314.182 148.071 313.946 147.501C313.709 146.93 313.362 146.412 312.925 145.976C312.488 145.54 311.97 145.194 311.399 144.958C310.828 144.722 310.217 144.602 309.599 144.603H291.07C290.453 144.602 289.842 144.724 289.272 144.96C288.702 145.196 288.184 145.542 287.748 145.978C287.312 146.414 286.966 146.932 286.73 147.502C286.494 148.072 286.373 148.683 286.373 149.3V150.585H241.752V85.7445H356.926V150.585ZM362.907 150.585V85.7445H393.984L389.295 150.585H362.907Z" fill="#3F3D56"/>
<g id="laptop">
<path id="Vector_5" d="M376.537 259.66V324.807C376.538 325.637 376.868 326.434 377.455 327.021C378.042 327.608 378.838 327.938 379.668 327.938H476.194C477.024 327.938 477.82 327.608 478.407 327.021C478.994 326.434 479.324 325.637 479.325 324.807V259.66C479.323 258.83 478.992 258.035 478.405 257.449C477.819 256.863 477.023 256.533 476.194 256.532H379.668C378.839 256.533 378.043 256.863 377.457 257.449C376.87 258.035 376.539 258.83 376.537 259.66V259.66Z" fill="#3F3D56"/>
<path id="Vector_6" d="M378.802 260.47V324.004C378.803 324.447 378.979 324.872 379.293 325.186C379.606 325.5 380.031 325.676 380.475 325.677H475.391C475.834 325.676 476.259 325.5 476.573 325.186C476.886 324.872 477.063 324.447 477.064 324.004V260.47C477.064 260.026 476.887 259.6 476.574 259.286C476.26 258.971 475.835 258.794 475.391 258.793H380.475C380.031 258.794 379.605 258.971 379.292 259.286C378.978 259.6 378.802 260.026 378.802 260.47V260.47Z" fill="#562756"/>
<path id="Vector_7" d="M374.519 337.513C374.695 337.735 374.92 337.913 375.176 338.036C375.432 338.158 375.712 338.221 375.996 338.22H479.352C479.635 338.219 479.914 338.156 480.169 338.034C480.424 337.912 480.649 337.735 480.827 337.516C481.005 337.296 481.132 337.04 481.199 336.765C481.265 336.49 481.269 336.204 481.211 335.927L479.607 328.305C479.541 327.994 479.397 327.705 479.191 327.464C478.984 327.222 478.72 327.037 478.423 326.923C478.208 326.839 477.979 326.796 477.748 326.796H377.594C377.363 326.796 377.134 326.839 376.919 326.923C376.622 327.036 376.358 327.222 376.151 327.464C375.944 327.705 375.801 327.994 375.735 328.305L374.13 335.927C374.073 336.204 374.078 336.49 374.146 336.764C374.213 337.038 374.34 337.294 374.519 337.513V337.513Z" fill="#2F2E41"/>
<path id="Vector_8" d="M474.202 330.079H476.643C476.848 330.079 477.014 329.913 477.014 329.708V328.54C477.014 328.335 476.848 328.169 476.643 328.169H474.202C473.997 328.169 473.831 328.335 473.831 328.54V329.708C473.831 329.913 473.997 330.079 474.202 330.079Z" fill="#3F3D56"/>
<path id="Vector_9" d="M467.835 330.079H470.276C470.481 330.079 470.647 329.913 470.647 329.708V328.54C470.647 328.335 470.481 328.169 470.276 328.169H467.835C467.63 328.169 467.464 328.335 467.464 328.54V329.708C467.464 329.913 467.63 330.079 467.835 330.079Z" fill="#3F3D56"/>
<path id="Vector_10" d="M461.468 330.079H463.91C464.114 330.079 464.281 329.913 464.281 329.708V328.54C464.281 328.335 464.114 328.169 463.91 328.169H461.468C461.263 328.169 461.097 328.335 461.097 328.54V329.708C461.097 329.913 461.263 330.079 461.468 330.079Z" fill="#3F3D56"/>
<path id="Vector_11" d="M455.102 330.079H457.543C457.748 330.079 457.914 329.913 457.914 329.708V328.54C457.914 328.335 457.748 328.169 457.543 328.169H455.102C454.897 328.169 454.731 328.335 454.731 328.54V329.708C454.731 329.913 454.897 330.079 455.102 330.079Z" fill="#3F3D56"/>
<path id="Vector_12" d="M448.735 330.079H451.176C451.381 330.079 451.547 329.913 451.547 329.708V328.54C451.547 328.335 451.381 328.169 451.176 328.169H448.735C448.53 328.169 448.364 328.335 448.364 328.54V329.708C448.364 329.913 448.53 330.079 448.735 330.079Z" fill="#3F3D56"/>
<path id="Vector_13" d="M442.368 330.079H444.809C445.014 330.079 445.181 329.913 445.181 329.708V328.54C445.181 328.335 445.014 328.169 444.809 328.169H442.368C442.163 328.169 441.997 328.335 441.997 328.54V329.708C441.997 329.913 442.163 330.079 442.368 330.079Z" fill="#3F3D56"/>
<path id="Vector_14" d="M436.002 330.079H438.443C438.648 330.079 438.814 329.913 438.814 329.708V328.54C438.814 328.335 438.648 328.169 438.443 328.169H436.002C435.797 328.169 435.631 328.335 435.631 328.54V329.708C435.631 329.913 435.797 330.079 436.002 330.079Z" fill="#3F3D56"/>
<path id="Vector_15" d="M429.635 330.079H432.076C432.281 330.079 432.447 329.913 432.447 329.708V328.54C432.447 328.335 432.281 328.169 432.076 328.169H429.635C429.43 328.169 429.264 328.335 429.264 328.54V329.708C429.264 329.913 429.43 330.079 429.635 330.079Z" fill="#3F3D56"/>
<path id="Vector_16" d="M423.268 330.079H425.709C425.914 330.079 426.08 329.913 426.08 329.708V328.54C426.08 328.335 425.914 328.169 425.709 328.169H423.268C423.063 328.169 422.897 328.335 422.897 328.54V329.708C422.897 329.913 423.063 330.079 423.268 330.079Z" fill="#3F3D56"/>
<path id="Vector_17" d="M416.901 330.079H419.343C419.548 330.079 419.714 329.913 419.714 329.708V328.54C419.714 328.335 419.548 328.169 419.343 328.169H416.901C416.697 328.169 416.53 328.335 416.53 328.54V329.708C416.53 329.913 416.697 330.079 416.901 330.079Z" fill="#3F3D56"/>
<path id="Vector_18" d="M410.535 330.079H412.976C413.181 330.079 413.347 329.913 413.347 329.708V328.54C413.347 328.335 413.181 328.169 412.976 328.169H410.535C410.33 328.169 410.164 328.335 410.164 328.54V329.708C410.164 329.913 410.33 330.079 410.535 330.079Z" fill="#3F3D56"/>
<path id="Vector_19" d="M404.168 330.079H406.609C406.814 330.079 406.98 329.913 406.98 329.708V328.54C406.98 328.335 406.814 328.169 406.609 328.169H404.168C403.963 328.169 403.797 328.335 403.797 328.54V329.708C403.797 329.913 403.963 330.079 404.168 330.079Z" fill="#3F3D56"/>
<path id="Vector_20" d="M397.801 330.079H400.243C400.448 330.079 400.614 329.913 400.614 329.708V328.54C400.614 328.335 400.448 328.169 400.243 328.169H397.801C397.596 328.169 397.43 328.335 397.43 328.54V329.708C397.43 329.913 397.596 330.079 397.801 330.079Z" fill="#3F3D56"/>
<path id="Vector_21" d="M391.435 330.079H393.876C394.081 330.079 394.247 329.913 394.247 329.708V328.54C394.247 328.335 394.081 328.169 393.876 328.169H391.435C391.23 328.169 391.064 328.335 391.064 328.54V329.708C391.064 329.913 391.23 330.079 391.435 330.079Z" fill="#3F3D56"/>
<path id="Vector_22" d="M385.068 330.079H387.509C387.714 330.079 387.88 329.913 387.88 329.708V328.54C387.88 328.335 387.714 328.169 387.509 328.169H385.068C384.863 328.169 384.697 328.335 384.697 328.54V329.708C384.697 329.913 384.863 330.079 385.068 330.079Z" fill="#3F3D56"/>
<path id="Vector_23" d="M378.701 330.079H381.143C381.348 330.079 381.514 329.913 381.514 329.708V328.54C381.514 328.335 381.348 328.169 381.143 328.169H378.701C378.496 328.169 378.33 328.335 378.33 328.54V329.708C378.33 329.913 378.496 330.079 378.701 330.079Z" fill="#3F3D56"/>
<path id="Vector_24" d="M474.277 333.263H476.718C476.923 333.263 477.089 333.097 477.089 332.892V331.724C477.089 331.519 476.923 331.352 476.718 331.352H474.277C474.072 331.352 473.906 331.519 473.906 331.724V332.892C473.906 333.097 474.072 333.263 474.277 333.263Z" fill="#3F3D56"/>
<path id="Vector_25" d="M467.91 333.263H470.351C470.556 333.263 470.722 333.097 470.722 332.892V331.724C470.722 331.519 470.556 331.352 470.351 331.352H467.91C467.705 331.352 467.539 331.519 467.539 331.724V332.892C467.539 333.097 467.705 333.263 467.91 333.263Z" fill="#3F3D56"/>
<path id="Vector_26" d="M461.543 333.263H463.985C464.19 333.263 464.356 333.097 464.356 332.892V331.724C464.356 331.519 464.19 331.352 463.985 331.352H461.543C461.339 331.352 461.172 331.519 461.172 331.724V332.892C461.172 333.097 461.339 333.263 461.543 333.263Z" fill="#3F3D56"/>
<path id="Vector_27" d="M455.177 333.263H457.618C457.823 333.263 457.989 333.097 457.989 332.892V331.724C457.989 331.519 457.823 331.352 457.618 331.352H455.177C454.972 331.352 454.806 331.519 454.806 331.724V332.892C454.806 333.097 454.972 333.263 455.177 333.263Z" fill="#3F3D56"/>
<path id="Vector_28" d="M448.81 333.263H451.251C451.456 333.263 451.622 333.097 451.622 332.892V331.724C451.622 331.519 451.456 331.352 451.251 331.352H448.81C448.605 331.352 448.439 331.519 448.439 331.724V332.892C448.439 333.097 448.605 333.263 448.81 333.263Z" fill="#3F3D56"/>
<path id="Vector_29" d="M442.443 333.263H444.885C445.09 333.263 445.256 333.097 445.256 332.892V331.724C445.256 331.519 445.09 331.352 444.885 331.352H442.443C442.239 331.352 442.072 331.519 442.072 331.724V332.892C442.072 333.097 442.239 333.263 442.443 333.263Z" fill="#3F3D56"/>
<path id="Vector_30" d="M436.077 333.263H438.518C438.723 333.263 438.889 333.097 438.889 332.892V331.724C438.889 331.519 438.723 331.352 438.518 331.352H436.077C435.872 331.352 435.706 331.519 435.706 331.724V332.892C435.706 333.097 435.872 333.263 436.077 333.263Z" fill="#3F3D56"/>
<path id="Vector_31" d="M429.71 333.263H432.151C432.356 333.263 432.522 333.097 432.522 332.892V331.724C432.522 331.519 432.356 331.352 432.151 331.352H429.71C429.505 331.352 429.339 331.519 429.339 331.724V332.892C429.339 333.097 429.505 333.263 429.71 333.263Z" fill="#3F3D56"/>
<path id="Vector_32" d="M423.343 333.263H425.785C425.99 333.263 426.156 333.097 426.156 332.892V331.724C426.156 331.519 425.99 331.352 425.785 331.352H423.343C423.138 331.352 422.972 331.519 422.972 331.724V332.892C422.972 333.097 423.138 333.263 423.343 333.263Z" fill="#3F3D56"/>
<path id="Vector_33" d="M416.977 333.263H419.418C419.623 333.263 419.789 333.097 419.789 332.892V331.724C419.789 331.519 419.623 331.352 419.418 331.352H416.977C416.772 331.352 416.606 331.519 416.606 331.724V332.892C416.606 333.097 416.772 333.263 416.977 333.263Z" fill="#3F3D56"/>
<path id="Vector_34" d="M410.61 333.263H413.051C413.256 333.263 413.422 333.097 413.422 332.892V331.724C413.422 331.519 413.256 331.352 413.051 331.352H410.61C410.405 331.352 410.239 331.519 410.239 331.724V332.892C410.239 333.097 410.405 333.263 410.61 333.263Z" fill="#3F3D56"/>
<path id="Vector_35" d="M404.243 333.263H406.685C406.89 333.263 407.056 333.097 407.056 332.892V331.724C407.056 331.519 406.89 331.352 406.685 331.352H404.243C404.038 331.352 403.872 331.519 403.872 331.724V332.892C403.872 333.097 404.038 333.263 404.243 333.263Z" fill="#3F3D56"/>
<path id="Vector_36" d="M397.877 333.263H400.318C400.523 333.263 400.689 333.097 400.689 332.892V331.724C400.689 331.519 400.523 331.352 400.318 331.352H397.877C397.672 331.352 397.506 331.519 397.506 331.724V332.892C397.506 333.097 397.672 333.263 397.877 333.263Z" fill="#3F3D56"/>
<path id="Vector_37" d="M391.51 333.263H393.951C394.156 333.263 394.322 333.097 394.322 332.892V331.724C394.322 331.519 394.156 331.352 393.951 331.352H391.51C391.305 331.352 391.139 331.519 391.139 331.724V332.892C391.139 333.097 391.305 333.263 391.51 333.263Z" fill="#3F3D56"/>
<path id="Vector_38" d="M385.143 333.263H387.585C387.789 333.263 387.956 333.097 387.956 332.892V331.724C387.956 331.519 387.789 331.352 387.585 331.352H385.143C384.938 331.352 384.772 331.519 384.772 331.724V332.892C384.772 333.097 384.938 333.263 385.143 333.263Z" fill="#3F3D56"/>
<path id="Vector_39" d="M378.777 333.263H381.218C381.423 333.263 381.589 333.097 381.589 332.892V331.724C381.589 331.519 381.423 331.352 381.218 331.352H378.777C378.572 331.352 378.406 331.519 378.406 331.724V332.892C378.406 333.097 378.572 333.263 378.777 333.263Z" fill="#3F3D56"/>
<path id="Vector_40" d="M421.433 337.083H446.158C446.363 337.083 446.529 336.917 446.529 336.712V335.544C446.529 335.339 446.363 335.173 446.158 335.173H421.433C421.228 335.173 421.062 335.339 421.062 335.544V336.712C421.062 336.917 421.228 337.083 421.433 337.083Z" fill="#3F3D56"/>
<path id="Vector_41" d="M395.238 272.693H393.077C392.422 272.693 391.891 273.224 391.891 273.88C391.891 274.535 392.422 275.066 393.077 275.066H395.238C395.894 275.066 396.425 274.535 396.425 273.88C396.425 273.224 395.894 272.693 395.238 272.693Z" fill="white"/>
<path id="Vector_42" d="M419.957 272.693H417.795C417.14 272.693 416.609 273.224 416.609 273.88C416.609 274.535 417.14 275.066 417.795 275.066H419.957C420.612 275.066 421.143 274.535 421.143 273.88C421.143 273.224 420.612 272.693 419.957 272.693Z" fill="white"/>
<path id="Vector_43" d="M426.96 272.693H424.799C424.144 272.693 423.612 273.224 423.612 273.88C423.612 274.535 424.144 275.066 424.799 275.066H426.96C427.615 275.066 428.146 274.535 428.146 273.88C428.146 273.224 427.615 272.693 426.96 272.693Z" fill="white"/>
<path id="Vector_44" d="M413.233 272.495H399.801C399.145 272.495 398.614 273.026 398.614 273.682C398.614 274.337 399.145 274.868 399.801 274.868H413.233C413.888 274.868 414.42 274.337 414.42 273.682C414.42 273.026 413.888 272.495 413.233 272.495Z" fill="white"/>
<path id="Vector_45" d="M446.191 272.495H432.758C432.103 272.495 431.572 273.026 431.572 273.682C431.572 274.337 432.103 274.868 432.758 274.868H446.191C446.846 274.868 447.377 274.337 447.377 273.682C447.377 273.026 446.846 272.495 446.191 272.495Z" fill="white"/>
<path id="Vector_46" d="M401.83 278.049H399.669C399.013 278.049 398.482 278.581 398.482 279.236C398.482 279.891 399.013 280.423 399.669 280.423H401.83C402.485 280.423 403.016 279.891 403.016 279.236C403.016 278.581 402.485 278.049 401.83 278.049Z" fill="white"/>
<path id="Vector_47" d="M426.548 278.049H424.387C423.732 278.049 423.2 278.581 423.2 279.236C423.2 279.891 423.732 280.423 424.387 280.423H426.548C427.203 280.423 427.735 279.891 427.735 279.236C427.735 278.581 427.203 278.049 426.548 278.049Z" fill="white"/>
<path id="Vector_48" d="M433.552 278.049H431.39C430.735 278.049 430.204 278.581 430.204 279.236C430.204 279.891 430.735 280.423 431.39 280.423H433.552C434.207 280.423 434.738 279.891 434.738 279.236C434.738 278.581 434.207 278.049 433.552 278.049Z" fill="white"/>
<path id="Vector_49" d="M419.825 277.852H406.392C405.737 277.852 405.206 278.383 405.206 279.038C405.206 279.694 405.737 280.225 406.392 280.225H419.825C420.48 280.225 421.011 279.694 421.011 279.038C421.011 278.383 420.48 277.852 419.825 277.852Z" fill="white"/>
<path id="Vector_50" d="M452.782 277.852H439.35C438.694 277.852 438.163 278.383 438.163 279.038C438.163 279.694 438.694 280.225 439.35 280.225H452.782C453.437 280.225 453.969 279.694 453.969 279.038C453.969 278.383 453.437 277.852 452.782 277.852Z" fill="white"/>
<path id="Vector_51" d="M408.421 283.406H406.26C405.605 283.406 405.074 283.937 405.074 284.593C405.074 285.248 405.605 285.779 406.26 285.779H408.421C409.077 285.779 409.608 285.248 409.608 284.593C409.608 283.937 409.077 283.406 408.421 283.406Z" fill="white"/>
<path id="Vector_52" d="M433.14 283.406H430.978C430.323 283.406 429.792 283.937 429.792 284.593C429.792 285.248 430.323 285.779 430.978 285.779H433.14C433.795 285.779 434.326 285.248 434.326 284.593C434.326 283.937 433.795 283.406 433.14 283.406Z" fill="white"/>
<path id="Vector_53" d="M440.143 283.406H437.982C437.327 283.406 436.795 283.937 436.795 284.593C436.795 285.248 437.327 285.779 437.982 285.779H440.143C440.798 285.779 441.329 285.248 441.329 284.593C441.329 283.937 440.798 283.406 440.143 283.406Z" fill="white"/>
<path id="Vector_54" d="M426.416 283.208H412.984C412.328 283.208 411.797 283.739 411.797 284.395C411.797 285.05 412.328 285.581 412.984 285.581H426.416C427.071 285.581 427.603 285.05 427.603 284.395C427.603 283.739 427.071 283.208 426.416 283.208Z" fill="white"/>
<path id="Vector_55" d="M459.374 283.208H445.941C445.286 283.208 444.755 283.739 444.755 284.395C444.755 285.05 445.286 285.581 445.941 285.581H459.374C460.029 285.581 460.56 285.05 460.56 284.395C460.56 283.739 460.029 283.208 459.374 283.208Z" fill="white"/>
<path id="Vector_56" d="M415.013 288.762H412.852C412.196 288.762 411.665 289.294 411.665 289.949C411.665 290.604 412.196 291.136 412.852 291.136H415.013C415.668 291.136 416.199 290.604 416.199 289.949C416.199 289.294 415.668 288.762 415.013 288.762Z" fill="white"/>
<path id="Vector_57" d="M439.731 288.762H437.57C436.915 288.762 436.383 289.294 436.383 289.949C436.383 290.604 436.915 291.136 437.57 291.136H439.731C440.386 291.136 440.918 290.604 440.918 289.949C440.918 289.294 440.386 288.762 439.731 288.762Z" fill="white"/>
<path id="Vector_58" d="M446.735 288.762H444.573C443.918 288.762 443.387 289.294 443.387 289.949C443.387 290.604 443.918 291.136 444.573 291.136H446.735C447.39 291.136 447.921 290.604 447.921 289.949C447.921 289.294 447.39 288.762 446.735 288.762Z" fill="white"/>
<path id="Vector_59" d="M433.008 288.565H419.575C418.92 288.565 418.389 289.096 418.389 289.751C418.389 290.407 418.92 290.938 419.575 290.938H433.008C433.663 290.938 434.194 290.407 434.194 289.751C434.194 289.096 433.663 288.565 433.008 288.565Z" fill="white"/>
<path id="Vector_60" d="M419.957 310.062H417.795C417.14 310.062 416.609 310.593 416.609 311.249C416.609 311.904 417.14 312.435 417.795 312.435H419.957C420.612 312.435 421.143 311.904 421.143 311.249C421.143 310.593 420.612 310.062 419.957 310.062Z" fill="white"/>
<path id="Vector_61" d="M426.96 310.062H424.799C424.144 310.062 423.612 310.593 423.612 311.249C423.612 311.904 424.144 312.435 424.799 312.435H426.96C427.615 312.435 428.146 311.904 428.146 311.249C428.146 310.593 427.615 310.062 426.96 310.062Z" fill="white"/>
<path id="Vector_62" d="M446.191 310.26H432.758C432.103 310.26 431.572 310.791 431.572 311.447C431.572 312.102 432.103 312.633 432.758 312.633H446.191C446.846 312.633 447.377 312.102 447.377 311.447C447.377 310.791 446.846 310.26 446.191 310.26Z" fill="white"/>
<path id="Vector_63" d="M395.238 310.062H393.077C392.422 310.062 391.891 310.593 391.891 311.249C391.891 311.904 392.422 312.435 393.077 312.435H395.238C395.894 312.435 396.425 311.904 396.425 311.249C396.425 310.593 395.894 310.062 395.238 310.062Z" fill="white"/>
<path id="Vector_64" d="M413.233 310.26H399.801C399.145 310.26 398.614 310.791 398.614 311.447C398.614 312.102 399.145 312.633 399.801 312.633H413.233C413.888 312.633 414.42 312.102 414.42 311.447C414.42 310.791 413.888 310.26 413.233 310.26Z" fill="white"/>
<path id="Vector_65" d="M401.83 304.706H399.669C399.013 304.706 398.482 305.237 398.482 305.892C398.482 306.548 399.013 307.079 399.669 307.079H401.83C402.485 307.079 403.016 306.548 403.016 305.892C403.016 305.237 402.485 304.706 401.83 304.706Z" fill="white"/>
<path id="Vector_66" d="M426.548 304.706H424.387C423.732 304.706 423.2 305.237 423.2 305.892C423.2 306.548 423.732 307.079 424.387 307.079H426.548C427.203 307.079 427.735 306.548 427.735 305.892C427.735 305.237 427.203 304.706 426.548 304.706Z" fill="white"/>
<path id="Vector_67" d="M433.552 304.706H431.39C430.735 304.706 430.204 305.237 430.204 305.892C430.204 306.548 430.735 307.079 431.39 307.079H433.552C434.207 307.079 434.738 306.548 434.738 305.892C434.738 305.237 434.207 304.706 433.552 304.706Z" fill="white"/>
<path id="Vector_68" d="M419.825 304.903H406.392C405.737 304.903 405.206 305.435 405.206 306.09C405.206 306.745 405.737 307.277 406.392 307.277H419.825C420.48 307.277 421.011 306.745 421.011 306.09C421.011 305.435 420.48 304.903 419.825 304.903Z" fill="white"/>
<path id="Vector_69" d="M408.421 299.349H406.26C405.605 299.349 405.074 299.88 405.074 300.536C405.074 301.191 405.605 301.722 406.26 301.722H408.421C409.077 301.722 409.608 301.191 409.608 300.536C409.608 299.88 409.077 299.349 408.421 299.349Z" fill="white"/>
<path id="Vector_70" d="M433.14 299.349H430.978C430.323 299.349 429.792 299.88 429.792 300.536C429.792 301.191 430.323 301.722 430.978 301.722H433.14C433.795 301.722 434.326 301.191 434.326 300.536C434.326 299.88 433.795 299.349 433.14 299.349Z" fill="white"/>
<path id="Vector_71" d="M440.143 299.349H437.982C437.327 299.349 436.795 299.88 436.795 300.536C436.795 301.191 437.327 301.722 437.982 301.722H440.143C440.798 301.722 441.329 301.191 441.329 300.536C441.329 299.88 440.798 299.349 440.143 299.349Z" fill="white"/>
<path id="Vector_72" d="M426.416 299.547H412.984C412.328 299.547 411.797 300.078 411.797 300.734C411.797 301.389 412.328 301.92 412.984 301.92H426.416C427.071 301.92 427.603 301.389 427.603 300.734C427.603 300.078 427.071 299.547 426.416 299.547Z" fill="white"/>
<path id="Vector_73" d="M415.013 293.993H412.852C412.196 293.993 411.665 294.524 411.665 295.179C411.665 295.835 412.196 296.366 412.852 296.366H415.013C415.668 296.366 416.199 295.835 416.199 295.179C416.199 294.524 415.668 293.993 415.013 293.993Z" fill="white"/>
<path id="Vector_74" d="M439.731 293.993H437.57C436.915 293.993 436.383 294.524 436.383 295.179C436.383 295.835 436.915 296.366 437.57 296.366H439.731C440.386 296.366 440.918 295.835 440.918 295.179C440.918 294.524 440.386 293.993 439.731 293.993Z" fill="white"/>
<path id="Vector_75" d="M446.735 293.993H444.573C443.918 293.993 443.387 294.524 443.387 295.179C443.387 295.835 443.918 296.366 444.573 296.366H446.735C447.39 296.366 447.921 295.835 447.921 295.179C447.921 294.524 447.39 293.993 446.735 293.993Z" fill="white"/>
<path id="Vector_76" d="M433.008 294.19H419.575C418.92 294.19 418.389 294.722 418.389 295.377C418.389 296.032 418.92 296.564 419.575 296.564H433.008C433.663 296.564 434.194 296.032 434.194 295.377C434.194 294.722 433.663 294.19 433.008 294.19Z" fill="white"/>
</g>
<g id="mug">
<path id="Vector_77" d="M527.148 335.302C527.482 336.277 528.118 337.121 528.962 337.712C529.806 338.304 530.816 338.612 531.847 338.594L551.981 338.076C553.019 338.055 554.023 337.7 554.843 337.062C555.662 336.424 556.253 335.537 556.527 334.536L559.376 304.064C560.387 304.522 561.487 304.748 562.597 304.725C563.561 304.701 564.511 304.487 565.392 304.096C566.273 303.705 567.069 303.144 567.734 302.445C568.398 301.746 568.918 300.923 569.265 300.023C569.611 299.123 569.777 298.164 569.753 297.199C569.729 296.235 569.515 295.285 569.124 294.404C568.733 293.522 568.172 292.727 567.473 292.062C566.774 291.397 565.951 290.877 565.052 290.53C564.152 290.184 563.192 290.018 562.228 290.042C561.785 290.041 561.343 290.087 560.909 290.179C560.437 289.669 559.864 289.263 559.226 288.988C558.588 288.712 557.899 288.574 557.205 288.581L526.233 289.381C525.976 289.39 525.721 289.422 525.469 289.476C524.79 289.602 524.146 289.873 523.58 290.269C523.014 290.666 522.54 291.179 522.189 291.774C521.838 292.369 521.619 293.033 521.546 293.72C521.473 294.407 521.548 295.102 521.766 295.758L527.148 335.302ZM559.96 301.995L561.988 294.733C562.218 293.894 562.224 293.009 562.003 292.168C562.102 292.168 562.188 292.121 562.287 292.121C563.677 292.092 565.022 292.616 566.026 293.577C567.031 294.539 567.614 295.859 567.646 297.25C567.679 298.64 567.159 299.986 566.2 300.994C565.242 302.001 563.923 302.587 562.533 302.624C561.634 302.652 560.745 302.434 559.96 301.995Z" fill="#2F2E41"/>
<path id="Vector_78" d="M525.469 289.475C526.129 293.249 533.548 295.902 542.468 295.441C550.671 295.063 557.377 292.182 558.606 288.768C558.152 288.633 557.679 288.57 557.205 288.581L526.233 289.381C525.976 289.39 525.721 289.422 525.469 289.475V289.475Z" fill="#3F3D56"/>
<path id="Vector_79" d="M544.103 318.557C544.143 318.547 544.182 318.53 544.217 318.507L548.59 315.644C548.643 315.61 548.686 315.563 548.716 315.507C548.746 315.452 548.762 315.389 548.762 315.326C548.762 315.263 548.746 315.201 548.716 315.146C548.686 315.09 548.643 315.043 548.59 315.009L544.045 312.031C544.004 312.004 543.957 311.985 543.908 311.975C543.859 311.966 543.808 311.966 543.759 311.976C543.71 311.986 543.664 312.006 543.622 312.034C543.581 312.062 543.546 312.098 543.518 312.14C543.491 312.182 543.472 312.228 543.463 312.278C543.453 312.327 543.454 312.377 543.464 312.426C543.474 312.475 543.494 312.522 543.523 312.563C543.551 312.604 543.587 312.639 543.629 312.667L547.688 315.326L543.801 317.871C543.726 317.92 543.671 317.994 543.645 318.08C543.619 318.167 543.625 318.259 543.661 318.341C543.698 318.424 543.762 318.491 543.842 318.53C543.923 318.57 544.015 318.579 544.103 318.557H544.103Z" fill="#562756"/>
<path id="Vector_80" d="M537.196 318.876C537.27 318.857 537.336 318.817 537.387 318.761C537.437 318.704 537.469 318.634 537.48 318.559C537.49 318.484 537.478 318.408 537.444 318.34C537.411 318.272 537.358 318.215 537.292 318.178L533.262 315.866L537.157 312.972C537.198 312.943 537.231 312.905 537.257 312.862C537.282 312.82 537.299 312.772 537.307 312.723C537.314 312.674 537.311 312.623 537.299 312.575C537.287 312.527 537.266 312.481 537.236 312.441C537.206 312.401 537.169 312.367 537.126 312.342C537.083 312.316 537.036 312.299 536.986 312.292C536.937 312.284 536.887 312.287 536.838 312.299C536.79 312.311 536.745 312.333 536.705 312.363L532.343 315.603C532.292 315.64 532.252 315.69 532.225 315.747C532.198 315.804 532.186 315.867 532.19 315.93C532.194 315.993 532.213 316.054 532.246 316.108C532.28 316.162 532.326 316.206 532.38 316.237L536.914 318.837C537 318.886 537.101 318.9 537.196 318.876V318.876Z" fill="#562756"/>
<path id="Vector_81" d="M543.668 321.066C543.705 321.056 543.74 321.042 543.772 321.022C543.815 320.996 543.852 320.962 543.881 320.921C543.911 320.881 543.932 320.835 543.944 320.787C543.956 320.738 543.958 320.688 543.95 320.639C543.942 320.589 543.925 320.542 543.899 320.499L537.701 310.307C537.648 310.221 537.564 310.159 537.466 310.136C537.368 310.112 537.265 310.128 537.179 310.181C537.093 310.233 537.031 310.317 537.007 310.415C536.983 310.513 536.999 310.617 537.051 310.703L543.25 320.895C543.292 320.964 543.355 321.018 543.431 321.049C543.506 321.08 543.589 321.085 543.668 321.066Z" fill="#562756"/>
</g>
<g id="monitor">
<path id="Vector_82" d="M145.688 256.535V334.496H200.296V256.535C200.297 255.974 200.118 255.428 199.786 254.977C199.453 254.525 198.985 254.192 198.449 254.027C198.197 253.943 197.932 253.902 197.666 253.905H148.326C147.98 253.904 147.637 253.972 147.317 254.104C146.998 254.235 146.707 254.429 146.462 254.673C146.217 254.918 146.023 255.208 145.89 255.527C145.757 255.847 145.689 256.189 145.688 256.535V256.535ZM166.999 283.323C167.014 281.786 167.634 280.317 168.726 279.235C169.818 278.153 171.292 277.546 172.829 277.546C174.366 277.546 175.84 278.153 176.932 279.235C178.023 280.317 178.644 281.786 178.658 283.323V292.368C178.65 293.909 178.033 295.385 176.94 296.472C175.848 297.559 174.37 298.169 172.829 298.169C171.288 298.169 169.81 297.559 168.717 296.472C167.625 295.385 167.007 293.909 166.999 292.368V283.323Z" fill="#2F2E41"/>
<path id="Vector_83" d="M59.7833 139.077V281.422C59.7847 283.236 60.5058 284.975 61.7883 286.258C63.0708 287.541 64.8098 288.262 66.6235 288.264H277.529C279.343 288.262 281.082 287.541 282.365 286.258C283.647 284.975 284.368 283.236 284.37 281.422V139.077C284.365 137.265 283.643 135.528 282.361 134.247C281.079 132.966 279.342 132.246 277.529 132.243H66.6235C64.8114 132.246 63.074 132.966 61.7919 134.247C60.5099 135.528 59.7876 137.265 59.7833 139.077Z" fill="#3F3D56"/>
<path id="Vector_84" d="M64.731 140.848V279.666C64.7327 280.635 65.1184 281.564 65.8036 282.25C66.4888 282.935 67.4177 283.321 68.3867 283.323H275.774C276.743 283.321 277.672 282.935 278.357 282.25C279.042 281.564 279.428 280.635 279.429 279.666V140.848C279.429 139.878 279.044 138.947 278.359 138.26C277.674 137.573 276.744 137.186 275.774 137.184H68.3867C67.4165 137.186 66.4867 137.573 65.8014 138.26C65.1161 138.947 64.7311 139.878 64.731 140.848Z" fill="white"/>
<path id="Vector_85" d="M103.218 340.486C103.43 340.75 103.698 340.964 104.003 341.11C104.309 341.256 104.643 341.331 104.982 341.329H228.364C228.701 341.329 229.034 341.253 229.339 341.108C229.643 340.963 229.911 340.751 230.124 340.489C230.337 340.227 230.488 339.921 230.567 339.593C230.647 339.265 230.652 338.923 230.583 338.593L228.668 329.494C228.588 329.123 228.417 328.778 228.17 328.489C227.924 328.201 227.608 327.98 227.254 327.844C226.997 327.744 226.724 327.692 226.448 327.692H106.889C106.614 327.692 106.34 327.744 106.084 327.844C105.729 327.98 105.414 328.201 105.167 328.489C104.92 328.778 104.75 329.123 104.67 329.494L102.755 338.593C102.687 338.923 102.693 339.264 102.773 339.592C102.853 339.919 103.006 340.224 103.218 340.486Z" fill="#2F2E41"/>
<path id="Vector_86" d="M269.043 156.307H74.9922C74.7905 156.303 74.5985 156.219 74.4575 156.075C74.3164 155.931 74.2374 155.737 74.2374 155.535C74.2374 155.334 74.3164 155.14 74.4575 154.996C74.5985 154.851 74.7905 154.768 74.9922 154.764H269.043C269.245 154.768 269.437 154.851 269.578 154.996C269.719 155.14 269.798 155.334 269.798 155.535C269.798 155.737 269.719 155.931 269.578 156.075C269.437 156.219 269.245 156.303 269.043 156.307V156.307Z" fill="#3F3D56"/>
<path id="Vector_87" d="M88.2015 150.823C90.6992 150.823 92.7239 148.753 92.7239 146.199C92.7239 143.645 90.6992 141.575 88.2015 141.575C85.7038 141.575 83.679 143.645 83.679 146.199C83.679 148.753 85.7038 150.823 88.2015 150.823Z" fill="#3F3D56"/>
<path id="Vector_88" d="M103.824 150.823C106.322 150.823 108.347 148.753 108.347 146.199C108.347 143.645 106.322 141.575 103.824 141.575C101.327 141.575 99.302 143.645 99.302 146.199C99.302 148.753 101.327 150.823 103.824 150.823Z" fill="#3F3D56"/>
<path id="Vector_89" d="M119.448 150.823C121.945 150.823 123.97 148.753 123.97 146.199C123.97 143.645 121.945 141.575 119.448 141.575C116.95 141.575 114.925 143.645 114.925 146.199C114.925 148.753 116.95 150.823 119.448 150.823Z" fill="#3F3D56"/>
<path id="Vector_90" d="M259.636 142.718H248.539C248.32 142.723 248.111 142.814 247.958 142.971C247.805 143.128 247.719 143.339 247.719 143.558C247.719 143.778 247.805 143.988 247.958 144.145C248.111 144.302 248.32 144.393 248.539 144.398H259.636C259.856 144.395 260.067 144.305 260.222 144.148C260.377 143.991 260.464 143.779 260.464 143.558C260.464 143.337 260.377 143.126 260.222 142.968C260.067 142.811 259.856 142.721 259.636 142.718Z" fill="#3F3D56"/>
<path id="Vector_91" d="M259.636 145.873H248.539C248.32 145.878 248.111 145.968 247.957 146.125C247.804 146.282 247.718 146.493 247.718 146.713C247.718 146.932 247.804 147.143 247.957 147.3C248.111 147.457 248.32 147.548 248.539 147.553H259.636C259.857 147.55 260.068 147.46 260.223 147.303C260.378 147.146 260.466 146.934 260.466 146.713C260.466 146.492 260.378 146.28 260.223 146.122C260.068 145.965 259.857 145.876 259.636 145.873V145.873Z" fill="#3F3D56"/>
<path id="Vector_92" d="M259.636 149.027H248.539C248.32 149.033 248.111 149.123 247.958 149.28C247.805 149.437 247.719 149.648 247.719 149.867C247.719 150.087 247.805 150.298 247.958 150.455C248.111 150.612 248.32 150.702 248.539 150.707H259.636C259.856 150.704 260.067 150.614 260.222 150.457C260.377 150.3 260.464 150.088 260.464 149.867C260.464 149.647 260.377 149.435 260.222 149.278C260.067 149.12 259.856 149.031 259.636 149.027V149.027Z" fill="#3F3D56"/>
<path id="Vector_93" d="M195.204 198.267H161.618C160.247 198.267 159.137 199.378 159.137 200.748V204.03C159.137 205.4 160.247 206.511 161.618 206.511H195.204C196.574 206.511 197.684 205.4 197.684 204.03V200.748C197.684 199.378 196.574 198.267 195.204 198.267Z" fill="#562756"/>
<path id="Vector_94" d="M214.781 214.756H142.041C140.67 214.756 139.56 215.866 139.56 217.237V220.519C139.56 221.889 140.67 223 142.041 223H214.781C216.151 223 217.261 221.889 217.261 220.519V217.237C217.261 215.866 216.151 214.756 214.781 214.756Z" fill="#E6E6E6"/>
<path id="Vector_95" d="M214.781 231.244H142.041C140.67 231.244 139.56 232.355 139.56 233.725V237.007C139.56 238.378 140.67 239.489 142.041 239.489H214.781C216.151 239.489 217.261 238.378 217.261 237.007V233.725C217.261 232.355 216.151 231.244 214.781 231.244Z" fill="#E6E6E6"/>
</g>
<g id="person">
<path id="Vector_96" d="M367.308 375.686L357.162 359.646L389.008 334.254L402.153 319.689C403.861 317.797 406.035 316.386 408.459 315.598C410.883 314.809 413.471 314.671 415.965 315.196C418.459 315.721 420.771 316.892 422.671 318.591C424.571 320.291 425.992 322.459 426.791 324.879C427.976 328.466 427.721 332.373 426.081 335.776C424.44 339.178 421.542 341.81 417.998 343.116L397.212 350.775L367.308 375.686Z" fill="#FFB6B6"/>
<path id="Vector_97" d="M204.507 289.306L204.671 289.826L204.68 289.844L209.639 304.923L215.344 322.301L226.078 354.958L226.182 360.031V360.048L226.979 400.856L224.768 406.389L227.257 415.459C227.257 415.459 226.112 401.748 219.974 409.622C216.497 414.096 212.431 418.675 209.093 422.967C213.957 424.936 218.899 426.716 223.919 428.309C225.003 428.656 226.095 428.985 227.187 429.315C227.421 429.384 227.656 429.454 227.89 429.523C244.53 434.445 261.733 437.211 279.078 437.752C279.979 437.778 280.864 437.796 281.722 437.813C282.026 437.822 282.32 437.83 282.615 437.83C283.586 437.839 284.549 437.848 285.52 437.848C287.479 437.848 289.43 437.819 291.372 437.761C305.746 437.356 320.037 435.423 334.003 431.994C333.907 426.228 333.647 419.49 333.274 412.293C333.101 408.764 329.208 404.939 328.974 401.245C328.809 398.47 332.303 395.86 332.121 393.042C330.942 375.69 329.468 382.351 328.376 370.064C328.263 368.858 328.159 367.705 328.064 366.604C327.361 358.713 326.876 353.779 326.876 353.779L331.54 324.374L338.867 278.206L338.303 277.279L337.67 276.966L299.028 257.837L296.929 252.461C296.318 250.912 295.257 249.581 293.884 248.64C292.51 247.699 290.887 247.19 289.222 247.18L263.766 247.076C262.445 247.07 261.142 247.379 259.964 247.978C258.787 248.576 257.769 249.447 256.995 250.518L250.102 260.066L204.507 289.306Z" fill="#3F3D56"/>
<path id="Vector_98" d="M231.947 347.691L226.182 360.031L222.246 368.459L215.474 403.917L212.084 407.516L209.18 394.776L178.781 401.527C177.783 395.986 178.514 401.715 177.898 395.636C178.071 395.463 178.253 395.289 178.436 395.116C178.921 394.665 179.329 394.24 179.32 393.832C178.973 372.865 180.014 337.181 188.701 315.563C190.062 312.034 191.856 308.687 194.042 305.6C194.215 305.366 194.38 305.131 194.545 304.897C198.55 299.287 201.082 293.763 204.671 289.835V289.826C204.694 289.808 204.714 289.788 204.732 289.766C204.745 289.759 204.757 289.75 204.767 289.74L229.424 276.663L230.482 306.389L231.236 327.755L231.947 347.691Z" fill="#3F3D56"/>
<path id="Vector_99" d="M320.858 351.196L328.06 366.608L330.574 371.975L337.343 407.43L340.722 411.02L343.633 398.283L345.001 398.003L369.67 392.893L376.861 415.732C378.481 413.031 379.12 409.854 378.668 406.737C378.216 403.62 376.702 400.754 374.382 398.625C373.891 398.18 373.482 397.748 373.493 397.338C373.903 372.677 372.395 327.645 358.774 309.111C354.448 303.229 351.853 297.371 348.076 293.278C348.064 293.267 348.064 293.255 348.053 293.255L338.863 278.205L338.302 277.282L337.671 276.966L320.858 351.196Z" fill="#3F3D56"/>
<path id="Ellipse 5" d="M277.229 239.83C295.933 239.83 311.095 224.666 311.095 205.959C311.095 187.253 295.933 172.089 277.229 172.089C258.526 172.089 243.364 187.253 243.364 205.959C243.364 224.666 258.526 239.83 277.229 239.83Z" fill="#FFB6B6"/>
<path id="Vector_100" d="M323.002 182.301C322.74 182.02 322.423 181.796 322.072 181.64C321.721 181.485 321.342 181.402 320.958 181.396L321.467 179.982C321.633 179.537 321.678 179.055 321.597 178.587C321.516 178.119 321.312 177.68 321.006 177.317C320.699 176.953 320.302 176.678 319.854 176.518C319.406 176.359 318.924 176.321 318.457 176.41L316.603 176.767L316.778 175.528C316.845 175.066 316.79 174.595 316.62 174.161C316.45 173.727 316.17 173.345 315.807 173.052C315.444 172.759 315.012 172.565 314.552 172.49C314.091 172.415 313.62 172.461 313.183 172.624C312.785 172.781 312.358 172.846 311.932 172.816C311.506 172.786 311.092 172.66 310.72 172.449C310.347 172.245 310.024 171.961 309.772 171.618C309.52 171.276 309.345 170.882 309.261 170.465L308.615 167.349L308.547 167.181C305.4 161.936 299.35 158.12 291.948 156.722C285.358 155.468 278.602 156.106 272.088 156.707C269.504 156.95 266.586 157.223 264.154 158.713C262.087 159.99 260.338 162.544 260.696 165.121C254.274 163.153 247.388 167.083 243.975 172.039C239.932 177.937 239.271 185.326 239.164 191.103C238.875 204.771 241.695 215.952 247.525 224.344C247.95 224.953 248.057 226.222 248.9 226.648L248.725 226.366C249.668 226.838 250.625 227.598 250.268 228.411C249.242 230.752 256.06 235.929 260.863 237.639C269.626 240.764 281.277 240.498 289.47 239.373L289.759 237.434C292.715 237.031 294.798 236.264 295.383 235.063C296.417 234.181 297.298 233.39 298.066 232.66L298.074 232.653C298.089 232.638 298.119 232.615 298.134 232.6C301.836 229.05 302.694 227.028 303.082 223.949C303.454 220.931 302.793 217.868 302.117 215.109C316.36 217.313 296.508 199.936 309.778 196.576C309.93 196.529 310.085 196.491 310.241 196.462C310.629 196.371 311.017 196.28 311.389 196.173C313.184 195.686 314.903 194.952 316.496 193.992C320.205 191.734 321.429 188.739 323.344 185.364C323.621 184.884 323.736 184.327 323.675 183.776C323.613 183.225 323.378 182.709 323.002 182.301V182.301Z" fill="#2F2E41"/>
<path id="Vector_101" d="M397.005 353.607C396.998 354.938 396.983 356.8 396.922 359.103C396.914 359.423 396.907 359.749 396.899 360.084C396.8 364.318 396.701 367.868 396.542 371.813C396.534 372.087 396.527 372.353 396.511 372.626C396.299 378.13 395.964 384.538 395.387 394.686C394.315 413.431 392.445 397.263 390.568 403.838C390.477 404.165 390.378 404.553 390.287 405.009C390.003 406.663 389.523 408.279 388.858 409.82C387.862 410.413 386.836 410.983 385.826 411.553C382.945 413.157 380.019 414.7 377.07 416.168C375.413 416.989 373.749 417.794 372.077 418.57C371.811 418.691 371.552 418.813 371.294 418.927C362.732 422.888 353.907 426.256 344.883 429.006C343.12 429.539 341.364 430.055 339.586 430.534C337.731 431.051 335.877 431.538 334 431.994C320.035 435.423 305.744 437.357 291.37 437.763C289.432 437.824 287.479 437.847 285.518 437.847C284.545 437.847 283.588 437.839 282.615 437.832C282.318 437.832 282.022 437.824 281.725 437.817C280.867 437.794 279.977 437.779 279.081 437.756C261.736 437.215 244.533 434.448 227.893 429.523L227.186 429.318C226.092 428.984 225.005 428.657 223.918 428.307C218.902 426.718 213.959 424.94 209.09 422.971C205.374 421.473 201.7 419.867 198.07 418.152C198.037 418.143 198.006 418.127 197.979 418.106C197.219 417.756 196.451 417.391 195.691 417.019C195.592 416.966 195.486 416.913 195.379 416.859C192.545 415.476 189.74 414.027 186.966 412.511C184.633 407.152 181.349 406.126 179.313 401.413C178.72 400.013 178.291 398.549 178.036 397.05C178.036 397.035 178.028 397.019 178.028 396.997C178.241 399.824 177.124 391.98 178.021 396.966C178.013 396.875 178.005 396.776 177.998 396.662C177.975 396.389 177.945 396.054 177.899 395.636C175.292 370.179 175.459 341.065 174.327 317.075C174.251 315.524 174.172 314.039 174.091 312.62C174.068 312.149 174.038 311.685 174.008 311.229C174.061 311.092 174.122 310.948 174.19 310.811C174.205 310.772 174.222 310.734 174.243 310.697C174.266 310.65 174.291 310.604 174.319 310.56C174.334 310.538 174.357 310.507 174.372 310.484C174.384 310.458 174.396 310.433 174.41 310.408C174.479 310.302 174.555 310.188 174.638 310.081C174.676 310.036 174.707 309.998 174.745 309.96C174.771 309.921 174.802 309.885 174.836 309.853C174.859 309.817 174.888 309.784 174.92 309.755C174.95 309.724 174.98 309.686 175.018 309.648C175.035 309.624 175.055 309.604 175.079 309.587C175.139 309.518 175.206 309.455 175.277 309.397C175.548 309.148 175.838 308.919 176.143 308.713C176.25 308.645 176.364 308.576 176.47 308.5C177.236 308.042 178.043 307.655 178.879 307.345C179.168 307.239 179.457 307.14 179.769 307.033C179.883 307.003 179.989 306.965 180.103 306.927C180.27 306.874 180.437 306.82 180.612 306.782C181.479 306.524 182.413 306.304 183.424 306.098C183.546 306.075 183.675 306.053 183.804 306.022C183.987 305.984 184.177 305.954 184.367 305.923C184.625 305.878 184.891 305.832 185.157 305.787C187.414 305.429 189.976 305.163 192.803 304.989C193.069 304.973 193.335 304.958 193.601 304.943C193.913 304.928 194.224 304.912 194.543 304.897C194.809 304.882 195.083 304.874 195.357 304.867C195.623 304.852 195.896 304.844 196.177 304.836C196.945 304.814 197.736 304.791 198.541 304.776C200.836 304.73 203.253 304.745 205.792 304.798C206.97 304.829 208.171 304.859 209.402 304.912C209.486 304.912 209.561 304.92 209.637 304.92C210.709 304.958 211.788 305.004 212.898 305.064C213.673 305.103 214.456 305.141 215.239 305.186C215.976 305.232 216.721 305.277 217.473 305.331C218.058 305.361 218.644 305.407 219.236 305.445C219.738 305.483 220.24 305.521 220.741 305.551L221.425 305.597C221.798 305.627 222.17 305.65 222.55 305.688C223.386 305.756 224.222 305.825 225.073 305.893C225.917 305.969 226.776 306.045 227.635 306.121C228.494 306.197 229.36 306.281 230.226 306.364C230.318 306.372 230.401 306.38 230.485 306.387C231.275 306.471 232.066 306.547 232.864 306.63C233.046 306.646 233.236 306.661 233.418 306.684C234.179 306.76 234.955 306.85 235.723 306.931C235.959 306.957 236.193 306.981 236.429 307.007C237.031 307.073 237.624 307.129 238.229 307.201C239.027 307.292 239.841 307.375 240.631 307.482C241.247 307.55 241.862 307.619 242.478 307.695C243.443 307.809 244.424 307.93 245.404 308.059C245.776 308.105 246.149 308.151 246.521 308.204C249.318 308.554 252.145 308.941 255.018 309.344C259.373 309.96 263.796 310.629 268.25 311.351C272.712 312.073 277.198 312.836 281.71 313.639C282.85 313.844 283.99 314.049 285.138 314.262C285.655 314.361 286.172 314.46 286.688 314.559C287.57 314.718 288.452 314.886 289.333 315.053C290.215 315.22 291.096 315.387 291.978 315.562C293.027 315.767 294.083 315.973 295.132 316.178C302.041 317.546 308.911 319.006 315.615 320.533C316.717 320.784 317.819 321.043 318.913 321.294C321.102 321.803 323.271 322.32 325.419 322.844C326.012 322.981 326.597 323.126 327.182 323.27C328.642 323.635 330.101 324 331.537 324.372L331.788 324.441C332.844 324.699 333.878 324.965 334.912 325.239C337.351 325.877 339.75 326.523 342.109 327.177C343.675 327.61 345.223 328.049 346.753 328.492C349.04 329.154 351.283 329.822 353.464 330.499C354.003 330.666 354.543 330.833 355.075 330.993C356.671 331.487 358.244 331.989 359.772 332.491C360.988 332.886 362.174 333.289 363.344 333.692C364.515 334.094 365.662 334.497 366.787 334.9C367.509 335.159 368.223 335.432 368.938 335.691C369.964 336.071 370.975 336.451 371.963 336.831C372.267 336.945 372.563 337.067 372.86 337.181C373.05 337.264 373.232 337.333 373.414 337.409C373.772 337.553 374.136 337.69 374.486 337.834C374.843 337.971 375.193 338.116 375.542 338.268C375.884 338.405 376.234 338.549 376.568 338.693C376.91 338.83 377.245 338.975 377.579 339.127C377.861 339.241 378.134 339.362 378.4 339.484C378.94 339.72 379.479 339.955 380.004 340.198C380.262 340.32 380.521 340.434 380.779 340.556L381.372 340.829C381.455 340.875 381.539 340.913 381.623 340.951C381.813 341.042 382.01 341.141 382.2 341.232C382.641 341.438 383.074 341.658 383.5 341.863C384.07 342.152 384.625 342.441 385.157 342.722C385.696 343.011 386.221 343.3 386.722 343.581C386.806 343.627 386.882 343.672 386.966 343.718C387.08 343.779 387.194 343.847 387.308 343.908C387.695 344.128 388.068 344.356 388.44 344.577C389.17 345.025 389.861 345.466 390.507 345.907C390.652 346.006 390.788 346.105 390.933 346.196C391.412 346.538 391.868 346.873 392.293 347.215C392.293 347.222 392.293 347.222 392.301 347.222C392.445 347.329 392.582 347.443 392.719 347.549C392.833 347.655 392.954 347.747 393.068 347.853C393.464 348.195 393.829 348.522 394.163 348.856C394.275 348.96 394.382 349.069 394.482 349.183C394.526 349.22 394.567 349.261 394.604 349.305C394.756 349.457 394.893 349.609 395.022 349.761C395.042 349.782 395.06 349.805 395.075 349.829C395.257 350.042 395.425 350.255 395.584 350.468C395.66 350.574 395.744 350.681 395.812 350.787C395.903 350.917 395.995 351.053 396.071 351.183C396.139 351.289 396.2 351.403 396.261 351.509C396.422 351.783 396.559 352.071 396.671 352.368C396.756 352.57 396.825 352.779 396.876 352.992C396.934 353.194 396.977 353.399 397.005 353.607V353.607Z" fill="#2F2E41"/>
<path id="Vector_102" opacity="0.2" d="M397.005 353.607C396.998 354.938 396.983 356.8 396.922 359.103C396.914 359.423 396.899 359.749 396.891 360.084C396.815 363.315 396.701 367.305 396.542 371.813C396.534 372.087 396.527 372.353 396.511 372.626C396.299 378.13 395.964 384.538 395.387 394.686C394.315 413.431 392.445 397.263 390.568 403.838C385.354 400.63 379.639 397.27 373.528 393.819C372.426 393.196 371.314 392.57 370.192 391.942C357.971 385.123 344.321 377.978 330.07 370.901C329.508 370.62 328.938 370.338 328.376 370.065C295.733 353.927 260.103 338.23 231.237 327.755C225.666 325.733 220.346 323.909 215.345 322.305C204.811 318.937 195.706 316.581 188.699 315.562C181.403 314.498 176.364 314.878 174.327 317.075C174.251 315.524 174.172 314.039 174.091 312.62C174.061 312.149 174.03 311.685 174 311.229C174.047 311.104 174.108 310.985 174.167 310.864C174.175 310.847 174.181 310.829 174.19 310.811C174.205 310.772 174.222 310.734 174.243 310.697C174.266 310.65 174.291 310.604 174.319 310.56C174.344 310.506 174.375 310.455 174.41 310.408C174.479 310.302 174.555 310.188 174.638 310.081C174.7 310.002 174.766 309.926 174.836 309.853C174.859 309.817 174.887 309.784 174.92 309.755C174.95 309.724 174.98 309.686 175.018 309.648C175.035 309.624 175.055 309.604 175.079 309.587C175.139 309.518 175.205 309.455 175.277 309.397C175.548 309.148 175.838 308.919 176.143 308.713C176.25 308.645 176.364 308.576 176.47 308.5C177.236 308.042 178.043 307.655 178.879 307.345C179.168 307.238 179.457 307.14 179.769 307.033C179.883 307.003 179.989 306.965 180.103 306.927C180.27 306.874 180.437 306.82 180.612 306.782C181.479 306.524 182.413 306.304 183.424 306.098C183.728 306.037 184.047 305.977 184.367 305.923C184.625 305.878 184.891 305.832 185.157 305.787C187.414 305.429 189.976 305.163 192.803 304.988C193.069 304.973 193.335 304.958 193.601 304.943C193.913 304.928 194.224 304.912 194.543 304.897C194.809 304.882 195.083 304.874 195.357 304.867C195.623 304.852 195.896 304.844 196.177 304.836C196.945 304.814 197.735 304.791 198.541 304.776C200.836 304.738 203.253 304.753 205.792 304.806C206.97 304.829 208.171 304.867 209.402 304.92C209.478 304.92 209.561 304.928 209.637 304.928C210.709 304.958 211.796 305.011 212.898 305.064C213.673 305.102 214.456 305.14 215.239 305.186C215.976 305.232 216.721 305.277 217.473 305.331C218.058 305.361 218.644 305.407 219.236 305.445C219.738 305.483 220.24 305.521 220.741 305.551C221.342 305.597 221.942 305.642 222.55 305.688C223.386 305.756 224.222 305.825 225.073 305.893C225.917 305.969 226.776 306.045 227.635 306.121C228.494 306.197 229.36 306.281 230.226 306.364C230.318 306.372 230.401 306.38 230.485 306.387C231.275 306.471 232.066 306.547 232.864 306.63C237.287 307.079 241.839 307.603 246.521 308.204C249.318 308.561 252.15 308.944 255.018 309.352C259.373 309.967 263.797 310.636 268.25 311.351C272.712 312.073 277.198 312.836 281.71 313.639C282.85 313.844 283.99 314.049 285.138 314.262C286.536 314.521 287.935 314.784 289.333 315.053C290.215 315.22 291.096 315.387 291.978 315.562C293.027 315.767 294.083 315.973 295.132 316.178C302.041 317.546 308.911 319.006 315.615 320.533C316.717 320.784 317.819 321.043 318.913 321.294C321.102 321.803 323.271 322.32 325.419 322.844C326.012 322.989 326.597 323.133 327.182 323.278C328.649 323.642 330.101 324.007 331.537 324.372V324.38C331.621 324.395 331.704 324.418 331.788 324.441C332.837 324.707 333.878 324.973 334.912 325.246C337.351 325.885 339.751 326.528 342.109 327.177C343.675 327.618 345.225 328.051 346.753 328.492C349.04 329.161 351.283 329.83 353.464 330.499C354.003 330.666 354.543 330.833 355.075 330.993C356.671 331.495 358.237 331.994 359.772 332.491C360.988 332.886 362.174 333.289 363.344 333.692C364.515 334.094 365.662 334.497 366.787 334.9C367.517 335.159 368.231 335.425 368.938 335.683C369.971 336.063 370.975 336.443 371.963 336.831C372.267 336.945 372.563 337.067 372.86 337.181C373.414 337.394 373.954 337.614 374.486 337.834C374.843 337.971 375.193 338.116 375.542 338.268C375.884 338.405 376.234 338.549 376.568 338.693C376.91 338.83 377.245 338.975 377.579 339.127C377.861 339.241 378.134 339.362 378.4 339.484C378.94 339.72 379.479 339.955 380.004 340.198C380.262 340.32 380.521 340.434 380.779 340.556L381.372 340.829C381.455 340.875 381.539 340.913 381.623 340.951C382.269 341.255 382.892 341.559 383.5 341.863C384.07 342.152 384.625 342.441 385.157 342.722C385.788 343.057 386.388 343.383 386.966 343.718C387.08 343.779 387.194 343.847 387.308 343.908C387.695 344.128 388.068 344.356 388.44 344.577C389.17 345.025 389.861 345.466 390.507 345.907C391.146 346.348 391.738 346.781 392.293 347.215C392.293 347.222 392.293 347.222 392.301 347.222C392.567 347.435 392.825 347.648 393.069 347.853C393.464 348.195 393.829 348.522 394.163 348.856C394.275 348.96 394.382 349.069 394.482 349.183C394.526 349.22 394.567 349.261 394.604 349.305C394.763 349.48 394.923 349.655 395.075 349.829C395.257 350.042 395.425 350.255 395.584 350.468C395.66 350.574 395.744 350.681 395.812 350.787C395.903 350.916 395.995 351.053 396.071 351.183C396.139 351.289 396.2 351.403 396.261 351.509C396.422 351.783 396.559 352.071 396.671 352.368C396.754 352.571 396.823 352.779 396.876 352.992C396.934 353.194 396.977 353.399 397.005 353.607V353.607Z" fill="black"/>
</g>
</g>
</g>
</g>
<defs>
<clipPath id="clip0_0_1">
<rect width="598" height="435" fill="white"/>
</clipPath>
</defs>
</svg>
