<svg width="636" height="387" viewBox="0 0 636 387" fill="none" xmlns="http://www.w3.org/2000/svg">
<g id="machine_learning 1" clip-path="url(#clip0_1_3)">
<g id="bot_charger">
<path id="Vector" d="M777.439 180.523C781.652 183.96 782.935 189.376 782.151 194.606C781.189 200.342 778.212 205.547 773.757 209.287C768.748 213.739 762.638 216.748 756.743 219.828C751.326 222.593 746.12 225.753 741.168 229.283C722.207 243.064 707.883 262.686 699.684 284.583C691.5 306.443 689.304 331.255 695.523 353.91C698.6 365.119 704.825 377.213 716.421 381.431C725.665 384.793 738.285 382.627 742.992 373.101C748.048 362.867 740.994 351.363 731.907 346.283C720.129 339.697 706.06 344.51 695.466 351.176C683.803 358.515 674.428 369.046 662.251 375.624C656.77 378.678 650.671 380.458 644.407 380.829C638.655 381.056 632.914 380.169 627.498 378.217C616.262 374.123 606.59 366.615 599.837 356.746C592.102 345.503 588.64 331.721 588.009 318.221C586.596 288.015 598.529 259.756 608.103 231.743C613.248 217.156 617.103 202.145 619.622 186.884C622.018 171.545 622.87 156.004 622.167 140.495C621.534 126.782 620.181 112.441 614.128 99.9164C608.806 88.9031 599.079 79.8893 586.782 77.6168C581.239 76.5288 575.494 77.1886 570.342 79.5051C568.588 80.3054 570.111 82.8917 571.856 82.0955C582.739 77.131 595.602 81.9614 603.64 89.9774C613.027 99.3379 616.474 113.161 618.004 125.916C621.444 156.144 618.733 186.756 610.036 215.909C601.689 244.261 588.56 271.43 585.531 301.135C584.148 314.689 584.858 328.702 589.191 341.7C592.908 353.277 599.878 363.541 609.269 371.265C618.111 378.414 628.989 383.284 640.44 383.826C653.294 384.435 664.567 378.705 674.54 371.082C685.221 362.917 695.048 352.843 707.987 348.265C713.885 346.178 720.604 345.204 726.66 347.213C731.856 348.988 736.263 352.532 739.112 357.225C741.743 361.599 742.713 367.067 740.313 371.766C738.056 376.184 733.651 378.739 728.882 379.613C723.832 380.507 718.629 379.623 714.158 377.112C708.934 374.128 705.111 369.121 702.433 363.831C697.093 353.281 695.299 340.723 695.026 329.014C694.788 317.576 696.253 306.167 699.375 295.161C705.585 272.897 718.122 252.913 735.464 237.632C739.833 233.826 744.506 230.385 749.438 227.343C754.818 224.027 760.561 221.377 766.045 218.248C771.442 215.17 776.761 211.491 780.477 206.425C783.645 202.083 785.356 196.849 785.364 191.474C785.421 189.002 784.93 186.548 783.926 184.288C782.923 182.028 781.432 180.018 779.561 178.402C778.077 177.192 775.942 179.302 777.439 180.523Z" fill="#CCCCCC"/>
</g>
<g id="bot_head">
<path id="Vector_2" d="M549.596 55.1099C548.846 54.9999 548.086 54.9299 547.326 54.8799C555.962 74.7828 556.561 97.2556 548.996 117.59C549.757 117.5 550.507 117.38 551.257 117.24C558.58 115.821 565.162 111.849 569.832 106.032C574.501 100.214 576.954 92.9284 576.755 85.4714C576.556 78.0144 573.717 70.8701 568.743 65.3103C563.77 59.7504 556.985 56.1358 549.596 55.1099Z" fill="#3F3D56"/>
<path id="Vector_3" d="M393.206 54.8799C392.446 54.9299 391.686 54.9999 390.936 55.1099C383.547 56.1358 376.762 59.7504 371.789 65.3103C366.816 70.8701 363.977 78.0144 363.778 85.4714C363.578 92.9284 366.032 100.214 370.701 106.032C375.37 111.849 381.953 115.821 389.276 117.24C390.026 117.38 390.776 117.5 391.536 117.59C383.972 97.2556 384.57 74.7828 393.206 54.8799Z" fill="#3F3D56"/>
<path id="Vector_4" d="M549.596 55.1099C541.358 35.4298 526.098 19.5146 506.782 10.4562C487.466 1.39779 465.472 -0.156974 445.073 6.09394C424.675 12.3449 407.328 25.9551 396.403 44.2806C385.478 62.6061 381.755 84.3383 385.957 105.255C390.16 126.172 401.987 144.78 419.142 157.464C436.297 170.149 457.554 176.003 478.784 173.891C500.014 171.779 519.701 161.85 534.02 146.034C548.339 130.219 556.268 109.645 556.266 88.3099C556.262 76.9109 553.995 65.6261 549.596 55.1099ZM548.996 117.59C541.681 137.254 527.271 153.467 508.601 163.04C489.931 172.612 468.355 174.849 448.119 169.312C427.882 163.774 410.451 150.862 399.257 133.117C388.063 115.373 383.916 94.081 387.632 73.4324C391.349 52.7837 402.66 34.2739 419.338 21.5462C436.017 8.81849 456.856 2.79472 477.754 4.6605C498.651 6.52627 518.093 16.1464 532.253 31.6276C546.414 47.1087 554.266 67.3294 554.266 88.3099C554.263 98.3055 552.479 108.221 548.996 117.59Z" fill="#3F3D56"/>
<path id="Vector_5" d="M514.266 68.8099H426.266C421.625 68.8099 417.174 70.6537 413.892 73.9356C410.61 77.2174 408.766 81.6686 408.766 86.3099C408.766 90.9512 410.61 95.4024 413.892 98.6843C417.174 101.966 421.625 103.81 426.266 103.81H514.266C518.908 103.81 523.359 101.966 526.641 98.6843C529.922 95.4024 531.766 90.9512 531.766 86.3099C531.766 81.6686 529.922 77.2174 526.641 73.9356C523.359 70.6537 518.908 68.8099 514.266 68.8099Z" fill="#3F3D56"/>
</g>
<g id="bot_body">
<path id="Vector_6" d="M422.686 355.31C435.973 363.899 451.344 368.717 467.156 369.25C466.874 369.919 466.557 370.574 466.206 371.21C464.366 374.608 461.765 377.534 458.606 379.76C454.866 382.392 450.476 383.946 445.913 384.254C441.35 384.561 436.791 383.609 432.732 381.502C428.673 379.395 425.271 376.215 422.896 372.306C420.522 368.398 419.266 363.913 419.266 359.34V355.31H422.686Z" fill="#3F3D56"/>
<path id="Vector_7" d="M515.956 356.49V359.34C515.958 364.888 514.112 370.279 510.708 374.661C507.304 379.043 502.538 382.166 497.161 383.537C491.784 384.907 486.105 384.447 481.019 382.229C475.933 380.011 471.731 376.162 469.076 371.29C468.71 370.638 468.38 369.967 468.086 369.28C468.816 369.3 469.536 369.31 470.266 369.31C486.387 369.329 502.199 364.892 515.956 356.49Z" fill="#3F3D56"/>
<path id="Vector_8" d="M470.266 191.31C446.756 191.321 424.184 200.531 407.377 216.97C390.571 233.409 380.864 255.772 380.333 279.276C379.803 302.78 388.491 325.558 404.539 342.739C420.587 359.92 442.721 370.139 466.206 371.21C467.156 371.26 468.116 371.29 469.076 371.29C469.476 371.31 469.866 371.31 470.266 371.31C494.136 371.31 517.028 361.828 533.906 344.95C550.784 328.071 560.266 305.179 560.266 281.31C560.266 257.44 550.784 234.549 533.906 217.67C517.028 200.792 494.136 191.31 470.266 191.31ZM515.956 356.49C502.199 364.892 486.387 369.329 470.266 369.31C469.536 369.31 468.816 369.3 468.086 369.28C467.776 369.28 467.466 369.27 467.156 369.25C446.025 368.515 425.863 360.201 410.356 345.827C394.849 331.452 385.033 311.978 382.701 290.962C380.369 269.946 385.678 248.794 397.656 231.369C409.635 213.945 427.484 201.414 447.941 196.065C468.397 190.716 490.096 192.907 509.07 202.237C528.045 211.568 543.028 227.415 551.281 246.882C559.535 266.349 560.507 288.136 554.021 308.262C547.535 328.387 534.024 345.506 515.956 356.49Z" fill="#3F3D56"/>
<path id="Vector_9" d="M533.433 259.143H494.1C491.359 259.143 488.731 258.055 486.793 256.117C484.855 254.179 483.766 251.551 483.766 248.81C483.766 246.069 484.855 243.441 486.793 241.503C488.731 239.565 491.359 238.476 494.1 238.476H533.433C536.174 238.476 538.802 239.565 540.74 241.503C542.678 243.441 543.767 246.069 543.767 248.81C543.767 251.551 542.678 254.179 540.74 256.117C538.802 258.055 536.174 259.143 533.433 259.143Z" fill="#3F3D56"/>
<path id="Vector_10" d="M496.722 254.054C499.618 254.054 501.966 251.706 501.966 248.81C501.966 245.913 499.618 243.565 496.722 243.565C493.825 243.565 491.477 245.913 491.477 248.81C491.477 251.706 493.825 254.054 496.722 254.054Z" fill="#F2F2F2"/>
<path id="Vector_11" d="M513.766 254.054C516.663 254.054 519.011 251.706 519.011 248.81C519.011 245.913 516.663 243.565 513.766 243.565C510.87 243.565 508.522 245.913 508.522 248.81C508.522 251.706 510.87 254.054 513.766 254.054Z" fill="#F2F2F2"/>
<path id="Vector_12" d="M530.811 254.054C533.707 254.054 536.055 251.706 536.055 248.81C536.055 245.913 533.707 243.565 530.811 243.565C527.914 243.565 525.566 245.913 525.566 248.81C525.566 251.706 527.914 254.054 530.811 254.054Z" fill="white"/>
</g>
<path id="Vector_13" d="M30.8991 253.992C47.0603 267.156 61.8865 281.878 75.1632 297.946C88.442 313.998 100.133 331.3 110.071 349.609C115.626 359.88 120.616 370.446 125.019 381.26C125.917 383.46 122.344 384.418 121.457 382.242C113.658 363.176 104.009 344.921 92.6488 327.737C81.3438 310.615 68.4046 294.631 54.013 280.008C45.873 271.741 37.2847 263.928 28.2869 256.604C26.4426 255.103 29.07 252.503 30.8991 253.992Z" fill="white"/>
<g id="girl">
<path id="Vector_14" d="M161.576 66C178.697 66 192.576 52.1208 192.576 35C192.576 17.8792 178.697 4 161.576 4C144.456 4 130.576 17.8792 130.576 35C130.576 52.1208 144.456 66 161.576 66Z" fill="#2F2E41"/>
<path id="Vector_15" d="M202.092 374.133H214.351L220.184 326.845L202.089 326.846L202.092 374.133Z" fill="#FFB8B8"/>
<path id="Vector_16" d="M237.996 385.516L199.465 385.518L199.464 370.631L223.108 370.63C227.056 370.629 230.843 372.198 233.635 374.989C236.427 377.781 237.995 381.568 237.996 385.516Z" fill="#2F2E41"/>
<path id="Vector_17" d="M92.822 362.185L104.292 366.515L126.454 324.337L109.526 317.946L92.822 362.185Z" fill="#FFB8B8"/>
<path id="Vector_18" d="M122.39 385.517L86.3432 371.907L91.6018 357.98L113.721 366.332C117.415 367.726 120.404 370.531 122.029 374.129C123.655 377.727 123.785 381.824 122.39 385.517Z" fill="#2F2E41"/>
<path id="Vector_19" d="M153.061 123.094L136.475 108.55C135.579 107.762 135.032 106.652 134.954 105.461C134.876 104.271 135.273 103.098 136.059 102.2L154.916 80.6947C156.936 78.3912 159.737 76.917 162.779 76.5565C165.822 76.1959 168.89 76.9746 171.392 78.7423C173.894 80.51 175.653 83.1415 176.33 86.1295C177.007 89.1174 176.554 92.2502 175.058 94.9237L159.955 121.908C159.628 122.493 159.174 122.998 158.626 123.385C158.079 123.772 157.452 124.032 156.791 124.145C156.13 124.259 155.453 124.224 154.807 124.042C154.162 123.86 153.566 123.536 153.061 123.094Z" fill="#2F2E41"/>
<path id="Vector_20" d="M279.266 164.31C285.341 164.31 290.266 159.385 290.266 153.31C290.266 147.235 285.341 142.31 279.266 142.31C273.191 142.31 268.266 147.235 268.266 153.31C268.266 159.385 273.191 164.31 279.266 164.31Z" fill="white"/>
<path id="Vector_21" d="M277.194 148.511C276.599 149.405 275.875 150.204 275.045 150.884C273.849 151.87 272.458 152.592 270.963 153.003C269.469 153.414 267.904 153.505 266.372 153.269C264.84 153.033 263.375 152.476 262.073 151.635C260.771 150.793 259.662 149.686 258.818 148.386C258.622 148.083 258.443 147.77 258.281 147.449L209.431 142.735C205.576 142.349 201.948 140.729 199.086 138.117C196.224 135.505 194.28 132.04 193.544 128.236L190.771 113.619L209.836 110.653L213.257 122.361L260.885 134.06C261.254 133.737 261.645 133.439 262.055 133.17C264.18 131.792 266.715 131.188 269.233 131.462C271.751 131.735 274.097 132.869 275.876 134.672C277.655 136.474 278.758 138.836 278.998 141.357C279.238 143.878 278.6 146.405 277.194 148.511Z" fill="#FFB8B8"/>
<path id="Vector_22" d="M214.428 120.594L193.132 126.347C191.98 126.657 190.752 126.497 189.717 125.902C188.683 125.308 187.926 124.328 187.614 123.176L180.155 95.5642C179.356 92.6066 179.68 89.4578 181.065 86.7251C182.45 83.9924 184.798 81.8693 187.656 80.7651C190.514 79.661 193.679 79.654 196.542 80.7456C199.405 81.8371 201.762 83.9499 203.159 86.6765L217.259 114.198C217.565 114.794 217.734 115.452 217.753 116.122C217.772 116.792 217.641 117.458 217.369 118.071C217.098 118.684 216.693 119.229 216.184 119.666C215.675 120.102 215.075 120.419 214.428 120.594Z" fill="#2F2E41"/>
<path id="Vector_23" d="M201.705 363.149C200.754 363.149 199.829 362.847 199.061 362.287C198.292 361.728 197.721 360.939 197.429 360.035L166.16 263.471C166.068 263.184 165.891 262.933 165.654 262.748C165.416 262.564 165.128 262.455 164.828 262.436C164.528 262.417 164.229 262.488 163.97 262.641C163.711 262.794 163.504 263.022 163.376 263.294L120.041 355.495C119.572 356.492 118.753 357.282 117.741 357.716C116.728 358.15 115.591 358.198 114.546 357.851L97.4789 352.161C96.3949 351.798 95.4894 351.036 94.9459 350.03C94.4023 349.024 94.2612 347.849 94.5511 346.743L121.096 246.196C123.873 235.546 125.879 224.709 127.099 213.769C128.96 195.756 137.406 179.063 150.816 166.893C156.671 161.528 160.477 154.293 161.582 146.43L161.653 145.927L200.527 152.064L225.15 352.993C225.278 354.068 225.015 355.153 224.41 356.051C223.805 356.948 222.898 357.599 221.854 357.885L202.88 362.993C202.497 363.097 202.102 363.15 201.705 363.149Z" fill="#2F2E41"/>
<path id="Vector_24" d="M173.891 65.8524C187.456 65.8524 198.452 54.856 198.452 41.2913C198.452 27.7267 187.456 16.7303 173.891 16.7303C160.327 16.7303 149.33 27.7267 149.33 41.2913C149.33 54.856 160.327 65.8524 173.891 65.8524Z" fill="#FFB8B8"/>
<path id="Vector_25" d="M198.111 156.349C198.034 156.349 197.957 156.347 197.88 156.343L159.344 154.416C158.268 154.367 157.246 153.933 156.465 153.192C155.684 152.45 155.197 151.452 155.092 150.381L149.827 99.0527C149.442 95.2939 149.982 91.4978 151.399 87.9953C152.817 84.4928 155.07 81.3901 157.961 78.9576C160.853 76.5252 164.295 74.8367 167.988 74.0393C171.682 73.2419 175.514 73.3598 179.152 74.3828C182.165 75.2081 184.974 76.6528 187.397 78.6245C214.506 100.887 205.765 141.223 202.44 153.055C202.18 154.002 201.615 154.838 200.832 155.433C200.05 156.029 199.094 156.35 198.111 156.349Z" fill="white"/>
<path id="Vector_26" d="M164.586 190.814C163.513 190.815 162.446 190.655 161.421 190.34C159.937 189.89 158.565 189.132 157.395 188.116C156.225 187.099 155.283 185.847 154.631 184.44C153.978 183.034 153.631 181.506 153.61 179.956C153.589 178.406 153.897 176.869 154.512 175.446C154.655 175.116 154.817 174.793 154.995 174.479L131.859 131.198C130.046 127.774 129.385 123.857 129.974 120.027C130.563 116.197 132.372 112.66 135.131 109.939L145.765 99.5342L158.794 113.764L150.941 123.098L167.584 169.231C168.057 169.359 168.522 169.52 168.973 169.713C171.298 170.718 173.205 172.494 174.372 174.742C175.539 176.99 175.894 179.572 175.379 182.051C174.863 184.531 173.508 186.757 171.542 188.353C169.576 189.95 167.119 190.819 164.586 190.814Z" fill="#FFB8B8"/>
<path id="Vector_27" d="M158.086 65.1493C160.327 65.9439 163.075 66.6445 164.838 64.9965C166.56 63.3876 166.246 60.4455 165.232 58.278C164.218 56.1105 162.645 54.1817 162.163 51.8225C161.471 48.4414 163.258 44.9287 165.809 42.7244C168.36 40.52 171.571 39.3621 174.706 38.2478L191.899 32.136C196.155 30.6232 200.741 28.846 203.122 24.8648C206.568 19.1042 203.418 10.8698 197.765 7.50834C192.113 4.14691 184.973 4.77313 178.875 7.13673C175.502 8.44399 172.293 10.2454 168.805 11.1656C161.921 12.9818 154.093 11.3525 148.043 15.2341C142.777 18.613 140.335 25.5075 140.512 31.9584C140.689 38.4094 143.065 44.5529 145.57 50.4526C147.06 53.9626 148.653 57.5129 151.177 60.3046C153.702 63.0962 157.35 65.0491 160.994 64.5355L158.086 65.1493Z" fill="#2F2E41"/>
<path id="Vector_28" d="M135.576 40C146.622 40 155.576 31.0457 155.576 20C155.576 8.9543 146.622 0 135.576 0C124.531 0 115.576 8.9543 115.576 20C115.576 31.0457 124.531 40 135.576 40Z" fill="#2F2E41"/>
<g id="phone">
<path id="Path 22" d="M297.788 135.45L297.433 135.402L298.77 125.679C298.975 124.186 298.579 122.674 297.669 121.473C296.758 120.273 295.408 119.483 293.916 119.278L273.316 116.446C271.824 116.241 270.311 116.637 269.111 117.547C267.91 118.458 267.121 119.808 266.915 121.3L259.583 174.641C259.378 176.133 259.774 177.646 260.684 178.846C261.595 180.047 262.944 180.836 264.437 181.042L285.036 183.873C286.529 184.078 288.042 183.682 289.242 182.772C290.443 181.862 291.232 180.512 291.437 179.019L296.482 142.322L296.837 142.371L297.788 135.45Z" fill="#3F3D56"/>
<path id="Path 23" d="M293.268 122.13L290.704 121.778C290.782 122.083 290.784 122.403 290.709 122.709C290.635 123.016 290.486 123.299 290.276 123.534C290.066 123.769 289.802 123.95 289.506 124.058C289.21 124.167 288.892 124.202 288.58 124.159L277.323 122.612C277.011 122.569 276.714 122.45 276.459 122.265C276.203 122.08 275.997 121.835 275.859 121.552C275.72 121.269 275.653 120.956 275.664 120.641C275.675 120.326 275.763 120.019 275.921 119.746L273.525 119.416C272.999 119.344 272.463 119.376 271.949 119.511C271.435 119.645 270.953 119.88 270.529 120.201C270.106 120.522 269.75 120.923 269.482 121.382C269.213 121.84 269.038 122.347 268.966 122.874L261.982 173.678C261.836 174.741 262.118 175.819 262.766 176.674C263.415 177.529 264.376 178.091 265.439 178.238L285.183 180.952C286.246 181.098 287.323 180.816 288.178 180.167C289.033 179.519 289.596 178.557 289.742 177.494L296.726 126.69C296.872 125.627 296.59 124.549 295.941 123.694C295.293 122.839 294.332 122.276 293.268 122.13Z" fill="white"/>
</g>
</g>
<path id="Vector_29" d="M278.176 157.506C277.928 157.507 277.687 157.427 277.489 157.278L277.477 157.269L274.892 155.29C274.772 155.198 274.671 155.084 274.594 154.953C274.518 154.823 274.469 154.678 274.449 154.528C274.429 154.378 274.438 154.226 274.477 154.08C274.516 153.934 274.583 153.797 274.675 153.677C274.767 153.557 274.882 153.456 275.013 153.38C275.144 153.305 275.289 153.256 275.438 153.236C275.588 153.217 275.741 153.227 275.887 153.267C276.033 153.306 276.169 153.374 276.289 153.466L277.964 154.75L281.92 149.59C282.012 149.47 282.127 149.37 282.257 149.294C282.388 149.219 282.532 149.17 282.682 149.15C282.831 149.13 282.983 149.14 283.129 149.179C283.274 149.218 283.411 149.286 283.531 149.377C283.772 149.563 283.931 149.837 283.971 150.139C284.01 150.441 283.929 150.746 283.744 150.988L279.09 157.058C278.982 157.198 278.844 157.311 278.685 157.389C278.527 157.466 278.352 157.507 278.176 157.506Z" fill="white"/>
<path id="Vector_30" d="M846.429 386.288H7.13502C6.81982 386.287 6.51786 386.161 6.29531 385.938C6.07276 385.715 5.94777 385.413 5.94777 385.097C5.94777 384.782 6.07276 384.48 6.29531 384.257C6.51786 384.033 6.81982 383.908 7.13502 383.907H846.429C846.745 383.907 847.048 384.032 847.271 384.255C847.494 384.479 847.62 384.782 847.62 385.097C847.62 385.413 847.494 385.716 847.271 385.939C847.048 386.163 846.745 386.288 846.429 386.288Z" fill="#CCCCCC"/>
</g>
<defs>
<clipPath id="clip0_1_3">
<rect width="635.715" height="386.288" fill="white"/>
</clipPath>
</defs>
</svg>
