<svg width="231" height="295" viewBox="0 0 231 295" fill="none" xmlns="http://www.w3.org/2000/svg">
<g clip-path="url(#clip0_104_436)">
<path d="M16.3813 100.804L0.66009 91.7039C0.448027 81.9678 2.55177 72.3256 6.78864 63.6146C10.4132 80.5215 29.4883 88.5653 38.2893 103.327C40.9999 107.953 42.6629 113.146 43.1551 118.522C43.6472 123.898 42.9559 129.319 41.1324 134.383L42.1663 147.492C34.041 144.99 26.54 140.709 20.1799 134.942C13.8198 129.174 8.75185 122.059 5.32533 114.085C3.44617 109.592 2.12505 104.874 1.39312 100.041C8.72304 100.843 16.3813 100.804 16.3813 100.804Z" fill="#F2F2F2"/>
<path d="M207.927 91.3876L208.409 80.248C213.435 77.4874 219.04 76.0291 224.738 76C216.896 82.5894 217.876 95.2915 212.559 104.153C210.88 106.903 208.62 109.23 205.947 110.962C203.274 112.693 200.256 113.784 197.117 114.153L190.554 118.283C189.654 113.123 189.852 107.825 191.136 102.752C192.42 97.6786 194.759 92.9521 197.992 88.8975C199.827 86.6414 201.932 84.6318 204.256 82.9161C205.827 87.1754 207.927 91.3876 207.927 91.3876Z" fill="#F2F2F2"/>
<path d="M201.24 114.476H36.8822C34.3143 114.479 31.8525 115.529 30.0368 117.395C28.221 119.261 27.1997 121.791 27.1968 124.43V229.593C27.1997 232.231 28.221 234.762 30.0368 236.628C31.8525 238.494 34.3144 239.543 36.8822 239.546H201.24C203.808 239.543 206.27 238.494 208.086 236.628C209.902 234.762 210.923 232.232 210.926 229.593V124.43C210.923 121.791 209.902 119.261 208.086 117.395C206.27 115.529 203.808 114.479 201.24 114.476Z" fill="#64646D"/>
<path d="M201.24 114.476H36.8822C34.3143 114.479 31.8525 115.529 30.0368 117.395C28.221 119.261 27.1997 121.791 27.1968 124.43V229.593C27.1997 232.231 28.221 234.762 30.0368 236.628C31.8525 238.494 34.3144 239.543 36.8822 239.546H201.24C203.808 239.543 206.27 238.494 208.086 236.628C209.902 234.762 210.923 232.232 210.926 229.593V124.43C210.923 121.791 209.902 119.261 208.086 117.395C206.27 115.529 203.808 114.479 201.24 114.476ZM204.419 190.016C204.38 200.722 200.259 210.986 192.941 218.606C185.623 226.225 175.69 230.594 165.274 230.774C148.596 230.997 174.501 231.084 154.387 231.084C108.393 231.084 60.4346 230.633 42.5406 230.34C40.1863 230.29 37.9443 229.296 36.2932 227.571C34.6421 225.845 33.7128 223.525 33.7037 221.105V124.437C33.7047 123.571 34.0395 122.74 34.635 122.126C35.2306 121.513 36.0383 121.167 36.8815 121.164H201.234C202.077 121.165 202.885 121.509 203.482 122.121C204.079 122.732 204.416 123.562 204.419 124.429V190.016Z" fill="#3F3D56"/>
<path d="M181.008 53.9199H55.7844C54.6764 53.9215 53.596 54.2746 52.6905 54.9307C51.785 55.5869 51.0987 56.5143 50.7251 57.5863L31.3852 113.348C31.0966 114.181 31.0066 115.072 31.1228 115.948C31.239 116.823 31.558 117.657 32.053 118.38C32.548 119.102 33.2045 119.692 33.9673 120.099C34.7302 120.507 35.5771 120.72 36.4369 120.722L204.382 121.028H204.39C205.279 121.028 206.154 120.801 206.936 120.368C207.719 119.935 208.384 119.309 208.874 118.547C209.363 117.784 209.66 116.909 209.739 115.999C209.818 115.089 209.677 114.173 209.326 113.334L209.034 113.463L209.326 113.334L185.945 57.2653C185.531 56.2719 184.843 55.4252 183.965 54.8305C183.088 54.2357 182.059 53.9191 181.008 53.9199Z" fill="#3F3D56"/>
<path d="M209.761 114.545C209.761 115.292 209.613 116.032 209.327 116.72L185.946 159.88C185.53 160.871 184.841 161.715 183.963 162.309C183.086 162.903 182.059 163.22 181.008 163.221H55.7864C54.6781 163.22 53.5971 162.868 52.6908 162.212C51.7846 161.556 51.0974 160.629 50.7229 159.557L31.3866 116.705C31.1496 116.022 31.0458 115.298 31.0812 114.574C31.1166 113.85 31.2905 113.14 31.593 112.486C31.8954 111.831 32.3205 111.244 32.8438 110.758C33.3672 110.272 33.9786 109.897 34.6431 109.654C35.218 109.44 35.8245 109.331 36.4357 109.331L56.9509 109.291L65.3241 109.276L175.505 109.078L183.883 109.063L204.384 109.023H204.389C205.814 109.023 207.18 109.605 208.188 110.641C209.195 111.676 209.761 113.08 209.761 114.545Z" fill="#3F3D56"/>
<path d="M49.2037 193.36C51.6868 193.36 85.786 195.502 85.786 198.054C85.786 200.606 51.6868 202.602 49.2037 202.602C48.0112 202.602 46.8676 202.115 46.0244 201.248C45.1812 200.382 44.7075 199.206 44.7075 197.981C44.7075 196.755 45.1812 195.58 46.0244 194.714C46.8676 193.847 48.0112 193.36 49.2037 193.36Z" fill="#3F3D56"/>
<path d="M173.21 19.9972H67.6238C64.7941 20.0005 62.0813 21.1572 60.0804 23.2135C58.0795 25.2698 56.954 28.0578 56.9507 30.9659V163.221H181.008C182.027 163.225 183.025 162.926 183.883 162.362V30.9659C183.88 28.0578 182.754 25.2699 180.753 23.2135C178.752 21.1572 176.039 20.0005 173.21 19.9972Z" fill="#E6E6E6"/>
<path d="M132.909 28.8903H75.0453C72.4686 28.8929 69.9982 29.9456 68.1757 31.8176C66.3533 33.6895 65.3278 36.2279 65.324 38.8759V163.221H175.505V72.666C175.492 61.06 171 49.9333 163.014 41.7267C155.029 33.5201 144.202 28.9037 132.909 28.8903Z" fill="white"/>
<path d="M156.734 152.178H84.095C83.4671 152.178 82.865 152.434 82.421 152.891C81.977 153.347 81.7275 153.966 81.7275 154.611C81.7275 155.256 81.977 155.875 82.421 156.332C82.865 156.788 83.4671 157.044 84.095 157.044H156.734C157.362 157.044 157.964 156.788 158.408 156.332C158.852 155.875 159.102 155.256 159.102 154.611C159.102 153.966 158.852 153.347 158.408 152.891C157.964 152.434 157.362 152.178 156.734 152.178Z" fill="#E4E4E4"/>
<path d="M156.734 142.555H84.095C83.4665 142.555 82.8637 142.812 82.4192 143.268C81.9748 143.725 81.7251 144.345 81.7251 144.991C81.7251 145.637 81.9748 146.256 82.4192 146.713C82.8637 147.17 83.4665 147.426 84.095 147.426H156.734C157.363 147.426 157.965 147.17 158.41 146.713C158.854 146.256 159.104 145.637 159.104 144.991C159.104 144.345 158.854 143.725 158.41 143.268C157.965 142.812 157.363 142.555 156.734 142.555Z" fill="#E4E4E4"/>
<path d="M115.583 132.937H84.095C83.4671 132.937 82.865 133.193 82.421 133.649C81.977 134.106 81.7275 134.725 81.7275 135.37C81.7275 136.015 81.977 136.634 82.421 137.09C82.865 137.547 83.4671 137.803 84.095 137.803H115.583C116.211 137.803 116.813 137.547 117.257 137.09C117.701 136.634 117.95 136.015 117.95 135.37C117.95 134.725 117.701 134.106 117.257 133.649C116.813 133.193 116.211 132.937 115.583 132.937Z" fill="#E4E4E4"/>
<path d="M156.734 112.787H84.095C83.4665 112.787 82.8637 113.044 82.4192 113.5C81.9748 113.957 81.7251 114.577 81.7251 115.223C81.7251 115.868 81.9748 116.488 82.4192 116.945C82.8637 117.401 83.4665 117.658 84.095 117.658H156.734C157.363 117.658 157.965 117.401 158.41 116.945C158.854 116.488 159.104 115.868 159.104 115.223C159.104 114.577 158.854 113.957 158.41 113.5C157.965 113.044 157.363 112.787 156.734 112.787Z" fill="#E4E4E4"/>
<path d="M156.734 103.169H84.095C83.4671 103.169 82.865 103.425 82.421 103.881C81.977 104.338 81.7275 104.957 81.7275 105.602C81.7275 106.247 81.977 106.866 82.421 107.322C82.865 107.779 83.4671 108.035 84.095 108.035H156.734C157.362 108.035 157.964 107.779 158.408 107.322C158.852 106.866 159.102 106.247 159.102 105.602C159.102 104.957 158.852 104.338 158.408 103.881C157.964 103.425 157.362 103.169 156.734 103.169Z" fill="#E4E4E4"/>
<path d="M115.583 93.5457H84.095C83.4665 93.5457 82.8637 93.8024 82.4192 94.2591C81.9748 94.7159 81.7251 95.3354 81.7251 95.9813C81.7251 96.6273 81.9748 97.2468 82.4192 97.7035C82.8637 98.1603 83.4665 98.4169 84.095 98.4169H115.583C116.211 98.4169 116.814 98.1603 117.259 97.7035C117.703 97.2468 117.953 96.6273 117.953 95.9813C117.953 95.3354 117.703 94.7159 117.259 94.2591C116.814 93.8024 116.211 93.5457 115.583 93.5457Z" fill="#E4E4E4"/>
<path d="M156.734 73.3958H84.095C83.4665 73.3958 82.8637 73.6524 82.4192 74.1092C81.9748 74.566 81.7251 75.1855 81.7251 75.8314C81.7251 76.4774 81.9748 77.0969 82.4192 77.5536C82.8637 78.0104 83.4665 78.267 84.095 78.267H156.734C157.363 78.267 157.965 78.0104 158.41 77.5536C158.854 77.0969 159.104 76.4774 159.104 75.8314C159.104 75.1855 158.854 74.566 158.41 74.1092C157.965 73.6524 157.363 73.3958 156.734 73.3958Z" fill="#64646D"/>
<path d="M156.734 63.7777H84.095C83.4665 63.7777 82.8637 64.0343 82.4192 64.4911C81.9748 64.9479 81.7251 65.5674 81.7251 66.2133C81.7251 66.8593 81.9748 67.4787 82.4192 67.9355C82.8637 68.3923 83.4665 68.6489 84.095 68.6489H156.734C157.363 68.6489 157.965 68.3923 158.41 67.9355C158.854 67.4787 159.104 66.8593 159.104 66.2133C159.104 65.5674 158.854 64.9479 158.41 64.4911C157.965 64.0343 157.363 63.7777 156.734 63.7777Z" fill="#64646D"/>
<path d="M115.583 54.1546H84.095C83.4665 54.1546 82.8637 54.4113 82.4192 54.868C81.9748 55.3248 81.7251 55.9443 81.7251 56.5902C81.7251 57.2362 81.9748 57.8556 82.4192 58.3124C82.8637 58.7692 83.4665 59.0258 84.095 59.0258H115.583C116.211 59.0258 116.814 58.7692 117.259 58.3124C117.703 57.8556 117.953 57.2362 117.953 56.5902C117.953 55.9443 117.703 55.3248 117.259 54.868C116.814 54.4113 116.211 54.1546 115.583 54.1546Z" fill="#64646D"/>
<path d="M179.925 38.7692C190.108 38.7692 198.363 30.2852 198.363 19.8196C198.363 9.35395 190.108 0.869904 179.925 0.869904C169.741 0.869904 161.486 9.35395 161.486 19.8196C161.486 30.2852 169.741 38.7692 179.925 38.7692Z" fill="#64646D"/>
<path d="M177.409 31.6819C177.09 31.6819 176.776 31.6057 176.492 31.4593C176.207 31.313 175.959 31.1004 175.768 30.8386L170.738 23.9455C170.575 23.7241 170.457 23.4719 170.389 23.2035C170.322 22.935 170.307 22.6555 170.344 22.3809C170.382 22.1063 170.472 21.8421 170.61 21.6035C170.747 21.3648 170.929 21.1563 171.145 20.9899C171.361 20.8235 171.606 20.7026 171.868 20.6339C172.129 20.5653 172.401 20.5504 172.668 20.59C172.935 20.6296 173.192 20.7229 173.424 20.8647C173.656 21.0065 173.858 21.1939 174.019 21.4162L177.311 25.9255L185.763 12.8954C186.065 12.4303 186.534 12.1073 187.068 11.9977C187.601 11.8881 188.155 12.0007 188.608 12.3108C189.06 12.6209 189.375 13.1031 189.481 13.6513C189.588 14.1995 189.478 14.7688 189.177 15.234L179.116 30.7432C178.934 31.0237 178.689 31.2553 178.402 31.4185C178.115 31.5817 177.794 31.6718 177.466 31.6812C177.447 31.6816 177.428 31.6819 177.409 31.6819Z" fill="white"/>
</g>
<defs>
<clipPath id="clip0_104_436">
<rect width="229.986" height="293.459" fill="white" transform="translate(0.648682 0.770264)"/>
</clipPath>
</defs>
</svg>
