<svg width="497" height="511" viewBox="0 0 497 511" fill="none" xmlns="http://www.w3.org/2000/svg">
<g id="undraw_working_late_re_0c3y 1" clip-path="url(#clip0_39_407)" filter="url(#filter0_d_39_407)">
<path id="Vector" d="M493 260.997C493.055 294.638 485.959 327.916 472.171 358.677C471.592 359.965 471.007 361.248 470.403 362.525C470.318 362.724 470.22 362.922 470.129 363.121C469.897 363.609 469.665 364.103 469.428 364.591C469.257 364.946 469.086 365.295 468.909 365.651C468.489 366.518 468.062 367.381 467.629 368.24C467.153 369.186 466.672 370.129 466.184 371.071C465.696 372.01 465.202 372.948 464.702 373.883C464.263 374.696 463.822 375.507 463.379 376.317C462.806 377.358 462.223 378.4 461.629 379.442C461.117 380.334 460.603 381.219 460.087 382.098C459.532 383.038 458.971 383.977 458.404 384.917L458.349 385.007C458.227 385.212 458.105 385.416 457.977 385.621C457.861 385.808 457.751 385.989 457.636 386.175C457.52 386.362 457.41 386.543 457.294 386.723V386.729C456.922 387.332 456.55 387.922 456.178 388.518L456.172 388.524C455.337 389.849 454.483 391.168 453.624 392.475C452.026 394.908 450.386 397.305 448.703 399.666C448.703 399.672 448.697 399.672 448.691 399.678C447.685 401.099 446.654 402.508 445.618 403.906C444.953 404.797 444.283 405.684 443.606 406.568C442.929 407.453 442.246 408.33 441.557 409.199C441.405 409.398 441.246 409.597 441.088 409.796C440.21 410.904 439.319 412.012 438.417 413.102C438.222 413.343 438.027 413.578 437.838 413.813C437.539 414.168 437.246 414.523 436.954 414.873C436.856 414.993 436.759 415.107 436.655 415.228C436.155 415.818 435.655 416.408 435.143 416.998V417.005C434.649 417.583 434.149 418.161 433.643 418.739C433.533 418.866 433.423 418.992 433.307 419.118C433.143 419.311 432.972 419.498 432.801 419.691C432.381 420.178 431.948 420.66 431.509 421.142C431.503 421.148 431.503 421.154 431.497 421.16L431.478 421.178V421.184C418.37 435.791 403.521 448.777 387.255 459.861C387.201 459.902 387.143 459.94 387.084 459.975C386.883 460.12 386.682 460.252 386.481 460.391C385.023 461.378 383.554 462.354 382.072 463.306C381.347 463.775 380.621 464.239 379.889 464.697V464.703C379.883 464.703 379.883 464.703 379.877 464.709H379.865L379.853 464.721L379.816 464.739C379.798 464.751 379.786 464.757 379.768 464.769C379.207 465.124 378.652 465.474 378.085 465.823C377.914 465.937 377.743 466.04 377.573 466.142C377.274 466.329 376.969 466.515 376.664 466.702C376.365 466.883 376.06 467.07 375.756 467.25C375.371 467.479 374.987 467.714 374.603 467.937C373.768 468.437 372.931 468.931 372.091 469.418C371.786 469.599 371.475 469.774 371.164 469.954C370.859 470.129 370.549 470.304 370.238 470.478C370.233 470.485 370.228 470.49 370.222 470.494C370.215 470.498 370.208 470.501 370.201 470.502L370.189 470.508L370.177 470.521H370.17C369.317 471.002 368.469 471.484 367.61 471.954L367.604 471.96C366.915 472.339 366.226 472.713 365.53 473.086C363.884 473.971 362.228 474.841 360.561 475.694C359.403 476.29 358.238 476.868 357.067 477.44C356.36 477.79 355.647 478.133 354.933 478.476C354.342 478.759 353.744 479.042 353.153 479.319C352.988 479.398 352.83 479.476 352.665 479.548C352.397 479.675 352.123 479.801 351.854 479.922C351.629 480.024 351.409 480.126 351.184 480.229C350.647 480.482 350.104 480.723 349.568 480.963C348.964 481.235 348.367 481.5 347.763 481.765C345.495 482.764 343.202 483.728 340.904 484.655C332.692 487.977 324.299 490.844 315.765 493.243C315.368 493.358 314.966 493.472 314.563 493.581C310.911 494.592 307.233 495.518 303.527 496.357C297.058 497.826 290.53 499.033 283.943 499.977C283.931 499.977 283.913 499.983 283.9 499.983C283.114 500.097 282.321 500.205 281.535 500.314C281.468 500.326 281.394 500.338 281.321 500.344C281.315 500.35 281.309 500.35 281.297 500.344H281.291C280.419 500.458 279.547 500.573 278.669 500.681C278.608 500.693 278.547 500.699 278.486 500.705C277.669 500.802 276.846 500.898 276.023 500.988C275.139 501.085 274.255 501.175 273.364 501.265H273.358C272.005 501.398 270.651 501.524 269.298 501.633C269.273 501.633 269.249 501.639 269.224 501.639C268.688 501.687 268.151 501.723 267.615 501.765H267.609C261.298 502.259 254.928 502.504 248.5 502.5C241.519 502.5 234.608 502.213 227.769 501.639C227.745 501.639 227.72 501.633 227.696 501.633C226.239 501.512 224.784 501.38 223.33 501.235C222.946 501.199 222.568 501.157 222.184 501.121C222.111 501.115 222.038 501.109 221.965 501.097C221.849 501.085 221.733 501.073 221.611 501.061C221.55 501.055 221.483 501.049 221.422 501.037C220.916 500.983 220.41 500.928 219.898 500.868C219.331 500.802 218.757 500.735 218.19 500.663C217.623 500.597 217.05 500.525 216.483 500.446C216.361 500.434 216.233 500.422 216.111 500.398C215.697 500.35 215.282 500.296 214.874 500.236C214.672 500.212 214.477 500.181 214.282 500.151C213.886 500.097 213.496 500.043 213.099 499.983C213.087 499.983 213.069 499.977 213.057 499.977C200.606 498.201 188.315 495.464 176.296 491.792H176.29C175.638 491.593 174.985 491.389 174.333 491.184C174.138 491.13 173.943 491.069 173.748 491.003C172.053 490.467 170.368 489.913 168.693 489.341C166.382 488.558 164.088 487.739 161.809 486.884C161.187 486.649 160.571 486.414 159.949 486.179C158.712 485.697 157.48 485.215 156.255 484.722C154.163 483.879 152.086 483.009 150.023 482.114H150.017V482.108C148.389 481.397 146.767 480.675 145.158 479.922C144.865 479.789 144.572 479.657 144.28 479.518C144.223 479.502 144.17 479.477 144.121 479.446C144.115 479.446 144.115 479.44 144.109 479.44C143.688 479.247 143.267 479.048 142.847 478.85L142.834 478.844C140.682 477.826 138.548 476.776 136.432 475.694C133.811 474.357 131.211 472.972 128.634 471.538C126.5 470.352 124.386 469.133 122.293 467.883C119.811 466.401 117.356 464.875 114.927 463.306C114.171 462.818 113.415 462.324 112.659 461.824C111.976 461.372 111.299 460.921 110.623 460.463C108.233 458.849 105.873 457.193 103.544 455.494C101.135 453.742 98.7615 451.945 96.4222 450.104C93.3736 447.707 90.3859 445.242 87.4592 442.709C82.0021 437.999 76.7686 433.053 71.7588 427.869C71.6002 427.707 71.4417 427.544 71.2832 427.375C70.7832 426.857 70.2893 426.339 69.7955 425.816C69.076 425.057 68.3626 424.286 67.6554 423.515C66.4847 422.256 65.3343 420.983 64.2043 419.697H64.1982V419.691C63.5092 418.914 62.8385 418.143 62.1556 417.36V417.354C62.0581 417.246 61.9667 417.137 61.8751 417.029C61.4422 416.529 61.0216 416.035 60.6009 415.529V415.523C60.0277 414.854 59.4667 414.186 58.918 413.512C58.796 413.367 58.6802 413.228 58.5644 413.084H58.5583V413.078C58.1071 412.536 57.662 411.988 57.223 411.44C56.9973 411.169 56.7779 410.892 56.5583 410.615H56.5522V410.609C55.2231 408.953 53.9203 407.28 52.644 405.592V405.586C52.2903 405.122 51.9428 404.658 51.6013 404.189H51.5952C49.9611 402.009 48.3697 399.802 46.821 397.57V397.564C46.2357 396.727 45.6565 395.884 45.0833 395.034C44.5102 394.185 43.9431 393.334 43.3822 392.481H43.3761C42.7969 391.602 42.2237 390.718 41.6567 389.831C41.6262 389.783 41.5957 389.741 41.5713 389.698C41.0104 388.825 40.4575 387.946 39.9129 387.061C39.4738 386.356 39.041 385.657 38.6203 384.953C38.3276 384.477 38.041 384.007 37.7605 383.525C37.6569 383.363 37.5655 383.2 37.474 383.044C36.8277 381.954 36.1935 380.863 35.5594 379.767C34.8217 378.479 34.09 377.178 33.3766 375.877C33.0839 375.341 32.7912 374.799 32.5047 374.257C32.4011 374.082 32.3095 373.908 32.2181 373.727C31.8766 373.088 31.5352 372.45 31.1999 371.806C30.8646 371.167 30.5292 370.523 30.1999 369.878C29.8707 369.234 29.5414 368.59 29.2183 367.939C28.9744 367.451 28.7305 366.958 28.4926 366.47C28.468 366.429 28.4456 366.387 28.4257 366.343C28.3159 366.114 28.2 365.892 28.0964 365.663C28.072 365.628 28.0535 365.589 28.0415 365.548C27.7915 365.042 27.5476 364.542 27.3098 364.037C26.9927 363.386 26.6879 362.73 26.383 362.073C26.1635 361.615 25.9562 361.152 25.7429 360.688C25.438 360.038 25.1392 359.381 24.8465 358.719C24.5355 358.038 24.2368 357.352 23.938 356.665C23.8588 356.49 23.7856 356.322 23.7125 356.147C23.5722 355.834 23.4381 355.521 23.304 355.207C22.9442 354.376 22.5906 353.533 22.243 352.696C21.8467 351.751 21.4606 350.803 21.0846 349.854C20.7248 348.968 20.3752 348.081 20.0358 347.192L19.9078 346.866V346.86C14.6099 333.107 10.6014 318.903 7.93272 304.426V304.42C6.41107 296.154 5.32833 287.816 4.68898 279.438C4.65243 278.981 4.62191 278.523 4.59143 278.065C4.18906 272.398 3.99192 266.709 3.99999 260.997C3.99999 258.462 4.04064 255.939 4.12194 253.427C5.70288 200.922 24.6517 150.374 58.0704 109.513C59.5399 107.713 61.0358 105.934 62.5581 104.177C64.2287 102.25 65.9278 100.349 67.6554 98.474C68.8504 97.1732 70.0597 95.8884 71.2832 94.6196C71.3061 94.594 71.3305 94.5699 71.3564 94.5474C71.4844 94.4088 71.6185 94.2703 71.7588 94.1317C79.2216 86.4119 87.1961 79.191 95.6295 72.517C96.5929 71.7461 97.5562 70.9933 98.5318 70.2525C99.3976 69.5841 100.263 68.9215 101.135 68.2771C102.147 67.5183 103.166 66.7695 104.19 66.0307C109.525 62.1704 115.019 58.5248 120.671 55.0939C123.031 53.6606 125.417 52.2674 127.829 50.9143C128.707 50.4144 129.597 49.9266 130.487 49.4387C131.695 48.7823 132.902 48.1319 134.121 47.4995C170.359 28.5912 210.821 18.9697 251.8 19.5169C292.779 20.064 332.964 30.7623 368.671 50.6311C368.841 50.7216 369.012 50.8179 369.177 50.9143C370.225 51.5045 371.268 52.0947 372.305 52.703C373.658 53.486 375.002 54.2829 376.335 55.0939C383.066 59.1832 389.578 63.5776 395.87 68.2771C396.846 69.006 397.822 69.7406 398.785 70.4875C399.657 71.1559 400.523 71.8365 401.382 72.517C401.852 72.8905 402.327 73.2698 402.797 73.6493C413.092 81.9292 422.69 91.0209 431.497 100.835L431.509 100.847C431.643 100.997 431.777 101.142 431.905 101.293C432.326 101.762 432.747 102.238 433.161 102.708C433.216 102.768 433.271 102.834 433.326 102.895C433.936 103.587 434.541 104.286 435.143 104.99C442.473 113.538 449.194 122.577 455.258 132.044C457.514 135.549 459.672 139.118 461.733 142.752C482.296 178.847 493.067 219.579 493 260.997Z" fill="#3F3D56"/>
<path id="Vector_2" d="M420.509 15.3651L435.142 406.64V406.647C434.649 407.321 434.149 407.994 433.643 408.667C433.368 409.039 433.088 409.404 432.801 409.776C432.38 410.344 431.947 410.905 431.508 411.466C431.502 411.473 431.502 411.48 431.496 411.487L431.478 411.508V411.515C418.644 428.249 403.793 443.375 387.255 456.56V456.714L387.084 456.693C386.883 456.861 386.682 457.016 386.48 457.177C385.023 458.327 383.554 459.464 382.072 460.572C381.346 461.119 380.619 461.659 379.889 462.192V462.199C379.883 462.199 379.883 462.199 379.877 462.206H379.865L379.853 462.22L379.816 462.241C379.798 462.255 379.786 462.262 379.767 462.276C379.206 462.69 378.651 463.097 378.084 463.504C377.914 463.637 377.743 463.756 377.572 463.876C377.273 464.093 376.969 464.311 376.664 464.528C376.365 464.738 376.06 464.956 375.755 465.166C374.542 466.022 373.316 466.864 372.091 467.691C371.786 467.902 371.475 468.105 371.164 468.316C370.859 468.519 370.548 468.722 370.237 468.926V468.947L370.201 468.954L370.188 468.961L370.176 468.975H370.17C369.317 469.536 368.469 470.097 367.609 470.644L367.603 470.651C366.914 471.093 366.225 471.528 365.53 471.963C363.884 472.994 362.225 474.011 360.561 475C359.402 475.694 358.238 476.368 357.067 477.034C356.36 477.441 355.647 477.841 354.933 478.24C354.342 478.57 353.744 478.9 353.153 479.222C352.988 479.314 352.83 479.405 352.665 479.489C352.397 479.636 352.122 479.784 351.854 479.924H145.157C144.865 479.77 144.572 479.615 144.279 479.454C144.222 479.434 144.169 479.406 144.121 479.37C144.115 479.37 144.115 479.363 144.108 479.363C143.688 479.138 143.267 478.907 142.846 478.675L142.834 478.668C140.682 477.483 138.548 476.26 136.432 475C131.634 472.152 126.92 469.12 122.293 465.903C119.811 464.177 117.356 462.4 114.927 460.572C114.171 460.004 113.415 459.429 112.659 458.846C111.976 458.32 111.299 457.794 110.622 457.261C108.232 455.382 105.873 453.453 103.543 451.475C101.135 449.434 98.7612 447.341 96.4219 445.197C93.3733 442.405 90.3856 439.534 87.4589 436.584C82.0019 431.099 76.7684 425.338 71.7585 419.301C71.6 419.112 71.4414 418.922 71.2829 418.726C70.0574 417.246 68.8481 415.747 67.655 414.23L79.8495 15.365C79.8382 12.9427 80.287 10.5397 81.1726 8.28071C83.0262 3.65149 86.6419 0.502167 90.7941 0.502167H409.565C413.772 0.502167 417.424 3.72873 419.253 8.45609C419.314 8.61055 419.369 8.76484 419.424 8.91913C420.151 10.992 420.518 13.1714 420.509 15.3651Z" fill="#3F3D56"/>
<path id="Vector_3" d="M120.219 45.7151C129.311 45.7151 136.682 37.2362 136.682 26.777C136.682 16.3178 129.311 7.8389 120.219 7.8389C111.127 7.8389 103.757 16.3178 103.757 26.777C103.757 37.2362 111.127 45.7151 120.219 45.7151Z" fill="white"/>
<path id="Vector_4" d="M294.598 77.5327C266.844 84.7437 236.092 89.1302 204.823 90.3313C200.241 90.5778 195.647 90.547 191.068 90.2389C181.006 89.403 172.387 86.2792 162.788 84.5722C158.174 83.7538 153.034 83.1555 148.388 82.2711C149.461 80.9556 150.554 79.6563 151.666 78.3731C161.684 79.209 171.857 81.9456 181.995 83.2171C199.229 85.3817 218.538 82.9663 231.602 77.0092C237.94 74.1186 242.795 70.5109 249.112 67.6072C249.971 67.1716 250.901 66.89 251.86 66.7756C253.86 66.5953 255.615 67.3916 257.045 68.1043C267.641 73.3883 283.026 77.6823 297.306 75.3197C298.371 76.1424 296.349 77.0796 294.598 77.5327Z" fill="white"/>
<path id="Vector_5" d="M289.225 143.538C289.404 143.506 289.583 143.481 289.761 143.45C289.01 142.991 288.303 142.465 287.649 141.878L289.225 143.538Z" fill="white"/>
<path id="Vector_6" d="M406.244 157.809C398.08 158.453 389.873 158.933 381.623 159.248C375.35 159.583 369.063 159.54 362.795 159.122C349.021 157.971 337.223 153.701 324.083 151.365C312.041 149.227 297.408 148.197 289.762 143.451C309.523 140.072 329.998 146.95 350.375 149.51C366.857 151.512 383.566 150.697 399.769 147.101C402.025 150.606 404.183 154.175 406.244 157.809Z" fill="white"/>
<path id="Vector_7" d="M236.183 302.745V296.976C236.182 294.772 235.328 292.652 233.796 291.049C232.264 289.446 230.17 288.482 227.942 288.355V265.825H226.003V288.329H217.278V302.694H176.073V467.885H267.208V335.131C267.207 326.838 263.992 318.861 258.222 312.838C252.452 306.815 244.566 303.203 236.183 302.745Z" fill="#2F2E41"/>
<path id="Vector_8" d="M203.22 326.156H191.101V335.732H203.22V326.156Z" fill="white"/>
<path id="Vector_9" d="M223.095 326.156H210.976V335.732H223.095V326.156Z" fill="white"/>
<path id="Vector_10" d="M242.97 326.156H230.851V335.732H242.97V326.156Z" fill="white"/>
<path id="Vector_11" d="M203.22 350.575H191.101V360.151H203.22V350.575Z" fill="white"/>
<path id="Vector_12" d="M223.095 350.575H210.976V360.151H223.095V350.575Z" fill="white"/>
<path id="Vector_13" d="M242.97 350.575H230.851V360.151H242.97V350.575Z" fill="white"/>
<path id="Vector_14" d="M203.22 374.995H191.101V384.571H203.22V374.995Z" fill="white"/>
<path id="Vector_15" d="M223.095 374.995H210.976V384.571H223.095V374.995Z" fill="white"/>
<path id="Vector_16" d="M242.97 374.995H230.851V384.571H242.97V374.995Z" fill="white"/>
<path id="Vector_17" d="M203.22 399.414H191.101V408.991H203.22V399.414Z" fill="white"/>
<path id="Vector_18" d="M223.095 399.414H210.976V408.991H223.095V399.414Z" fill="white"/>
<path id="Vector_19" d="M242.97 399.414H230.851V408.991H242.97V399.414Z" fill="white"/>
<path id="Vector_20" d="M203.22 423.834H191.101V433.41H203.22V423.834Z" fill="white"/>
<path id="Vector_21" d="M223.095 423.834H210.976V433.41H223.095V423.834Z" fill="white"/>
<path id="Vector_22" d="M242.97 423.834H230.851V433.41H242.97V423.834Z" fill="white"/>
<path id="Vector_23" d="M203.22 448.253H191.101V457.83H203.22V448.253Z" fill="white"/>
<path id="Vector_24" d="M223.095 448.253H210.976V457.83H223.095V448.253Z" fill="white"/>
<path id="Vector_25" d="M242.97 448.253H230.851V457.83H242.97V448.253Z" fill="white"/>
<path id="Vector_26" d="M178.589 254.686V467.883H122.293C119.811 466.401 117.356 464.875 114.927 463.306C114.171 462.818 113.415 462.324 112.659 461.824C111.976 461.372 111.299 460.921 110.623 460.463C108.233 458.849 105.873 457.193 103.544 455.494C101.135 453.742 98.7615 451.945 96.4222 450.104C93.3736 447.707 90.3859 445.242 87.4592 442.708V222.249H103.696V196.635H120.177V172.214H122.116V196.635H134.207C136.529 196.635 138.756 197.546 140.398 199.168C142.04 200.79 142.962 202.99 142.963 205.283V222.249H145.749C152.829 222.249 159.72 224.509 165.395 228.691C171.07 232.874 175.225 238.755 177.241 245.459C177.592 246.639 177.877 247.838 178.095 249.049C178.424 250.91 178.589 252.796 178.589 254.686Z" fill="#2F2E41"/>
<path id="Vector_27" d="M152.656 241.645H113.391V244.518H152.656V241.645Z" fill="white"/>
<path id="Vector_28" d="M152.656 259.361H113.391V262.234H152.656V259.361Z" fill="white"/>
<path id="Vector_29" d="M152.656 277.077H113.391V279.95H152.656V277.077Z" fill="white"/>
<path id="Vector_30" d="M152.656 294.793H113.391V297.666H152.656V294.793Z" fill="white"/>
<path id="Vector_31" d="M152.656 312.509H113.391V315.382H152.656V312.509Z" fill="white"/>
<path id="Vector_32" d="M152.656 330.226H113.391V333.099H152.656V330.226Z" fill="white"/>
<path id="Vector_33" d="M152.656 347.942H113.391V350.815H152.656V347.942Z" fill="white"/>
<path id="Vector_34" d="M152.656 365.658H113.391V368.531H152.656V365.658Z" fill="white"/>
<path id="Vector_35" d="M152.656 383.374H113.391V386.247H152.656V383.374Z" fill="white"/>
<path id="Vector_36" d="M152.656 401.09H113.391V403.963H152.656V401.09Z" fill="white"/>
<path id="Vector_37" d="M152.656 418.806H113.391V421.679H152.656V418.806Z" fill="white"/>
<path id="Vector_38" d="M152.656 436.522H113.391V439.395H152.656V436.522Z" fill="white"/>
<path id="Vector_39" d="M129.388 201.903H117.269V211.48H129.388V201.903Z" fill="white"/>
<path id="Vector_40" d="M419.424 8.91947C419.369 8.76273 419.314 8.61217 419.253 8.45573C417.424 3.72801 413.772 0.5 409.565 0.5H90.7945C86.6423 0.5 83.0266 3.64977 81.1731 8.28103C80.2878 10.5394 79.8391 12.9418 79.85 15.3635L67.6555 423.515C68.3628 424.286 69.0762 425.057 69.7956 425.815C70.2895 426.339 70.7834 426.857 71.2833 427.375L83.4778 15.3635C83.4748 14.1959 83.6306 13.0332 83.9412 11.9066C83.9424 11.888 83.9465 11.8697 83.9534 11.8523C85.0021 8.10635 87.6727 5.43843 90.7945 5.43843H409.565C410.312 5.43942 411.051 5.59321 411.736 5.89012C414.589 7.09462 416.693 10.5998 416.863 14.8093C416.869 14.9961 416.876 15.1768 416.876 15.3635L431.509 411.464C431.948 410.904 432.381 410.344 432.802 409.777C432.96 409.573 433.113 409.368 433.265 409.169C433.393 409.001 433.521 408.838 433.643 408.669C434.149 407.995 434.649 407.32 435.143 406.646V406.64L420.51 15.3635C420.518 13.1705 420.151 10.9917 419.424 8.91947ZM136.432 475.694C138.548 476.778 140.682 477.828 142.835 478.844L142.847 478.85C143.267 479.048 143.688 479.247 144.109 479.44C144.115 479.44 144.115 479.446 144.121 479.446C144.17 479.477 144.224 479.502 144.28 479.518C144.572 479.657 144.865 479.789 145.158 479.922H351.854C352.123 479.801 352.397 479.675 352.665 479.548C352.83 479.476 352.988 479.398 353.153 479.319C353.745 479.042 354.342 478.759 354.934 478.476C355.647 478.133 356.36 477.79 357.068 477.44C358.238 476.868 359.403 476.29 360.561 475.694H136.432Z" fill="#2F2E41"/>
<path id="Vector_41" d="M418.691 50.9127H81.6636V55.0924H418.691V50.9127Z" fill="#2F2E41"/>
<path id="Vector_42" d="M423.332 102.706H78.228V106.886H423.332V102.706Z" fill="#2F2E41"/>
<path id="Vector_43" d="M134.121 183.813H130.488L142.682 2.37662H146.315L134.121 183.813Z" fill="#2F2E41"/>
<path id="Vector_44" d="M372.306 185.018H368.672L354.039 2.37662H357.672L372.306 185.018Z" fill="#2F2E41"/>
<path id="Vector_45" d="M425.162 178.921H78.8379V190.883H425.162V178.921Z" fill="#2F2E41"/>
<path id="Vector_46" d="M252.624 172.32H256.258C257.132 172.32 257.999 172.491 258.807 172.821C259.615 173.152 260.349 173.637 260.968 174.248C261.586 174.858 262.077 175.584 262.412 176.382C262.746 177.18 262.919 178.036 262.919 178.9H245.963C245.963 177.155 246.665 175.481 247.914 174.248C249.163 173.014 250.858 172.32 252.624 172.32V172.32Z" fill="#2F2E41"/>
<path id="Vector_47" d="M382.072 463.306C381.347 463.775 380.621 464.239 379.89 464.697V464.703C379.884 464.703 379.884 464.703 379.877 464.709H379.865L379.853 464.721L379.816 464.739C379.798 464.751 379.786 464.757 379.768 464.769C379.207 465.124 378.652 465.474 378.085 465.823C377.914 465.937 377.743 466.04 377.573 466.142C377.274 466.329 376.969 466.515 376.664 466.702C376.365 466.883 376.061 467.07 375.756 467.25C375.372 467.479 374.987 467.714 374.603 467.937C373.768 468.437 372.931 468.931 372.091 469.418C371.786 469.599 371.475 469.774 371.164 469.954C370.86 470.129 370.549 470.304 370.238 470.478V470.496L370.201 470.502L370.189 470.508L370.177 470.52H370.171C369.317 471.002 368.469 471.484 367.61 471.954L367.604 471.96C366.915 472.339 366.226 472.713 365.531 473.086C363.884 473.971 362.228 474.841 360.561 475.694C359.403 476.29 358.238 476.868 357.068 477.44C356.36 477.79 355.647 478.133 354.934 478.476C354.342 478.759 353.745 479.042 353.153 479.319C352.989 479.398 352.83 479.476 352.665 479.548C352.397 479.675 352.123 479.801 351.854 479.922C351.629 480.024 351.409 480.126 351.184 480.229C350.647 480.482 350.105 480.723 349.568 480.963C348.964 481.235 348.367 481.5 347.763 481.764C345.495 482.764 343.202 483.728 340.904 484.655C332.692 487.977 324.299 490.844 315.765 493.243C315.368 493.358 314.966 493.472 314.564 493.581C310.911 494.592 307.233 495.518 303.528 496.357C297.058 497.826 290.53 499.033 283.943 499.977C283.931 499.977 283.913 499.983 283.901 499.983C283.114 500.097 282.321 500.205 281.535 500.314C281.468 500.326 281.395 500.338 281.321 500.344C281.315 500.35 281.309 500.35 281.297 500.344H281.291C280.419 500.458 279.547 500.573 278.669 500.681C278.608 500.693 278.547 500.699 278.486 500.705C277.669 500.801 276.846 500.898 276.023 500.988C275.139 501.085 274.255 501.175 273.365 501.265H273.358C272.005 501.398 270.651 501.524 269.298 501.633C269.273 501.633 269.249 501.639 269.224 501.639C268.688 501.687 268.151 501.723 267.615 501.765H267.609C261.298 502.259 254.928 502.504 248.5 502.5C241.519 502.5 234.608 502.213 227.769 501.639C227.745 501.639 227.72 501.633 227.696 501.633C226.239 501.512 224.784 501.38 223.331 501.235C222.946 501.199 222.568 501.157 222.184 501.121C222.111 501.115 222.038 501.109 221.965 501.097C221.849 501.085 221.733 501.073 221.611 501.061C221.55 501.055 221.483 501.049 221.422 501.037C220.916 500.982 220.41 500.928 219.898 500.868C219.331 500.802 218.758 500.735 218.191 500.663C217.623 500.597 217.05 500.525 216.483 500.446C216.361 500.434 216.233 500.422 216.111 500.398C215.697 500.35 215.282 500.296 214.874 500.236C214.672 500.211 214.477 500.181 214.282 500.151C213.886 500.097 213.496 500.043 213.099 499.983C213.087 499.983 213.069 499.977 213.057 499.977C200.606 498.201 188.315 495.464 176.296 491.792H176.29C175.638 491.593 174.985 491.389 174.333 491.184C174.138 491.13 173.943 491.069 173.748 491.003C172.053 490.467 170.368 489.913 168.693 489.341C166.382 488.558 164.088 487.739 161.809 486.884C161.187 486.649 160.572 486.414 159.95 486.179C158.712 485.697 157.48 485.215 156.255 484.722C154.163 483.878 152.086 483.009 150.023 482.114H150.017V482.108C148.389 481.397 146.767 480.674 145.158 479.922C144.865 479.789 144.572 479.657 144.28 479.518C144.224 479.502 144.17 479.477 144.121 479.446C144.115 479.446 144.115 479.44 144.109 479.44C143.688 479.247 143.268 479.048 142.847 478.85L142.835 478.844C140.682 477.826 138.548 476.776 136.432 475.694C133.811 474.357 131.211 472.972 128.634 471.538C126.5 470.352 124.386 469.133 122.293 467.883C119.811 466.401 117.356 464.875 114.927 463.306H382.072Z" fill="#2F2E41"/>
<path id="Vector_48" d="M161.071 33.0897C161.745 33.0897 162.29 32.4616 162.29 31.6869C162.29 30.9121 161.745 30.2841 161.071 30.2841C160.398 30.2841 159.852 30.9121 159.852 31.6869C159.852 32.4616 160.398 33.0897 161.071 33.0897Z" fill="white"/>
<path id="Vector_49" d="M235.163 34.8294C235.837 34.8294 236.383 34.2014 236.383 33.4266C236.383 32.6518 235.837 32.0238 235.163 32.0238C234.49 32.0238 233.944 32.6518 233.944 33.4266C233.944 34.2014 234.49 34.8294 235.163 34.8294Z" fill="white"/>
<g id="left_blind">
<path id="Vector_50" d="M129.445 461.451C123.958 466.871 124.384 469.129 122.293 467.883C119.811 466.401 117.356 464.875 114.927 463.306C114.171 462.818 113.415 462.324 112.659 461.824C111.976 461.372 111.3 460.921 110.623 460.463C108.233 458.849 105.873 457.193 103.544 455.494C101.136 453.742 98.7617 451.945 96.4224 450.104C93.3737 447.707 90.3861 445.242 87.4594 442.708C82.0023 437.999 76.7688 433.053 71.7589 427.869C71.6004 427.707 71.4419 427.544 71.2833 427.375C70.7834 426.857 70.2895 426.339 69.7957 425.815L72.2772 416.962L75.3259 287.93L75.5088 249.049L75.521 245.459L78.2282 189.233L78.2465 185.644L79.8195 109.838L79.8317 106.888L79.8561 102.708L71.3565 94.5474L83.7339 55.094L83.7523 50.9144L83.9412 11.9066L83.9534 8.72071C90.4104 2.91493 99.5502 1.77676 110.726 2.80054C111.281 2.85479 111.848 2.90905 112.415 2.96917L112.568 5.43845L112.848 9.8408V9.84697L115.043 44.7534V44.7655L115.434 50.9145L115.696 55.094L116.385 66.0309L106.495 102.708L106.757 106.888L108.666 137.193L108.928 141.372L109.47 149.997L111.714 185.644L111.94 189.233L112.403 196.635L112.982 205.789L113.049 206.855L113.312 211.035L114.068 223.044L114.275 226.392L115.232 241.647L115.36 243.683L115.415 244.52L115.476 245.459L115.574 247.025L115.702 249.049L116.159 256.312L116.348 259.359L116.531 262.232L116.659 264.31L116.873 267.658L117.037 270.248L117.464 277.078L117.647 279.95L117.958 284.943L118.147 287.93L118.171 288.292L118.58 294.796L118.763 297.669L118.897 299.891L119.257 305.582L119.47 308.925L119.696 312.508L119.872 315.381L120.555 326.209L120.763 329.558L120.805 330.226L120.988 333.099L121.854 346.842L121.921 347.944L122.061 350.191L122.098 350.817L123.037 365.657L123.153 367.475L123.22 368.529L123.36 370.824L124.153 383.375L124.336 386.248L124.451 388.109L124.659 391.457L125.262 401.093L125.445 403.966L125.744 408.748L125.957 412.09L126.378 418.805L126.561 421.678L127.043 429.375L127.256 432.717L127.39 436.523L127.494 439.396L129.445 461.451Z" fill="#CCCCCC"/>
<path id="Vector_51" d="M87.374 112.738L86.1545 112.756L87.9837 234.365L89.2032 234.347L87.374 112.738Z" fill="#B3B3B3"/>
<path id="Vector_52" d="M99.5686 252.461L98.3491 252.479L100.178 374.087L101.398 374.069L99.5686 252.461Z" fill="#B3B3B3"/>
<path id="Vector_53" d="M86.1542 355.438L84.9353 355.471L86.7645 421.672L87.9833 421.639L86.1542 355.438Z" fill="#B3B3B3"/>
</g>
<path id="Vector_54" d="M280.893 36.2323C281.566 36.2323 282.112 35.6042 282.112 34.8294C282.112 34.0547 281.566 33.4266 280.893 33.4266C280.219 33.4266 279.673 34.0547 279.673 34.8294C279.673 35.6042 280.219 36.2323 280.893 36.2323Z" fill="white"/>
<path id="Vector_55" d="M345.208 213.699C345.881 213.699 346.427 213.16 346.427 212.494C346.427 211.829 345.881 211.29 345.208 211.29C344.534 211.29 343.989 211.829 343.989 212.494C343.989 213.16 344.534 213.699 345.208 213.699Z" fill="white"/>
<path id="Vector_56" d="M271.137 145.934C271.811 145.934 272.357 145.395 272.357 144.729C272.357 144.064 271.811 143.525 271.137 143.525C270.464 143.525 269.918 144.064 269.918 144.729C269.918 145.395 270.464 145.934 271.137 145.934Z" fill="white"/>
<path id="Vector_57" d="M209.849 207.676C210.522 207.676 211.068 207.137 211.068 206.472C211.068 205.807 210.522 205.267 209.849 205.267C209.175 205.267 208.629 205.807 208.629 206.472C208.629 207.137 209.175 207.676 209.849 207.676Z" fill="white"/>
<path id="Vector_58" d="M199.484 144.44C200.157 144.44 200.703 143.901 200.703 143.236C200.703 142.57 200.157 142.031 199.484 142.031C198.81 142.031 198.264 142.57 198.264 143.236C198.264 143.901 198.81 144.44 199.484 144.44Z" fill="white"/>
<path id="Vector_59" d="M117.78 131.793C118.454 131.793 119 131.254 119 130.588C119 129.923 118.454 129.384 117.78 129.384C117.107 129.384 116.561 129.923 116.561 130.588C116.561 131.254 117.107 131.793 117.78 131.793Z" fill="white"/>
<path id="Vector_60" d="M367.609 471.956L364.737 466.789L366.152 466.132L367.28 465.602L372.2 463.308L375.158 461.929L376.377 461.356L377.346 460.905L378.956 463.308L379.767 464.518L379.889 464.699V464.705C379.863 464.715 379.839 464.727 379.816 464.741C379.798 464.753 379.785 464.759 379.767 464.771C379.206 465.127 378.651 465.476 378.084 465.825C377.913 465.94 377.743 466.042 377.572 466.144C377.273 466.331 376.968 466.518 376.664 466.705C376.365 466.885 376.06 467.072 375.755 467.253C374.542 467.987 373.316 468.71 372.091 469.421C371.786 469.601 371.475 469.776 371.164 469.957C370.859 470.131 370.548 470.306 370.237 470.481V470.499L370.2 470.505L370.188 470.511L370.176 470.523H370.17C369.316 471.005 368.469 471.486 367.609 471.956Z" fill="#2F2E41"/>
<path id="Vector_61" d="M123.653 57.6415H85.24C84.108 57.6415 83.0224 57.1973 82.222 56.4067C81.4216 55.6161 80.9719 54.5438 80.9719 53.4257C80.9719 52.3077 81.4216 51.2354 82.222 50.4448C83.0224 49.6542 84.108 49.21 85.24 49.21H123.653C124.785 49.21 125.87 49.6542 126.671 50.4448C127.471 51.2354 127.921 52.3077 127.921 53.4257C127.921 54.5438 127.471 55.6161 126.671 56.4067C125.87 57.1973 124.785 57.6415 123.653 57.6415Z" fill="#2F2E41"/>
<path id="Vector_62" d="M452.913 9.1603H49.8848C48.7528 9.1603 47.6672 8.71614 46.8668 7.92553C46.0664 7.13493 45.6167 6.06263 45.6167 4.94455C45.6167 3.82646 46.0664 2.75416 46.8668 1.96356C47.6672 1.17295 48.7528 0.72879 49.8848 0.72879H452.913C454.045 0.72879 455.131 1.17295 455.931 1.96356C456.732 2.75416 457.181 3.82646 457.181 4.94455C457.181 6.06263 456.732 7.13493 455.931 7.92553C455.131 8.71614 454.045 9.1603 452.913 9.1603Z" fill="#2F2E41"/>
<path id="Vector_63" d="M110.239 99.7991H71.8259C70.694 99.7991 69.6084 99.3549 68.808 98.5643C68.0075 97.7737 67.5579 96.7014 67.5579 95.5833C67.5579 94.4652 68.0075 93.3929 68.808 92.6023C69.6084 91.8117 70.694 91.3676 71.8259 91.3676H110.239C111.371 91.3676 112.456 91.8117 113.257 92.6023C114.057 93.3929 114.507 94.4652 114.507 95.5833C114.507 96.7014 114.057 97.7737 113.257 98.5643C112.456 99.3549 111.371 99.7991 110.239 99.7991Z" fill="#2F2E41"/>
<g id="right_blind">
<path id="Vector_64" d="M433.308 419.118C433.143 419.311 432.972 419.498 432.802 419.691C432.381 420.178 431.948 420.66 431.509 421.142C431.503 421.148 431.503 421.154 431.497 421.16L431.478 421.178V421.184C418.371 435.791 403.521 448.777 387.255 459.861C387.201 459.902 387.144 459.94 387.084 459.975C386.883 460.12 386.682 460.252 386.481 460.391C385.023 461.378 383.554 462.354 382.072 463.306C381.347 463.775 380.621 464.239 379.89 464.697V464.703C379.883 464.703 379.883 464.703 379.877 464.709H379.865L379.853 464.721L379.816 464.739C379.798 464.751 379.786 464.757 379.768 464.769C379.207 465.124 378.652 465.474 378.085 465.823C377.914 465.937 377.743 466.04 377.573 466.142C377.274 466.329 376.969 466.516 376.664 466.702C376.365 466.883 376.061 467.07 375.756 467.25C375.372 467.479 374.987 467.714 374.603 467.937L374.628 465.949L374.664 463.306L374.841 451.152L375.451 441.444L379.066 383.983L379.64 374.889L379.768 372.842L381.396 346.987L381.95 338.11L383.213 318.115L383.78 309.021L384.334 300.234L384.359 299.891L384.408 299.072L384.438 298.572V298.566L385.084 288.364L385.109 287.93L385.566 280.715V280.703L386.219 270.248L386.633 263.684L387.097 256.312L387.468 250.404L387.554 249.049L387.779 245.459L387.792 245.315L389.194 222.971L389.56 217.148V217.141L389.944 211.035L390.206 206.855L390.749 198.315L391.322 189.233L391.548 185.644L392.346 172.9V172.894L392.791 165.8L393.236 158.693L393.895 148.298L394.328 141.372L394.59 137.193L396.492 106.888L396.578 105.575L396.761 102.708L397.376 92.9033L384.152 70.4875L385.121 55.094L385.383 50.9144L388.164 6.75733L388.249 5.43843L388.401 2.96915C400.34 1.67437 410.077 2.62582 416.863 8.72065L417.052 50.9144L417.071 55.094L420.93 101.293L420.936 102.708L420.955 106.888L422.522 185.644L422.54 189.233L425.223 245.459L425.241 249.049L426.631 287.93L426.686 299.891L433.265 409.169L433.308 419.118Z" fill="#CCCCCC"/>
<path id="Vector_65" d="M396.504 377.721L395.285 377.754L397.115 443.955L398.333 443.922L396.504 377.721Z" fill="#B3B3B3"/>
<path id="Vector_66" d="M415.406 118.159L414.187 118.177L416.016 239.785L417.235 239.767L415.406 118.159Z" fill="#B3B3B3"/>
</g>
<path id="Vector_67" d="M416.321 57.6415H377.908C376.776 57.6415 375.69 57.1973 374.89 56.4067C374.09 55.6161 373.64 54.5438 373.64 53.4257C373.64 52.3077 374.09 51.2354 374.89 50.4448C375.69 49.6542 376.776 49.21 377.908 49.21H416.321C417.453 49.21 418.538 49.6542 419.339 50.4448C420.139 51.2354 420.589 52.3077 420.589 53.4257C420.589 54.5438 420.139 55.6161 419.339 56.4067C418.538 57.1973 417.453 57.6415 416.321 57.6415Z" fill="#2F2E41"/>
<path id="Vector_68" d="M431.564 97.9923H393.151C392.019 97.9923 390.934 97.5481 390.133 96.7575C389.333 95.9669 388.883 94.8946 388.883 93.7765C388.883 92.6585 389.333 91.5862 390.133 90.7956C390.934 90.0049 392.019 89.5608 393.151 89.5608H431.564C432.696 89.5608 433.781 90.0049 434.582 90.7956C435.382 91.5862 435.832 92.6585 435.832 93.7765C435.832 94.8946 435.382 95.9669 434.582 96.7575C433.781 97.5481 432.696 97.9923 431.564 97.9923Z" fill="#2F2E41"/>
<path id="Vector_69" d="M329.031 397.825V395.526C329.031 394.648 328.691 393.803 328.08 393.164C327.47 392.526 326.635 392.142 325.748 392.091V383.115H324.975V392.081H321.499V397.804H305.082V463.621H341.392V410.728C341.392 407.424 340.111 404.246 337.812 401.846C335.513 399.446 332.371 398.007 329.031 397.825Z" fill="#2F2E41"/>
<path id="Vector_70" d="M315.898 407.152H311.069V410.967H315.898V407.152Z" fill="white"/>
<path id="Vector_71" d="M323.816 407.152H318.988V410.967H323.816V407.152Z" fill="white"/>
<path id="Vector_72" d="M331.735 407.152H326.906V410.967H331.735V407.152Z" fill="white"/>
<path id="Vector_73" d="M315.898 416.881H311.069V420.697H315.898V416.881Z" fill="white"/>
<path id="Vector_74" d="M323.816 416.881H318.988V420.697H323.816V416.881Z" fill="white"/>
<path id="Vector_75" d="M331.735 416.881H326.906V420.697H331.735V416.881Z" fill="white"/>
<path id="Vector_76" d="M315.898 426.611H311.069V430.426H315.898V426.611Z" fill="white"/>
<path id="Vector_77" d="M323.816 426.611H318.988V430.426H323.816V426.611Z" fill="white"/>
<path id="Vector_78" d="M331.735 426.611H326.906V430.426H331.735V426.611Z" fill="white"/>
<path id="Vector_79" d="M315.898 436.34H311.069V440.155H315.898V436.34Z" fill="white"/>
<path id="Vector_80" d="M323.816 436.34H318.988V440.155H323.816V436.34Z" fill="white"/>
<path id="Vector_81" d="M331.735 436.34H326.906V440.155H331.735V436.34Z" fill="white"/>
<path id="Vector_82" d="M315.898 446.069H311.069V449.885H315.898V446.069Z" fill="white"/>
<path id="Vector_83" d="M323.816 446.069H318.988V449.885H323.816V446.069Z" fill="white"/>
<path id="Vector_84" d="M331.735 446.069H326.906V449.885H331.735V446.069Z" fill="white"/>
<path id="Vector_85" d="M315.898 455.799H311.069V459.614H315.898V455.799Z" fill="white"/>
<path id="Vector_86" d="M323.816 455.799H318.988V459.614H323.816V455.799Z" fill="white"/>
<path id="Vector_87" d="M331.735 455.799H326.906V459.614H331.735V455.799Z" fill="white"/>
<path id="Vector_88" d="M293.001 365.754H291.889V358.993C291.889 358.079 291.522 357.203 290.867 356.557C290.213 355.911 289.326 355.548 288.401 355.548H283.584V345.818H282.811V355.548H276.245V365.754H269.774V463.621H306.085V378.678C306.085 376.981 305.746 375.3 305.089 373.732C304.431 372.164 303.468 370.74 302.253 369.539C301.038 368.339 299.595 367.387 298.008 366.738C296.42 366.088 294.719 365.754 293.001 365.754Z" fill="#2F2E41"/>
<path id="Vector_89" d="M295.752 373.48H280.107V374.625H295.752V373.48Z" fill="white"/>
<path id="Vector_90" d="M295.752 380.539H280.107V381.684H295.752V380.539Z" fill="white"/>
<path id="Vector_91" d="M295.752 387.598H280.107V388.742H295.752V387.598Z" fill="white"/>
<path id="Vector_92" d="M295.752 394.656H280.107V395.801H295.752V394.656Z" fill="white"/>
<path id="Vector_93" d="M295.752 401.715H280.107V402.859H295.752V401.715Z" fill="white"/>
<path id="Vector_94" d="M295.752 408.773H280.107V409.918H295.752V408.773Z" fill="white"/>
<path id="Vector_95" d="M295.752 415.832H280.107V416.977H295.752V415.832Z" fill="white"/>
<path id="Vector_96" d="M295.752 422.891H280.107V424.035H295.752V422.891Z" fill="white"/>
<path id="Vector_97" d="M295.752 429.949H280.107V431.094H295.752V429.949Z" fill="white"/>
<path id="Vector_98" d="M295.752 437.008H280.107V438.152H295.752V437.008Z" fill="white"/>
<path id="Vector_99" d="M295.752 444.066H280.107V445.211H295.752V444.066Z" fill="white"/>
<path id="Vector_100" d="M295.752 451.125H280.107V452.27H295.752V451.125Z" fill="white"/>
<path id="Vector_101" d="M286.481 357.646H281.652V361.462H286.481V357.646Z" fill="white"/>
<path id="Vector_102" d="M441.087 404.185V409.798C440.209 410.906 439.319 412.014 438.417 413.104C438.222 413.345 438.026 413.58 437.837 413.815C437.539 414.17 437.246 414.525 436.953 414.875C436.856 414.995 436.758 415.11 436.655 415.23C436.155 415.82 435.655 416.41 435.142 417.001C435.142 417.001 435.149 417.007 435.142 417.007C434.649 417.585 434.149 418.163 433.643 418.741C433.368 419.06 433.088 419.374 432.801 419.693C432.38 420.181 431.947 420.662 431.508 421.144C431.502 421.15 431.502 421.156 431.496 421.162L431.478 421.18V404.185L441.087 404.185Z" fill="#2F2E41"/>
<path id="Vector_103" d="M453.623 392.477C452.026 394.91 450.386 397.307 448.703 399.668C448.703 399.674 448.697 399.674 448.691 399.68C447.684 401.101 446.654 402.511 445.618 403.908C444.953 404.799 444.282 405.686 443.605 406.57C442.929 407.455 442.246 408.332 441.557 409.202C441.404 409.4 441.246 409.599 441.087 409.798C440.209 410.906 439.319 412.014 438.417 413.104C438.222 413.345 438.026 413.58 437.837 413.815C437.539 414.17 437.246 414.525 436.953 414.875C436.85 414.995 436.752 415.11 436.655 415.23C436.155 415.82 435.655 416.41 435.142 417.001C435.142 417.001 435.149 417.007 435.142 417.007C434.649 417.585 434.149 418.163 433.643 418.741C433.368 419.06 433.088 419.374 432.801 419.693H412.894C410.769 419.691 408.732 418.857 407.23 417.373C405.728 415.89 404.883 413.877 404.882 411.779V400.391C404.884 398.293 405.729 396.281 407.231 394.798C408.733 393.314 410.77 392.48 412.894 392.477H453.623Z" fill="#2F2E41"/>
<path id="Vector_104" d="M464.152 294.998C462.928 294.58 461.642 294.369 460.347 294.371H457.073C455.88 294.372 454.694 294.549 453.555 294.895C451.151 295.642 449.05 297.125 447.558 299.131C446.066 301.137 445.259 303.56 445.256 306.049V401.054C445.256 401.41 445.275 401.759 445.305 402.102C445.358 402.712 445.462 403.316 445.616 403.909C446.653 402.512 447.683 401.102 448.689 399.681C448.695 399.675 448.701 399.675 448.701 399.669C450.384 397.308 452.024 394.911 453.622 392.478C454.482 391.171 455.335 389.852 456.17 388.527C462.207 378.962 467.553 368.988 472.17 358.68V306.049C472.167 303.611 471.393 301.235 469.955 299.253C468.517 297.272 466.488 295.784 464.152 294.998Z" fill="#2F2E41"/>
<path id="Vector_105" d="M324.574 466.073L315.592 461.821L314.184 461.153L311.934 466.609L296.227 470.024C295.451 470.192 294.749 470.601 294.225 471.191C293.7 471.782 293.38 472.522 293.312 473.304C293.244 474.087 293.431 474.87 293.846 475.54C294.261 476.21 294.882 476.731 295.618 477.028L310.965 483.213L315.836 478.883L314.641 484.695L320.421 487.025L326.756 467.109L324.574 466.073Z" fill="#2F2E41"/>
<path id="Vector_106" d="M387.255 459.863V459.995L387.084 459.977C386.883 460.122 386.681 460.254 386.48 460.393C385.023 461.381 383.553 462.352 382.072 463.308C381.346 463.778 380.621 464.241 379.889 464.699V464.705C379.883 464.705 379.877 464.711 379.871 464.711H379.865L379.852 464.723L379.816 464.741C379.798 464.753 379.785 464.759 379.767 464.771V353.439C379.767 350.211 378.67 347.591 377.322 347.585H275.809C274.455 347.591 273.364 350.211 273.358 353.439V501.268C272.004 501.4 270.651 501.527 269.297 501.635C269.273 501.635 269.248 501.641 269.224 501.641C268.687 501.689 268.151 501.725 267.614 501.768H267.608C267.285 501.177 266.968 500.581 266.651 499.979V345.845C266.651 344.953 266.687 344.056 266.748 343.171C266.835 341.955 266.988 340.745 267.206 339.545C268.236 333.95 270.565 330.162 273.212 330.15H379.913C380.3 330.153 380.681 330.233 381.035 330.385C381.555 330.612 382.025 330.938 382.419 331.343C382.954 331.892 383.412 332.51 383.779 333.18C385.084 335.45 386.017 338.835 386.346 342.773C386.346 342.809 386.352 342.846 386.352 342.882C386.437 343.857 386.48 344.851 386.474 345.845L386.559 358.751L386.614 366.448L386.779 390.598L386.84 399.174L387.255 459.863Z" fill="#2F2E41"/>
<g id="monitor">
<path id="Vector_107" d="M307.407 294.345L300.346 325.032L295.834 329.914H292.579L305.995 274.118L306.658 283.597V283.604L307.407 294.345Z" fill="#2F2E41"/>
<path id="Vector_108" opacity="0.17" d="M292.627 154.885L313.082 313.375L312.86 313.685L312.386 314.352C312.141 314.692 311.783 314.935 311.374 315.039L310.305 315.304C310.063 315.364 309.811 315.372 309.566 315.328C309.321 315.285 309.087 315.191 308.882 315.052C308.676 314.914 308.502 314.734 308.371 314.524C308.24 314.314 308.155 314.08 308.123 313.836L287.115 155.952C287.054 155.494 287.18 155.03 287.465 154.663C287.75 154.296 288.171 154.057 288.635 153.996L290.322 153.777C290.551 153.747 290.784 153.761 291.007 153.82C291.23 153.88 291.439 153.982 291.621 154.122L292.627 154.885Z" fill="black"/>
<path id="Vector_109" d="M341.39 325.707L299.965 325.448L296.288 325.424L293.666 325.405L290.612 325.387H290.587C290.144 325.388 289.719 325.561 289.404 325.869L284.246 330.964C284.132 331.075 284.039 331.206 283.972 331.35C283.94 331.39 283.913 331.435 283.892 331.482C283.781 331.738 283.735 332.018 283.758 332.296C283.782 332.574 283.874 332.842 284.027 333.076C284.18 333.311 284.389 333.504 284.636 333.64C284.882 333.776 285.159 333.85 285.441 333.855H339.103C339.425 333.854 339.74 333.763 340.012 333.592C340.284 333.422 340.502 333.179 340.64 332.891L341.06 331.988L341.926 330.151L342.908 328.079C343.013 327.859 343.067 327.618 343.066 327.375C343.064 326.935 342.887 326.514 342.573 326.202C342.26 325.89 341.835 325.712 341.39 325.707Z" fill="#2F2E41"/>
<path id="Vector_110" opacity="0.17" d="M341.06 331.987L340.637 332.893C340.499 333.18 340.282 333.422 340.011 333.593C339.74 333.763 339.426 333.854 339.104 333.856H285.44C285.158 333.851 284.881 333.777 284.635 333.641C284.388 333.506 284.179 333.312 284.027 333.078C283.874 332.843 283.782 332.575 283.758 332.297C283.735 332.02 283.782 331.74 283.894 331.484C283.913 331.437 283.939 331.392 283.972 331.352L341.06 331.987Z" fill="black"/>
<path id="Vector_111" opacity="0.17" d="M306.658 283.597V283.604L295.17 329.914H292.579L305.995 274.118L306.658 283.597Z" fill="black"/>
<path id="Vector_112" d="M320.757 292.083L304.495 169.88C304.436 169.422 304.194 169.006 303.824 168.724L292.63 154.884L291.624 154.119C291.251 153.841 290.783 153.717 290.319 153.776L288.636 153.999C288.172 154.058 287.751 154.297 287.465 154.663C287.179 155.029 287.052 155.492 287.112 155.95L303.965 282.567V282.573L304.995 290.318L306.221 299.515V299.527L308.123 313.836C308.153 314.081 308.237 314.317 308.369 314.527C308.5 314.737 308.677 314.917 308.885 315.053C309.09 315.192 309.323 315.287 309.568 315.331C309.813 315.374 310.064 315.366 310.306 315.306L311.373 315.041C311.782 314.937 312.14 314.694 312.385 314.354L312.861 313.686L313.08 313.373L320.446 293.318C320.704 292.96 320.815 292.519 320.757 292.083Z" fill="#2F2E41"/>
<path id="Vector_113" d="M293.23 159.417L304.085 174.721L316.986 271.684L309.992 285.391L293.23 159.417Z" fill="white"/>
</g>
<path id="Vector_114" d="M457.086 354.909C457.086 355.968 456.761 357.002 456.154 357.875C455.546 358.748 454.685 359.419 453.684 359.799C453.209 359.979 452.71 360.088 452.202 360.124C452.068 360.136 451.928 360.142 451.794 360.142H441.557V409.202C441.404 409.4 441.246 409.599 441.087 409.798C440.209 410.906 439.319 412.014 438.417 413.104C438.221 413.345 438.026 413.58 437.837 413.815C437.539 414.17 437.246 414.525 436.953 414.875C436.85 414.995 436.752 415.11 436.654 415.23C436.154 415.82 435.654 416.41 435.142 417.001C435.142 417.001 435.148 417.007 435.142 417.007C434.648 417.585 434.148 418.163 433.642 418.741C432.719 418.232 431.974 417.457 431.508 416.519C431.502 416.513 431.502 416.507 431.496 416.495C431.489 416.481 431.483 416.467 431.478 416.453C431.136 415.748 430.961 414.976 430.966 414.194V360.142H408.016C407.338 360.146 406.667 360.017 406.04 359.763C405.25 359.451 404.548 358.956 403.994 358.318C403.439 357.68 403.05 356.92 402.857 356.101V356.095C402.572 354.906 402.723 353.655 403.284 352.566C403.278 352.56 403.278 352.56 403.284 352.56C403.523 352.084 403.838 351.648 404.217 351.271C404.217 351.265 404.217 351.265 404.223 351.259C404.717 350.76 405.307 350.363 405.958 350.092C406.61 349.821 407.309 349.682 408.016 349.681H451.794C453.197 349.682 454.543 350.233 455.535 351.213C456.528 352.193 457.086 353.522 457.086 354.909Z" fill="#2F2E41"/>
<g id="girl">
<path id="Vector_115" d="M373.517 243.811H356.301C355.913 243.81 355.529 243.893 355.176 244.055C354.823 244.216 354.511 244.452 354.26 244.745C354.02 244.699 353.777 244.676 353.532 244.676C352.449 244.676 351.411 245.101 350.645 245.857C349.879 246.614 349.449 247.64 349.449 248.709C349.449 249.779 349.879 250.805 350.645 251.561C351.411 252.318 352.449 252.743 353.532 252.743C354.149 252.743 354.757 252.603 355.311 252.335L355.598 255.82L356.739 269.596C356.793 269.768 356.866 269.934 356.956 270.09C357.187 270.509 357.527 270.858 357.942 271.101C358.356 271.345 358.83 271.473 359.312 271.473H370.507C370.99 271.473 371.463 271.344 371.878 271.101C372.293 270.857 372.635 270.508 372.866 270.09C372.954 269.933 373.025 269.767 373.08 269.596L376.091 247.252C376.214 246.854 376.242 246.433 376.171 246.023C376.1 245.613 375.933 245.225 375.683 244.891C375.432 244.556 375.106 244.284 374.73 244.096C374.354 243.909 373.939 243.811 373.517 243.811ZM353.532 251.591C352.759 251.59 352.018 251.286 351.472 250.746C350.926 250.205 350.619 249.473 350.619 248.709C350.619 247.946 350.926 247.213 351.472 246.673C352.018 246.133 352.759 245.828 353.532 245.827C353.585 245.827 353.634 245.841 353.686 245.845C353.571 246.309 353.586 246.795 353.728 247.252L354.96 251.208C354.527 251.457 354.034 251.589 353.532 251.591V251.591Z" fill="#F2F2F2"/>
<g id="Group" opacity="0.49">
<path id="Vector_116" opacity="0.49" d="M364.708 234.758C364.847 234.576 364.973 234.384 365.085 234.185C364.868 234.274 364.645 234.343 364.416 234.393L364.708 234.758Z" fill="white"/>
<path id="Vector_117" opacity="0.49" d="M366.282 222.471C365.185 220.396 363.953 218.333 363.513 216.032C363.072 213.727 363.459 211.359 363.594 209.017C363.728 206.675 363.56 204.171 362.188 202.256C360.317 208.106 358.464 214.552 360.857 220.214C361.895 222.67 363.664 224.761 364.805 227.172C365.847 229.374 366.269 232.118 365.085 234.185C367.016 233.415 368.224 231.229 368.299 229.123C368.383 226.783 367.38 224.547 366.282 222.471Z" fill="white"/>
</g>
<g id="Group_2" opacity="0.49">
<path id="Vector_118" opacity="0.49" d="M362.639 242.587C362.693 242.516 362.742 242.442 362.785 242.364C362.701 242.399 362.614 242.426 362.525 242.445L362.639 242.587Z" fill="white"/>
<path id="Vector_119" opacity="0.49" d="M363.251 237.813C362.77 237.036 362.407 236.193 362.175 235.312C362.073 234.405 362.084 233.49 362.206 232.586C362.326 231.675 362.134 230.75 361.66 229.96C360.933 232.233 360.213 234.737 361.143 236.936C361.546 237.891 362.233 238.703 362.677 239.64C362.906 240.055 363.035 240.517 363.054 240.99C363.073 241.462 362.981 241.933 362.785 242.364C363.158 242.184 363.472 241.904 363.692 241.556C363.913 241.209 364.031 240.808 364.034 240.398C364.002 239.484 363.732 238.594 363.251 237.813Z" fill="white"/>
</g>
<path id="Vector_120" d="M321.922 471.669L313.621 467.748L325.023 433.477L337.275 439.264L321.922 471.669Z" fill="#FFB6B6"/>
<path id="Vector_121" d="M377.572 466.144C376.969 466.518 376.365 466.885 375.755 467.253C374.542 467.987 373.316 468.71 372.091 469.421C371.475 469.776 370.853 470.131 370.237 470.481V470.499L370.201 470.505L370.188 470.511L369.249 470.74L367.902 467.222L367.28 465.602L366.402 463.308L364.792 459.11L356.317 437.008L369.493 433.797L369.987 435.791H369.993L370.237 436.779L374.841 455.22L375.78 458.99L375.81 459.104L376.377 461.356L376.865 463.308L377.408 465.488L377.572 466.144Z" fill="#FFB6B6"/>
<path id="Vector_122" d="M343.966 322.712C345.15 324.612 347.038 325.979 349.229 326.521C351.419 327.064 353.737 326.74 355.688 325.617C356.081 325.383 356.453 325.116 356.801 324.821L383.044 339.697L381.904 324.427L357.158 312.642C355.812 311.306 354.054 310.449 352.162 310.205C350.269 309.962 348.348 310.345 346.7 311.296C344.814 312.415 343.455 314.228 342.922 316.337C342.389 318.446 342.726 320.677 343.858 322.54C343.893 322.598 343.929 322.655 343.966 322.712Z" fill="#FFB6B6"/>
<path id="Vector_123" d="M371.761 334.095L376.4 336.888L397.234 349.436C398.602 350.281 400.124 350.852 401.715 351.116C403.306 351.38 404.934 351.332 406.506 350.974C408.078 350.617 409.563 349.957 410.877 349.032C412.191 348.108 413.308 346.937 414.163 345.586L414.17 345.575C415.713 343.065 416.259 340.079 415.702 337.194L406.443 291.5C406.1 289.706 405.37 288.006 404.302 286.517C403.234 285.027 401.852 283.783 400.252 282.87C398.652 281.956 396.872 281.395 395.032 281.223C393.192 281.052 391.336 281.275 389.592 281.878C386.66 282.896 384.23 284.978 382.797 287.703C381.365 290.427 381.037 293.588 381.88 296.543L391.563 328.972L376.721 322.137L371.761 334.095Z" fill="#2F2E41"/>
<path id="Vector_124" d="M457.189 379.15C457.182 379.132 457.17 379.066 457.152 378.964L457.134 378.897C457.091 378.681 457.042 378.44 456.987 378.175C455.743 372.073 454.145 366.046 452.201 360.125C451.049 356.499 449.523 353 447.646 349.682C447.585 349.574 447.518 349.465 447.451 349.357L447.226 348.996L445.329 349.682L445.256 349.706L416.428 360.143L408.093 363.161L407.831 363.257L406.411 368.978L386.479 366.431L370.236 364.353L365.571 363.757C363.549 363.496 361.495 363.636 359.528 364.168C357.561 364.699 355.721 365.612 354.114 366.852C352.438 368.136 351.037 369.737 349.994 371.561C348.95 373.384 348.284 375.395 348.036 377.476C347.975 377.934 347.938 378.397 347.92 378.855L346.511 430.751V430.817L347.164 432.106L360.791 459.111H370.236L375.809 459.105H380.339L370.919 435.563L371.132 435.244C372.018 433.902 372.577 432.375 372.764 430.783C372.952 429.192 372.762 427.579 372.211 426.072L373.272 423.036C375.473 416.767 374.431 413.756 373.114 409.949C371.931 406.854 371.236 403.599 371.053 400.295L370.833 396.001C376.363 396.959 381.516 398.025 386.479 399.097C388.137 399.452 389.779 399.812 391.405 400.175C396.033 401.193 400.502 402.174 404.88 402.993C413.746 404.662 422.239 405.679 430.964 405.047C431.135 405.035 431.306 405.023 431.476 405.005C433.598 404.836 435.732 404.565 437.891 404.186C439.104 403.969 440.324 403.722 441.555 403.433C441.897 403.349 442.244 403.264 442.586 403.18C443.534 402.933 444.447 402.571 445.305 402.102C446.525 401.429 447.661 400.617 448.689 399.681C448.695 399.675 448.701 399.675 448.701 399.669C450.384 397.308 452.024 394.911 453.622 392.478C454.481 391.171 455.335 389.852 456.17 388.527C457.39 385.221 457.853 381.884 457.189 379.15Z" fill="#2F2E41"/>
<path id="Vector_125" d="M457.39 369.4C457.298 369.014 457.183 368.623 457.061 368.244C456.093 365.37 454.965 362.551 453.683 359.8C452.244 356.668 450.518 353.314 448.464 349.682C447.47 347.924 446.401 346.095 445.256 344.196C444.683 343.244 444.088 342.274 443.47 341.287C443.446 341.241 443.419 341.197 443.391 341.154L443.214 340.865L414.691 344.635L404.069 346.039L403.435 351.266L403.283 352.561C403.277 352.561 403.277 352.561 403.283 352.567L402.856 356.096V356.102L402.289 360.764L402.24 360.758L386.479 358.74L370.236 356.662L361.511 355.548C359.489 355.288 357.434 355.427 355.467 355.959C353.5 356.49 351.66 357.403 350.054 358.644C348.378 359.927 346.977 361.528 345.933 363.352C344.889 365.176 344.224 367.187 343.975 369.267C343.92 369.689 343.883 370.123 343.865 370.55L335.634 389.816C330.708 401.338 327.572 413.529 326.33 425.975L320.293 445.037L321.153 445.115L333.945 446.289L337.323 446.602L344.761 435.876C345.609 434.654 346.414 433.395 347.164 432.106C348.399 430.001 349.496 427.821 350.45 425.578L366.541 387.756C367.785 387.967 369.016 388.168 370.236 388.359C375.876 389.262 381.29 389.999 386.479 390.569C403.35 392.43 417.959 392.574 430.964 390.997C434.617 390.557 438.147 389.979 441.555 389.262C442.805 389.003 444.039 388.724 445.256 388.425C445.543 388.359 445.823 388.292 446.104 388.22C448.624 387.578 450.94 386.322 452.842 384.567C454.743 382.812 456.169 380.614 456.987 378.175C457.965 375.347 458.105 372.303 457.39 369.4Z" fill="#2F2E41"/>
<path id="Vector_126" d="M396.737 255.653C407.634 255.653 416.467 246.734 416.467 235.731C416.467 224.728 407.634 215.809 396.737 215.809C385.841 215.809 377.008 224.728 377.008 235.731C377.008 246.734 385.841 255.653 396.737 255.653Z" fill="#FFB6B6"/>
<path id="Vector_127" d="M443.586 341.955C443.555 341.732 443.519 341.51 443.47 341.287C443 338.842 441.781 336.445 440.604 334.12C439.482 331.904 438.415 329.808 437.976 327.724C437.543 325.67 437.8 323.611 438.05 321.623C438.318 319.467 438.598 317.239 437.97 315.077C434.785 304.035 430.411 293.362 424.922 283.242C423.537 278.792 420.882 274.83 417.276 271.833C413.669 268.836 409.264 266.929 404.588 266.343C405.134 265.336 405.361 264.19 405.24 263.054C405.164 262.32 404.941 261.609 404.584 260.961C404.227 260.312 403.743 259.741 403.161 259.278C402.602 258.833 401.959 258.502 401.269 258.303C400.579 258.105 399.857 258.043 399.143 258.122L389.973 259.14C388.502 259.322 387.165 260.07 386.25 261.222C385.335 262.373 384.918 263.835 385.089 265.289C385.14 265.736 385.242 266.177 385.394 266.602C376.882 277.31 372.51 287.066 372.108 296.293V296.299C372.059 297.364 372.065 298.432 372.126 299.497C372.319 302.941 373.077 306.332 374.37 309.536C375.897 313.238 377.941 316.711 380.443 319.853C380.955 320.491 381.485 321.117 382.034 321.732C382.546 322.334 383.119 322.966 383.753 323.629L385.357 326.11L386.851 328.429L394.838 346.635L398.905 346.502L399.472 350.507L399.606 351.441L402.24 360.758L402.435 361.456L406.039 359.764L427.538 349.682L443.61 342.142L443.586 341.955Z" fill="#2F2E41"/>
<path id="Vector_128" opacity="0.2" d="M374.611 309.44C376.444 313.875 379.021 317.973 382.234 321.562C382.784 322.211 383.365 322.848 383.973 323.487L387.094 328.324C398.599 319.806 407.921 286.267 407.921 286.267L394.94 283.773L374.611 309.44Z" fill="black"/>
<path id="Vector_129" d="M366.752 257.514C367.889 259.443 368.219 261.733 367.672 263.899C367.125 266.064 365.744 267.933 363.823 269.108C363.429 269.341 363.016 269.541 362.588 269.706L363.507 299.58L350.41 291.436L351.545 264.316C350.988 262.511 351.051 260.575 351.725 258.81C352.399 257.044 353.646 255.549 355.271 254.557C357.149 253.435 359.402 253.095 361.533 253.614C363.665 254.132 365.501 255.465 366.637 257.321C366.676 257.385 366.715 257.449 366.752 257.514Z" fill="#FFB6B6"/>
<path id="Vector_130" d="M364.659 288.303L350.255 290.326L350.875 319.787C350.911 321.889 351.49 323.947 352.558 325.765C353.626 327.583 355.146 329.102 356.976 330.176C359.21 331.474 361.812 332.02 364.388 331.731C366.965 331.443 369.376 330.334 371.259 328.574L405.264 296.267C407.656 294.026 409.088 290.963 409.265 287.711C409.441 284.458 408.349 281.262 406.214 278.78C404.121 276.333 401.13 274.808 397.898 274.539C394.667 274.271 391.459 275.281 388.982 277.348C388.885 277.429 388.79 277.512 388.695 277.595C388.359 277.892 388.04 278.207 387.738 278.537L365.285 304.051L364.659 288.303Z" fill="#2F2E41"/>
<path id="Vector_131" d="M449.532 227.091C446.179 223.228 444.584 218.103 441.903 213.716C439.222 209.329 434.557 205.403 429.628 206.424C426.23 207.128 423.605 210.089 422.275 213.391C420.946 216.692 420.697 220.333 420.464 223.9C420.546 216.57 415.657 209.464 408.922 207.125C402.188 204.786 394.128 207.395 389.896 213.284C388.049 211.593 385.638 210.631 383.121 210.578C380.603 210.526 378.154 211.388 376.237 213.001C372.451 216.343 371.614 222.703 374.398 226.966C377.181 231.228 383.21 232.816 387.634 230.452L389.199 231.873C388.318 234.914 390.025 238.507 392.895 239.652C395.223 240.581 398.508 240.426 399.379 242.838C399.988 244.524 398.85 246.323 397.64 247.618C396.43 248.913 394.994 250.251 394.849 252.043C394.629 254.748 397.458 256.642 400.03 257.213C406.232 258.589 413.113 255.752 416.688 250.346C416.757 250.242 416.832 250.137 416.913 250.033C418.918 247.499 420.38 244.589 421.208 241.479C422.036 238.369 422.214 235.125 421.73 231.945C421.529 230.695 421.731 229.766 422.603 229.47C426.373 228.191 436.935 230.876 440.131 233.302C443.328 235.728 445.887 238.938 448.966 241.521C452.045 244.104 455.968 246.096 459.878 245.393C463.009 244.829 465.672 242.584 467.464 239.876C469.255 237.168 470.286 234.011 471.21 230.874C464.286 234.825 454.811 233.171 449.532 227.091Z" fill="#2F2E41"/>
<path id="Vector_132" d="M389.68 212.402C394.214 218.348 400.142 232.71 397.986 239.843L389.68 212.402Z" fill="#FD6584"/>
</g>
<path id="Vector_133" d="M456.735 254.13C454.556 254.13 452.398 254.554 450.385 255.378C448.371 256.202 446.542 257.409 445.001 258.931C443.46 260.453 442.238 262.26 441.404 264.248C440.57 266.237 440.141 268.368 440.141 270.52V270.52C440.142 274.322 441.48 278.006 443.928 280.941C446.375 283.875 449.779 285.878 453.557 286.607V313.414H464.149V254.13H456.735Z" fill="#2F2E41"/>
</g>
<defs>
<filter id="filter0_d_39_407" x="0" y="0.5" width="497" height="510" filterUnits="userSpaceOnUse" color-interpolation-filters="sRGB">
<feFlood flood-opacity="0" result="BackgroundImageFix"/>
<feColorMatrix in="SourceAlpha" type="matrix" values="0 0 0 0 0 0 0 0 0 0 0 0 0 0 0 0 0 0 127 0" result="hardAlpha"/>
<feOffset dy="4"/>
<feGaussianBlur stdDeviation="2"/>
<feComposite in2="hardAlpha" operator="out"/>
<feColorMatrix type="matrix" values="0 0 0 0 0 0 0 0 0 0 0 0 0 0 0 0 0 0 0.25 0"/>
<feBlend mode="normal" in2="BackgroundImageFix" result="effect1_dropShadow_39_407"/>
<feBlend mode="normal" in="SourceGraphic" in2="effect1_dropShadow_39_407" result="shape"/>
</filter>
<clipPath id="clip0_39_407">
<rect width="489" height="502" fill="white" transform="translate(4 0.5)"/>
</clipPath>
</defs>
</svg>
