<svg width="585" height="326" viewBox="0 0 585 326" fill="none" xmlns="http://www.w3.org/2000/svg">
<g id="undraw_wordpress_utxt 1" clip-path="url(#clip0_104_141)" filter="url(#filter0_d_104_141)">
<g id="viewer_1">
<path id="Vector" d="M485.176 50.3351H251.038V98.4874H485.176V50.3351Z" stroke="#3F3D56" stroke-miterlimit="10"/>
<g id="Vector_2">
<path id="Vector_3" d="M468.6 59.6549H234.462V107.807H468.6V59.6549Z" fill="white"/>
</g>
</g>
<path id="Vector_4" d="M20.6882 106.409C22.2744 105.708 23.676 104.648 24.7826 103.313C25.8891 101.978 26.6703 100.404 27.0646 98.7161C27.4589 97.0279 27.4555 95.2713 27.0548 93.5846C26.654 91.8979 25.8667 90.3274 24.7551 88.9967C23.6435 87.666 22.2378 86.6116 20.6489 85.9166C19.06 85.2215 17.3314 84.9049 15.5992 84.9915C13.867 85.0782 12.1786 85.5658 10.6671 86.4159C9.15555 87.2661 7.86225 88.4555 6.8891 89.8905L11.0833 93.8524L5.69494 92.1786C4.63525 94.9381 4.71502 98.0053 5.91672 100.706C6.33414 101.656 6.88407 102.541 7.5501 103.336C9.10799 105.207 11.2334 106.518 13.6042 107.073C15.9749 107.627 18.4619 107.394 20.6882 106.409V106.409Z" fill="white"/>
<path id="Vector_5" d="M76.7229 145.27C72.6334 142.402 72.6326 136.381 73.6485 131.491C74.6643 126.602 76.215 121.268 73.9091 116.839C70.595 110.473 61.8838 110.09 54.7364 109.409C49.4329 108.904 44.2081 107.772 39.1712 106.037C37.1518 105.341 35.1296 104.528 33.4759 103.177C31.0945 101.231 29.6975 98.3603 28.3931 95.5758C24.0475 86.2996 19.9226 76.9243 16.0183 67.45" stroke="#3F3D56" stroke-miterlimit="10"/>
<path id="Vector_6" d="M19.9932 105.019C21.5794 104.318 22.9809 103.258 24.0875 101.923C25.194 100.588 25.9752 99.0149 26.3695 97.3267C26.7638 95.6385 26.7604 93.8819 26.3596 92.1952C25.9589 90.5086 25.1716 88.938 24.06 87.6073C22.9484 86.2766 21.5427 85.2222 19.9538 84.5272C18.365 83.8321 16.6363 83.5155 14.9041 83.6021C13.1719 83.6888 11.4835 84.1764 9.97196 85.0265C8.46045 85.8767 7.16715 87.0661 6.194 88.5011L10.3882 92.463L4.99984 90.7892C3.94015 93.5487 4.01992 96.6159 5.22162 99.3167C5.63904 100.266 6.18897 101.152 6.855 101.947C8.41289 103.817 10.5383 105.129 12.9091 105.683C15.2799 106.238 17.7668 106.005 19.9932 105.019V105.019Z" stroke="#3F3D56" stroke-miterlimit="10"/>
<path id="Vector_7" d="M6.34376 73.976C5.5828 72.2606 5.26602 70.3813 5.42262 68.5114C5.57923 66.6415 6.20417 64.841 7.23987 63.2759L11.7001 66.5886L8.94738 61.2556C10.6839 59.6379 12.8899 58.6136 15.2467 58.3307C17.6036 58.0478 19.9895 58.5209 22.0598 59.6816C24.1302 60.8424 25.7779 62.6308 26.7651 64.7886C27.7523 66.9464 28.0279 69.362 27.5521 71.6865C27.0763 74.0111 25.8738 76.1244 24.118 77.7213C22.3623 79.3182 20.1443 80.3161 17.7842 80.5708C15.4241 80.8256 13.0441 80.3241 10.9878 79.1387C8.9314 77.9534 7.30514 76.1455 6.34376 73.976V73.976Z" fill="white"/>
<path id="Vector_8" d="M5.41697 72.1237C4.65601 70.4083 4.33923 68.5291 4.49584 66.6591C4.65244 64.7892 5.27738 62.9887 6.31307 61.4236L10.7733 64.7363L8.0206 59.4033C9.75714 57.7856 11.9631 56.7613 14.32 56.4784C16.6768 56.1955 19.0627 56.6686 21.133 57.8294C23.2034 58.9901 24.8511 60.7785 25.8383 62.9363C26.8255 65.0941 27.1011 67.5097 26.6254 69.8342C26.1496 72.1588 24.947 74.2721 23.1913 75.869C21.4356 77.4659 19.2175 78.4638 16.8574 78.7186C14.4974 78.9733 12.1173 78.4718 10.061 77.2865C8.00463 76.1011 6.37837 74.2932 5.41699 72.1238L5.41697 72.1237Z" stroke="#3F3D56" stroke-miterlimit="10"/>
<path id="Vector_9" d="M53.3953 110.85C55.9094 109.737 57.9257 107.738 59.0599 105.234C60.1941 102.73 60.3669 99.8963 59.5454 97.2733C58.7238 94.6502 56.9653 92.4211 54.6051 91.0107C52.2449 89.6003 49.448 89.1073 46.7475 89.6257L48.863 93.7238L44.3512 90.3711C44.3416 90.3743 44.3322 90.3783 44.3232 90.383C42.9787 90.9784 41.7646 91.8327 40.7504 92.897C39.7362 93.9614 38.9417 95.215 38.4122 96.5863C37.3428 99.3558 37.4179 102.436 38.6209 105.151C39.8239 107.865 42.0564 109.99 44.8271 111.059C47.5978 112.128 50.6799 112.053 53.3953 110.85V110.85Z" fill="white"/>
<path id="Vector_10" d="M52.3915 109.036C54.9056 107.923 56.922 105.924 58.0562 103.42C59.1904 100.916 59.3632 98.0823 58.5416 95.4593C57.7201 92.8363 55.9616 90.6071 53.6014 89.1967C51.2412 87.7863 48.4443 87.2934 45.7438 87.8117L47.8593 91.9098L43.3475 88.5571C43.3379 88.5604 43.3285 88.5643 43.3194 88.569C41.9744 89.1641 40.7599 90.0182 39.7452 91.0826C38.7305 92.1469 37.9355 93.4006 37.4056 94.7721C36.8758 96.1436 36.6214 97.606 36.6571 99.0758C36.6928 100.546 37.0179 101.994 37.6137 103.338C38.2095 104.682 39.0644 105.896 40.1296 106.91C41.1948 107.924 42.4494 108.718 43.8217 109.247C45.194 109.776 46.6572 110.03 48.1276 109.994C49.598 109.958 51.0469 109.632 52.3915 109.036V109.036Z" stroke="#3F3D56" stroke-miterlimit="10"/>
<path id="Vector_11" d="M57.8656 132.33C59.9378 133.846 62.4684 134.604 65.0331 134.476C67.5978 134.348 70.0405 133.343 71.9516 131.628C73.8627 129.914 75.126 127.595 75.5296 125.06C75.9332 122.526 75.4525 119.929 74.1682 117.707C72.884 115.484 70.8742 113.77 68.4759 112.853C66.0776 111.936 63.4367 111.871 60.9961 112.669C58.5555 113.467 56.4636 115.079 55.0712 117.236C53.6789 119.392 53.0708 121.962 53.3488 124.513L62.1491 126.474L54.4707 128.32C55.2646 129.909 56.4289 131.284 57.8656 132.33V132.33Z" fill="white"/>
<path id="Vector_12" d="M57.1705 130.941C59.2427 132.457 61.7733 133.214 64.338 133.086C66.9027 132.959 69.3454 131.953 71.2565 130.239C73.1676 128.525 74.4309 126.206 74.8345 123.671C75.2381 121.136 74.7574 118.54 73.4731 116.317C72.1889 114.095 70.1791 112.381 67.7808 111.464C65.3825 110.546 62.7416 110.481 60.301 111.279C57.8604 112.077 55.7685 113.69 54.3762 115.846C52.9838 118.003 52.3757 120.572 52.6537 123.124L61.454 125.085L53.7756 126.93C54.5695 128.52 55.7338 129.895 57.1705 130.941V130.941Z" stroke="#3F3D56" stroke-miterlimit="10"/>
<path id="Vector_13" d="M543.532 237.839C545.006 238.624 546.642 239.055 548.311 239.1C549.98 239.145 551.637 238.801 553.15 238.097C554.664 237.392 555.993 236.346 557.033 235.041C558.073 233.735 558.796 232.206 559.144 230.574C559.492 228.941 559.456 227.251 559.038 225.635C558.621 224.019 557.834 222.522 556.739 221.262C555.644 220.002 554.272 219.013 552.729 218.374C551.187 217.735 549.517 217.462 547.852 217.578L547.341 223.107L545.408 218.033C542.687 218.87 540.41 220.753 539.078 223.267C538.606 224.147 538.262 225.09 538.055 226.067C537.563 228.357 537.832 230.746 538.82 232.87C539.809 234.995 541.463 236.739 543.532 237.839Z" fill="#E9FFF7"/>
<path id="Vector_14" d="M547.374 303.353C547.118 298.553 551.68 294.975 555.989 292.84C560.298 290.704 565.261 288.709 567.248 284.331C570.103 278.04 565.218 271.217 561.487 265.401C558.719 261.085 556.473 256.457 554.795 251.613C554.123 249.67 553.537 247.656 553.579 245.601C553.639 242.642 554.984 239.879 556.319 237.237C560.767 228.435 565.422 219.742 570.282 211.157" stroke="#3F3D56" stroke-miterlimit="10"/>
<path id="Vector_15" d="M544.172 236.488C545.646 237.272 547.282 237.704 548.951 237.748C550.62 237.793 552.276 237.45 553.79 236.745C555.304 236.041 556.633 234.995 557.673 233.689C558.713 232.383 559.436 230.854 559.784 229.222C560.132 227.59 560.096 225.899 559.678 224.283C559.261 222.667 558.474 221.17 557.379 219.91C556.284 218.65 554.912 217.662 553.369 217.022C551.827 216.383 550.157 216.11 548.492 216.226L547.981 221.756L546.048 216.681C543.327 217.519 541.05 219.401 539.718 221.916C539.246 222.796 538.902 223.738 538.695 224.715C538.203 227.006 538.472 229.394 539.46 231.519C540.448 233.643 542.103 235.388 544.172 236.488V236.488Z" stroke="#3F3D56" stroke-miterlimit="10"/>
<path id="Vector_16" d="M559.588 207.71C560.436 206.114 561.672 204.758 563.182 203.766C564.692 202.773 566.428 202.177 568.229 202.031L568.369 207.376L570.775 202.124C573.033 202.477 575.119 203.539 576.734 205.155C578.349 206.772 579.408 208.859 579.758 211.116C580.109 213.373 579.732 215.684 578.684 217.713C577.635 219.742 575.968 221.386 573.924 222.407C571.879 223.428 569.563 223.773 567.31 223.392C565.057 223.012 562.983 221.925 561.388 220.29C559.792 218.654 558.758 216.554 558.435 214.293C558.111 212.032 558.515 209.727 559.588 207.71Z" fill="#E9FFF7"/>
<path id="Vector_17" d="M560.441 205.908C561.289 204.312 562.525 202.956 564.035 201.963C565.545 200.971 567.281 200.374 569.083 200.229L569.222 205.574L571.628 200.321C573.886 200.675 575.973 201.737 577.587 203.353C579.202 204.969 580.261 207.057 580.611 209.314C580.962 211.571 580.585 213.881 579.537 215.911C578.488 217.94 576.821 219.584 574.777 220.605C572.733 221.626 570.416 221.971 568.163 221.59C565.91 221.21 563.836 220.123 562.241 218.488C560.645 216.852 559.611 214.752 559.288 212.491C558.964 210.23 559.368 207.924 560.441 205.908Z" stroke="#3F3D56" stroke-miterlimit="10"/>
<path id="Vector_18" d="M559.598 265.242C561.936 266.484 564.649 266.823 567.22 266.194C569.792 265.565 572.042 264.013 573.541 261.832C575.041 259.652 575.686 256.996 575.352 254.371C575.019 251.746 573.731 249.335 571.733 247.599L569.885 251.635L569.745 246.227C569.737 246.222 569.728 246.217 569.719 246.213C568.469 245.548 567.1 245.135 565.69 244.999C564.281 244.863 562.858 245.005 561.503 245.419C560.149 245.833 558.889 246.509 557.796 247.409C556.703 248.31 555.799 249.416 555.134 250.666C554.469 251.916 554.057 253.285 553.922 254.694C553.786 256.103 553.93 257.525 554.345 258.879C554.759 260.232 555.437 261.491 556.338 262.583C557.24 263.675 558.347 264.578 559.598 265.242V265.242Z" fill="#E9FFF7"/>
<path id="Vector_19" d="M560.377 263.404C562.714 264.646 565.427 264.985 567.999 264.356C570.57 263.728 572.82 262.175 574.32 259.994C575.819 257.814 576.464 255.158 576.13 252.533C575.797 249.908 574.509 247.498 572.512 245.761L570.663 249.798L570.523 244.39C570.515 244.384 570.506 244.38 570.497 244.376C569.247 243.711 567.878 243.298 566.469 243.162C565.059 243.026 563.637 243.169 562.282 243.583C560.928 243.996 559.669 244.673 558.576 245.573C557.483 246.473 556.579 247.58 555.914 248.83C555.249 250.079 554.837 251.448 554.702 252.857C554.566 254.266 554.71 255.688 555.124 257.041C555.539 258.395 556.216 259.653 557.117 260.745C558.018 261.837 559.126 262.741 560.377 263.404V263.404Z" stroke="#3F3D56" stroke-miterlimit="10"/>
<path id="Vector_20" d="M545.976 281.388C546.059 283.858 546.988 286.224 548.609 288.09C550.229 289.956 552.442 291.208 554.877 291.636C557.312 292.065 559.819 291.644 561.98 290.443C564.141 289.243 565.823 287.336 566.744 285.043C567.666 282.75 567.77 280.211 567.04 277.85C566.311 275.489 564.791 273.451 562.736 272.077C560.681 270.703 558.217 270.078 555.755 270.305C553.293 270.532 550.985 271.598 549.216 273.324L552.959 281.152L546.999 276.435C546.266 277.981 545.915 279.679 545.976 281.388Z" fill="#E9FFF7"/>
<path id="Vector_21" d="M546.616 280.037C546.698 282.506 547.628 284.872 549.248 286.738C550.869 288.604 553.082 289.856 555.517 290.285C557.951 290.713 560.459 290.292 562.62 289.091C564.781 287.891 566.463 285.984 567.384 283.692C568.305 281.399 568.41 278.859 567.68 276.498C566.951 274.137 565.431 272.099 563.376 270.725C561.321 269.352 558.856 268.726 556.395 268.953C553.933 269.18 551.625 270.246 549.856 271.973L553.599 279.8L547.638 275.083C546.906 276.629 546.555 278.327 546.616 280.037Z" stroke="#3F3D56" stroke-miterlimit="10"/>
<path id="Vector_22" d="M63.6827 61.8806C65.2689 61.1794 66.6705 60.1197 67.7771 58.7847C68.8836 57.4498 69.6648 55.8762 70.0591 54.188C70.4534 52.4999 70.45 50.7432 70.0492 49.0565C69.6485 47.3699 68.8612 45.7993 67.7496 44.4686C66.6379 43.138 65.2323 42.0836 63.6434 41.3885C62.0545 40.6935 60.3259 40.3768 58.5936 40.4635C56.8614 40.5501 55.173 41.0377 53.6615 41.8879C52.15 42.738 50.8567 43.9275 49.8836 45.3624L54.0778 49.3244L48.6894 47.6505C47.6297 50.41 47.7095 53.4772 48.9112 56.178C49.3286 57.1275 49.8785 58.013 50.5446 58.8082C52.1025 60.6785 54.2278 61.9902 56.5986 62.5446C58.9694 63.0991 61.4564 62.8659 63.6827 61.8806V61.8806Z" fill="white"/>
<path id="Vector_23" d="M76.4704 58.6487C74.0889 56.7025 72.692 53.8323 71.3875 51.0477C67.042 41.7715 62.9171 32.3962 59.0128 22.9219" stroke="#3F3D56" stroke-miterlimit="10"/>
<path id="Vector_24" d="M62.9876 60.4913C64.5738 59.7902 65.9754 58.7304 67.0819 57.3954C68.1885 56.0605 68.9697 54.4869 69.364 52.7988C69.7583 51.1106 69.7549 49.3539 69.3541 47.6673C68.9533 45.9806 68.1661 44.41 67.0545 43.0794C65.9428 41.7487 64.5372 40.6943 62.9483 39.9992C61.3594 39.3042 59.6307 38.9875 57.8985 39.0742C56.1663 39.1608 54.4779 39.6485 52.9664 40.4986C51.4549 41.3487 50.1616 42.5382 49.1885 43.9731L53.3827 47.9351L47.9943 46.2612C46.9346 49.0208 47.0144 52.088 48.2161 54.7888C48.6335 55.7382 49.1834 56.6237 49.8495 57.4189C51.4074 59.2892 53.5327 60.6009 55.9035 61.1553C58.2743 61.7098 60.7613 61.4766 62.9876 60.4913V60.4913Z" stroke="#3F3D56" stroke-miterlimit="10"/>
<path id="Vector_25" d="M49.3382 29.4481C48.5772 27.7326 48.2605 25.8534 48.4171 23.9834C48.5737 22.1135 49.1986 20.313 50.2343 18.7479L54.6946 22.0606L51.9418 16.7276C53.6784 15.1099 55.8843 14.0857 58.2412 13.8028C60.5981 13.5198 62.9839 13.9929 65.0543 15.1537C67.1246 16.3145 68.7723 18.1028 69.7596 20.2606C70.7468 22.4185 71.0224 24.834 70.5466 27.1586C70.0708 29.4832 68.8682 31.5964 67.1125 33.1933C65.3568 34.7902 63.1388 35.7881 60.7787 36.0429C58.4186 36.2977 56.0386 35.7962 53.9822 34.6108C51.9259 33.4254 50.2996 31.6175 49.3382 29.4481V29.4481Z" fill="white"/>
<path id="Vector_26" d="M48.4114 27.5958C47.6505 25.8804 47.3337 24.0011 47.4903 22.1312C47.6469 20.2612 48.2718 18.4607 49.3075 16.8957L53.7678 20.2083L51.0151 14.8754C52.7516 13.2576 54.9575 12.2334 57.3144 11.9505C59.6713 11.6676 62.0571 12.1406 64.1275 13.3014C66.1978 14.4622 67.8456 16.2506 68.8328 18.4084C69.82 20.5662 70.0956 22.9817 69.6198 25.3063C69.144 27.6309 67.9414 29.7442 66.1857 31.3411C64.43 32.938 62.212 33.9358 59.8519 34.1906C57.4918 34.4454 55.1118 33.9439 53.0554 32.7585C50.9991 31.5731 49.3728 29.7652 48.4114 27.5958L48.4114 27.5958Z" stroke="#3F3D56" stroke-miterlimit="10"/>
<g id="screen">
<path id="Vector_27" d="M86.4515 13.7031C88.4542 13.7031 90.0776 12.0804 90.0776 10.0786C90.0776 8.07693 88.4542 6.45422 86.4515 6.45422C84.4489 6.45422 82.8254 8.07693 82.8254 10.0786C82.8254 12.0804 84.4489 13.7031 86.4515 13.7031Z" fill="#6C63FF"/>
<path id="Vector_28" d="M98.8837 13.7031C100.886 13.7031 102.51 12.0804 102.51 10.0786C102.51 8.07693 100.886 6.45422 98.8837 6.45422C96.881 6.45422 95.2576 8.07693 95.2576 10.0786C95.2576 12.0804 96.881 13.7031 98.8837 13.7031Z" fill="#6C63FF"/>
<path id="Vector_29" d="M111.316 13.7031C113.318 13.7031 114.942 12.0804 114.942 10.0786C114.942 8.07693 113.318 6.45422 111.316 6.45422C109.313 6.45422 107.69 8.07693 107.69 10.0786C107.69 12.0804 109.313 13.7031 111.316 13.7031Z" fill="#6C63FF"/>
<path id="Vector_30" d="M511.734 0.758911H76.6096V283.46H511.734V0.758911Z" stroke="white" stroke-miterlimit="10"/>
<path id="Vector_31" d="M76.6096 16.4653H511.734" stroke="#3F3D56" stroke-miterlimit="10"/>
<path id="Vector_32" d="M87.4875 12.1498C89.4902 12.1498 91.1136 10.5271 91.1136 8.52542C91.1136 6.52371 89.4902 4.901 87.4875 4.901C85.4849 4.901 83.8615 6.52371 83.8615 8.52542C83.8615 10.5271 85.4849 12.1498 87.4875 12.1498Z" stroke="#3F3D56" stroke-miterlimit="10"/>
<path id="Vector_33" d="M99.9197 12.1498C101.922 12.1498 103.546 10.5271 103.546 8.52542C103.546 6.52371 101.922 4.901 99.9197 4.901C97.917 4.901 96.2936 6.52371 96.2936 8.52542C96.2936 10.5271 97.917 12.1498 99.9197 12.1498Z" stroke="#3F3D56" stroke-miterlimit="10"/>
<path id="Vector_34" d="M112.352 12.1498C114.354 12.1498 115.978 10.5271 115.978 8.52542C115.978 6.52371 114.354 4.901 112.352 4.901C110.349 4.901 108.726 6.52371 108.726 8.52542C108.726 10.5271 110.349 12.1498 112.352 12.1498Z" stroke="#3F3D56" stroke-miterlimit="10"/>
<path id="Vector_35" d="M213.221 16.4653V283.862" stroke="white" stroke-miterlimit="10"/>
</g>
<g id="viewer_4">
<path id="Vector_36" d="M338.322 228.188H262.175V238.544H338.322V228.188Z" fill="#F2F2F2"/>
<path id="Vector_37" d="M342.466 223.01H266.319V233.366H342.466V223.01Z" stroke="#3F3D56" stroke-miterlimit="10"/>
</g>
<g id="viewer_3">
<path id="Vector_38" d="M458.24 187.026H262.434V197.381H458.24V187.026Z" fill="#F2F2F2"/>
<path id="Vector_39" d="M462.384 182.884H266.578V193.239H462.384V182.884Z" stroke="#3F3D56" stroke-miterlimit="10"/>
</g>
<g id="viewer_2">
<path id="Vector_40" d="M338.322 147.934H262.175V158.29H338.322V147.934Z" fill="#F2F2F2"/>
<path id="Vector_41" d="M457.981 147.934H381.834V158.29H457.981V147.934Z" fill="#F2F2F2"/>
<path id="Vector_42" d="M342.466 142.757H266.319V153.112H342.466V142.757Z" stroke="#3F3D56" stroke-miterlimit="10"/>
<path id="Vector_43" d="M462.125 142.757H385.978V153.112H462.125V142.757Z" stroke="#3F3D56" stroke-miterlimit="10"/>
</g>
<path id="Vector_44" d="M536.308 288.697C536.307 289.593 536.021 290.466 535.49 291.189C534.96 291.912 534.212 292.447 533.357 292.717C532.527 292.979 531.647 293.047 530.787 292.916C529.926 292.785 529.107 292.458 528.393 291.96C527.96 291.659 527.618 291.246 527.402 290.765C527.186 290.284 527.104 289.753 527.166 289.23L527.286 288.229L527.72 284.582L528.316 279.557C528.316 279.557 534.731 276.291 534.304 277.524C534.143 277.985 534.498 280.058 535.006 282.475C535.368 284.203 535.806 286.104 536.193 287.717C536.27 288.038 536.308 288.367 536.308 288.697V288.697Z" fill="#FBBEBE"/>
<path id="Vector_45" opacity="0.1" d="M526.772 288.421C526.772 288.421 532.327 281.9 536.874 289.014L536.111 293.572H526.772V288.421Z" fill="black"/>
<path id="Vector_46" opacity="0.1" d="M535.006 282.475C532.23 285.196 529.575 285.366 527.72 284.582L528.316 279.557C528.316 279.557 534.731 276.291 534.304 277.524C534.143 277.985 534.498 280.058 535.006 282.475Z" fill="black"/>
<path id="Vector_47" opacity="0.1" d="M488.21 251.213C488.21 251.213 481.884 255.9 480.132 256.238C478.381 256.577 488.21 251.213 488.21 251.213Z" fill="black"/>
<g id="Group" opacity="0.1">
<path id="Vector_48" opacity="0.1" d="M521.535 151.964C521.046 151.666 520.651 151.235 520.398 150.721C517.2 145.487 514.287 140.085 511.671 134.538C510.991 133.248 510.505 131.865 510.23 130.433C510.009 128.907 510.25 127.357 510.331 125.818C510.451 123.527 510.216 121.231 509.633 119.013C509.318 117.505 508.614 116.105 507.591 114.953C506.488 113.941 505.13 113.246 503.663 112.942C500.338 112.099 496.852 112.297 493.423 112.209C491.641 112.163 489.737 111.992 488.344 110.88C487.805 110.444 487.406 109.858 487.2 109.196C486.993 108.534 486.988 107.826 487.184 107.16C487.094 107.245 486.998 107.322 486.895 107.391C485.566 108.547 486.057 110.905 487.441 112.01C488.833 113.122 490.737 113.292 492.519 113.338C495.949 113.427 499.434 113.228 502.759 114.071C504.226 114.375 505.584 115.07 506.688 116.082C507.711 117.235 508.414 118.634 508.729 120.142C509.312 122.361 509.547 124.656 509.428 126.947C509.347 128.487 509.105 130.036 509.327 131.562C509.601 132.994 510.087 134.378 510.767 135.667C513.383 141.214 516.297 146.616 519.495 151.85C519.748 152.364 520.142 152.796 520.632 153.094C521.448 153.487 522.407 153.088 523.221 152.692C523.154 152.465 523.091 152.237 523.032 152.007C522.545 152.181 522.011 152.165 521.535 151.964V151.964Z" fill="black"/>
<path id="Vector_49" opacity="0.1" d="M486.747 107.489C486.801 107.456 486.848 107.424 486.895 107.391C486.904 107.383 486.911 107.374 486.92 107.367L486.747 107.489Z" fill="black"/>
<path id="Vector_50" opacity="0.1" d="M487.799 106.262C487.751 106.294 487.705 106.327 487.65 106.36L487.824 106.237C487.815 106.245 487.808 106.254 487.799 106.262C488.871 105.529 488.247 104.944 488.668 103.569C489.259 101.421 490.19 99.382 491.425 97.5281C491.128 97.8554 490.848 98.199 490.589 98.5572C489.317 100.436 488.362 102.51 487.764 104.698C487.632 105.3 487.558 105.913 487.543 106.529C487.621 106.432 487.706 106.343 487.799 106.262Z" fill="black"/>
<path id="Vector_51" opacity="0.1" d="M532.714 133.89C532.157 134.072 531.585 134.205 531.005 134.288C530.179 134.572 529.499 135.172 529.115 135.956C529.403 135.71 529.739 135.526 530.101 135.417C530.681 135.335 531.253 135.202 531.81 135.02C532.034 134.899 532.232 134.736 532.393 134.539C532.553 134.342 532.673 134.116 532.746 133.872C532.735 133.878 532.725 133.885 532.714 133.89Z" fill="black"/>
<path id="Vector_52" opacity="0.1" d="M523.326 146.66C523.339 147.051 523.364 147.442 523.402 147.832C523.927 147.698 524.397 147.399 524.74 146.979C524.915 146.764 525.066 146.53 525.189 146.281C524.934 146.493 524.63 146.638 524.305 146.704C523.98 146.77 523.644 146.755 523.326 146.66V146.66Z" fill="black"/>
</g>
<path id="Vector_53" opacity="0.1" d="M482.942 167.549C482.942 167.549 485.668 166.446 487.269 166.691Z" fill="black"/>
<g id="persone">
<path id="Vector_54" opacity="0.1" d="M489.566 306.771L481.884 309.368C481.884 309.368 477.816 305.303 478.946 304.061C479.427 303.53 479.848 301.769 480.169 299.921C480.605 300.7 480.908 301.545 481.066 302.424C487.702 306.066 487.815 303.892 487.815 303.892C487.89 303.332 488.081 302.794 488.377 302.313C488.677 303.823 489.074 305.312 489.566 306.771V306.771Z" fill="black"/>
<path id="Vector_55" d="M486.298 112.434C486.46 112.993 486.669 113.537 486.92 114.062C489.719 120.636 489.84 128.041 487.259 134.703C489.117 134.587 490.973 134.887 492.83 135.031C494.687 135.175 496.609 135.151 498.335 134.425C500.061 133.698 501.564 132.142 501.816 130.222C502.155 127.63 500.268 125.369 498.611 123.401C496.922 121.396 495.29 119.185 494.791 116.57C494.241 113.696 495.023 110.325 493.207 108.086C493.047 107.871 492.841 107.694 492.603 107.571C491.627 107.124 489.087 107.138 488.105 107.692C486.593 108.544 485.926 110.791 486.298 112.434Z" fill="#3F3D56"/>
<path id="Vector_56" opacity="0.1" d="M521.763 133.322L515.437 137.162L505.043 145.066C505.043 145.066 494.311 139.42 497.022 136.145C497.527 135.498 497.868 134.738 498.014 133.93C509.854 144.048 513.451 133.575 514.05 131.396C517.391 134.011 521.763 133.322 521.763 133.322Z" fill="black"/>
<path id="Vector_57" opacity="0.1" d="M496.584 169.345C496.584 169.345 494.263 169.609 491.446 169.875C491.335 167.445 490.967 164.697 491.034 163.021C491.147 160.198 491.147 159.859 490.244 158.278C489.34 156.697 489.453 155.455 489.566 153.423C489.674 151.476 489.159 151.083 487.327 147.973C487.248 147.837 487.166 147.697 487.08 147.551C486.181 146.001 485.924 143.199 485.914 140.552C485.917 140.542 485.917 140.532 485.914 140.522C485.912 139.892 485.924 139.271 485.946 138.679C485.948 138.655 485.948 138.63 485.948 138.605C486.014 136.816 486.161 135.292 486.238 134.567C486.549 134.269 486.741 134.113 486.741 134.113L487.871 135.016L494.311 145.97L496.584 169.345Z" fill="black"/>
<path id="Vector_58" opacity="0.1" d="M523.91 163.811C523.785 164.041 523.687 164.284 523.619 164.536L524.136 151.333L524.299 148.702C524.604 152.695 525.128 161.636 523.91 163.811Z" fill="black"/>
<path id="Vector_59" d="M537.738 299.939C537.62 300.804 537.416 301.656 537.128 302.48C537.128 302.48 535.246 306.809 527.505 305.642C522.448 304.879 522.482 302.509 523.32 300.676C523.702 299.912 524.164 299.192 524.701 298.528C525.453 297.511 525.379 293.634 525.643 290.097C525.905 286.558 527.505 286.377 527.505 286.377L527.6 290.359C530.614 286.407 532.722 291.036 532.722 291.036C532.722 291.036 537.008 291.126 536.484 288.929C535.926 286.59 535.092 282.886 535.092 282.886C535.092 282.886 537.166 283.848 537.542 284.525C537.919 285.203 537.467 294.275 537.128 295.14C536.789 296.005 537.128 298.34 537.618 299.018C537.756 299.304 537.798 299.627 537.738 299.939V299.939Z" fill="#3F3D56"/>
<path id="Vector_60" d="M526.772 288.873C526.772 288.873 532.327 282.352 536.874 289.466L536.111 294.023H526.772V288.873Z" fill="#3F3D56"/>
<path id="Vector_61" d="M533.993 292.894C534.305 292.894 534.557 292.641 534.557 292.33C534.557 292.018 534.305 291.765 533.993 291.765C533.681 291.765 533.428 292.018 533.428 292.33C533.428 292.641 533.681 292.894 533.993 292.894Z" fill="#F2F2F2"/>
<path id="Vector_62" d="M526.772 291.989C527.084 291.989 527.337 291.737 527.337 291.425C527.337 291.113 527.084 290.86 526.772 290.86C526.46 290.86 526.207 291.113 526.207 291.425C526.207 291.737 526.46 291.989 526.772 291.989Z" fill="#F2F2F2"/>
<path id="Vector_63" d="M532.044 296.721C532.356 296.721 532.609 296.468 532.609 296.156C532.609 295.845 532.356 295.592 532.044 295.592C531.732 295.592 531.479 295.845 531.479 296.156C531.479 296.468 531.732 296.721 532.044 296.721Z" fill="#F2F2F2"/>
<path id="Vector_64" d="M527.114 296.057C527.426 296.057 527.679 295.805 527.679 295.493C527.679 295.181 527.426 294.928 527.114 294.928C526.802 294.928 526.549 295.181 526.549 295.493C526.549 295.805 526.802 296.057 527.114 296.057Z" fill="#F2F2F2"/>
<path id="Vector_65" d="M533.136 294.928C533.448 294.928 533.701 294.676 533.701 294.364C533.701 294.052 533.448 293.799 533.136 293.799C532.824 293.799 532.571 294.052 532.571 294.364C532.571 294.676 532.824 294.928 533.136 294.928Z" fill="#F2F2F2"/>
<path id="Vector_66" d="M526.772 294.023C527.084 294.023 527.337 293.771 527.337 293.459C527.337 293.147 527.084 292.894 526.772 292.894C526.46 292.894 526.207 293.147 526.207 293.459C526.207 293.771 526.46 294.023 526.772 294.023Z" fill="#F2F2F2"/>
<path id="Vector_67" d="M531.479 298.821C531.791 298.821 532.044 298.568 532.044 298.256C532.044 297.944 531.791 297.692 531.479 297.692C531.167 297.692 530.914 297.944 530.914 298.256C530.914 298.568 531.167 298.821 531.479 298.821Z" fill="#F2F2F2"/>
<path id="Vector_68" d="M527.114 298.091C527.426 298.091 527.679 297.839 527.679 297.527C527.679 297.215 527.426 296.962 527.114 296.962C526.802 296.962 526.549 297.215 526.549 297.527C526.549 297.839 526.802 298.091 527.114 298.091Z" fill="#F2F2F2"/>
<path id="Vector_69" d="M489.566 306.771L481.884 309.368C481.884 309.368 477.816 305.303 478.946 304.061C479.427 303.53 479.848 301.769 480.169 299.921C480.273 299.339 480.365 298.745 480.447 298.18C480.713 296.344 480.867 294.801 480.867 294.801C480.867 294.801 489.792 290.51 488.323 294.801C487.958 296.017 487.815 297.289 487.901 298.555C487.964 299.818 488.123 301.074 488.377 302.313C488.677 303.823 489.074 305.312 489.566 306.771V306.771Z" fill="#FBBEBE"/>
<path id="Vector_70" d="M491.26 312.699C491.26 312.699 489.932 313.686 486.036 313.829C485.017 313.867 484.001 313.981 482.998 314.171C478.891 314.968 474.68 315.082 470.536 314.507C469.468 314.363 468.409 314.155 467.366 313.885C463.356 312.783 466.406 310.244 466.406 310.244C466.406 310.244 466.598 310.077 466.93 309.827C467.78 309.19 469.542 308.015 471.35 307.731C473.862 307.336 476.178 302.875 476.178 302.875L477.76 300.023C480.216 297.907 481.066 302.875 481.066 302.875C487.702 306.518 487.815 304.343 487.815 304.343C488.183 302.394 488.861 302.394 488.861 302.394C488.861 302.394 490.515 306.845 491.114 307.957C491.153 308.038 491.202 308.113 491.26 308.182C491.656 308.578 491.26 312.699 491.26 312.699Z" fill="#3F3D56"/>
<path id="Vector_71" d="M481.036 305.303C481.348 305.303 481.601 305.05 481.601 304.738C481.601 304.427 481.348 304.174 481.036 304.174C480.724 304.174 480.471 304.427 480.471 304.738C480.471 305.05 480.724 305.303 481.036 305.303Z" fill="#F2F2F2"/>
<path id="Vector_72" d="M477.801 306.884C478.113 306.884 478.366 306.631 478.366 306.319C478.366 306.008 478.113 305.755 477.801 305.755C477.489 305.755 477.236 306.008 477.236 306.319C477.236 306.631 477.489 306.884 477.801 306.884Z" fill="#F2F2F2"/>
<path id="Vector_73" d="M479.54 306.074C479.852 306.074 480.105 305.822 480.105 305.51C480.105 305.198 479.852 304.945 479.54 304.945C479.228 304.945 478.975 305.198 478.975 305.51C478.975 305.822 479.228 306.074 479.54 306.074Z" fill="#F2F2F2"/>
<path id="Vector_74" d="M475.981 307.816C476.293 307.816 476.546 307.563 476.546 307.251C476.546 306.939 476.293 306.687 475.981 306.687C475.669 306.687 475.416 306.939 475.416 307.251C475.416 307.563 475.669 307.816 475.981 307.816Z" fill="#F2F2F2"/>
<path id="Vector_75" opacity="0.1" d="M488.323 294.801C487.958 296.017 487.815 297.289 487.901 298.555C485.896 297.882 482.613 297.999 480.447 298.18C480.713 296.344 480.867 294.801 480.867 294.801C480.867 294.801 489.792 290.51 488.323 294.801Z" fill="black"/>
<path id="Vector_76" d="M486.29 189.783C486.29 189.783 481.884 192.268 481.093 197.123C480.302 201.979 478.946 208.19 477.929 209.319C476.913 210.448 473.749 214.062 474.992 215.981C476.235 217.901 476.461 224.451 476.461 224.451C476.461 224.451 476.009 230.323 477.252 232.242C478.494 234.162 479.511 246.358 476.8 249.971C476.8 249.971 475.896 258.327 476.235 259.118C476.574 259.908 474.766 261.941 475.331 263.635C475.896 265.329 478.607 296.495 478.268 297.737C478.268 297.737 486.854 296.495 489.114 298.528C489.114 298.528 489.566 295.14 489.114 292.769C488.662 290.397 489.453 281.025 490.47 278.653C491.486 276.282 491.712 267.248 491.373 266.345C491.373 266.345 493.181 258.327 492.503 256.746C491.825 255.166 495.441 240.599 495.441 240.599C495.441 240.599 497.248 237.098 496.796 236.646C496.796 236.646 499.734 234.727 499.395 233.259C499.056 231.791 502.106 230.097 502.106 230.097C502.106 230.097 504.817 236.759 505.721 237.775C506.625 238.792 506.66 245.341 507.772 246.696C508.884 248.051 510.353 255.166 511.822 257.085C513.29 259.005 519.165 264.086 520.069 269.845C520.069 269.845 525.379 278.089 525.153 280.686C524.927 283.283 531.14 288.026 537.128 279.218C536.126 278.475 535.316 277.503 534.765 276.383C534.215 275.264 533.941 274.029 533.965 272.781C533.965 268.377 529.22 254.262 529.22 254.262C529.22 254.262 526.509 250.31 527.525 248.39C528.542 246.471 527.638 240.824 527.638 240.824L529.785 237.324C529.785 237.324 530.124 233.936 530.463 230.436C530.802 226.935 528.429 223.096 529.559 221.402C530.689 219.708 529.107 211.245 529.107 211.245C529.107 211.245 527.701 196.657 525.605 195.768C523.509 194.88 486.29 189.783 486.29 189.783Z" fill="white"/>
<path id="Vector_77" d="M496.584 169.345C496.584 169.345 494.263 169.609 491.446 169.875C487.37 170.259 482.252 170.648 481.642 170.248C480.611 169.57 481.642 160.988 481.642 160.988C481.642 160.988 481.997 151.616 481.658 145.066C481.382 139.752 484.902 135.85 486.238 134.567C486.549 134.269 486.741 134.113 486.741 134.113L487.871 135.016L494.311 145.97L496.584 169.345Z" fill="#FBBEBE"/>
<path id="Vector_78" opacity="0.1" d="M521.763 133.322L515.437 137.162L505.043 145.066C505.043 145.066 494.311 139.42 497.022 136.145C497.527 135.498 497.868 134.738 498.014 133.93C498.83 130.158 497.022 124.74 497.022 124.74C497.022 124.74 511.162 105.654 510.353 120.449C510.028 126.393 511.806 129.639 514.05 131.396C517.391 134.011 521.763 133.322 521.763 133.322Z" fill="black"/>
<path id="Vector_79" d="M502.353 129.753C509.579 129.753 515.437 123.55 515.437 115.898C515.437 108.246 509.579 102.043 502.353 102.043C495.127 102.043 489.269 108.246 489.269 115.898C489.269 123.55 495.127 129.753 502.353 129.753Z" fill="#FBBEBE"/>
<path id="Vector_80" d="M481.488 168.193C481.488 168.193 480.357 174.224 483.628 177.588C484.169 178.143 484.872 178.512 485.636 178.643C486.4 178.775 487.186 178.661 487.882 178.319C488.968 177.785 490.183 176.993 490.639 175.977C491.538 173.974 488.718 164.184 481.488 168.193Z" fill="#FBBEBE"/>
<path id="Vector_81" opacity="0.1" d="M526.057 187.073C525.684 188.754 525.573 190.481 525.727 192.195C524.995 193.521 524.369 194.646 523.962 195.378C523.643 195.947 523.458 196.276 523.458 196.276C522.777 197.144 522.165 198.063 521.626 199.025C521.206 199.703 520.944 200.466 520.86 201.259C520.86 202.995 519.109 214.57 510.805 211.69C505.443 209.832 508.866 204.136 511.964 200.333C512.995 199.069 514.098 197.865 515.267 196.728C515.267 196.728 516.226 195.509 517.145 194.233C517.772 193.427 518.317 192.561 518.77 191.647C519.165 190.517 521.773 185.549 521.773 185.549C521.773 185.549 524.362 180.072 523.797 177.531C523.481 176.108 523.447 172.592 523.479 169.771C523.698 171.754 524.031 173.723 524.475 175.668C524.475 175.668 527.186 182.556 526.057 187.073Z" fill="black"/>
<path id="Vector_82" d="M531.366 136.032C531.366 136.032 535.433 138.855 535.32 146.195C535.207 153.535 533.852 166.239 533.852 166.239L533.005 174.144C533.005 174.144 531.931 177.362 532.101 178.322C532.27 179.282 523.232 195.373 523.232 195.373C523.232 195.373 520.634 198.62 520.634 200.356C520.634 202.092 518.883 213.666 510.579 210.787C502.275 207.907 515.042 195.825 515.042 195.825C515.042 195.825 518.148 191.872 518.544 190.743C518.939 189.614 521.548 184.645 521.548 184.645C521.548 184.645 524.136 179.169 523.571 176.628C523.006 174.087 523.345 164.863 523.345 164.863L523.91 150.43L524.136 146.76C524.136 146.76 526.226 134.564 531.366 136.032Z" fill="#FBBEBE"/>
<path id="Vector_83" d="M488.224 162.975L494.389 160.737C494.898 160.552 495.447 160.512 495.977 160.622C496.507 160.732 496.996 160.986 497.389 161.358L505.57 169.081C505.57 169.081 506.022 170.321 505.42 170.266C504.817 170.21 496.005 161.402 496.005 161.402L487.269 164.338C487.269 164.041 487.36 163.75 487.531 163.506C487.702 163.262 487.944 163.077 488.224 162.975V162.975Z" fill="#6C63FF"/>
<path id="Vector_84" d="M496.947 173.334L505.42 170.265L496.005 161.402L487.269 164.338L496.947 173.334Z" fill="#4B4B5B"/>
<path id="Vector_85" d="M484.218 198.704C484.634 198.704 484.972 198.367 484.972 197.952C484.972 197.536 484.634 197.199 484.218 197.199C483.802 197.199 483.465 197.536 483.465 197.952C483.465 198.367 483.802 198.704 484.218 198.704Z" fill="#A34343"/>
<path id="Vector_86" d="M479.097 208.377C479.513 208.377 479.85 208.04 479.85 207.624C479.85 207.209 479.513 206.872 479.097 206.872C478.681 206.872 478.344 207.209 478.344 207.624C478.344 208.04 478.681 208.377 479.097 208.377Z" fill="#A34343"/>
<path id="Vector_87" d="M520.009 211.894C520.425 211.894 520.763 211.557 520.763 211.141C520.763 210.725 520.425 210.388 520.009 210.388C519.593 210.388 519.256 210.725 519.256 211.141C519.256 211.557 519.593 211.894 520.009 211.894Z" fill="#A34343"/>
<path id="Vector_88" d="M524.269 225.559C524.685 225.559 525.022 225.222 525.022 224.807C525.022 224.391 524.685 224.054 524.269 224.054C523.853 224.054 523.516 224.391 523.516 224.807C523.516 225.222 523.853 225.559 524.269 225.559Z" fill="#A34343"/>
<path id="Vector_89" d="M522.61 221.714C523.026 221.714 523.363 221.377 523.363 220.961C523.363 220.545 523.026 220.208 522.61 220.208C522.194 220.208 521.857 220.545 521.857 220.961C521.857 221.377 522.194 221.714 522.61 221.714Z" fill="#A34343"/>
<path id="Vector_90" d="M521.17 216.804C521.586 216.804 521.923 216.467 521.923 216.051C521.923 215.635 521.586 215.298 521.17 215.298C520.754 215.298 520.417 215.635 520.417 216.051C520.417 216.467 520.754 216.804 521.17 216.804Z" fill="#A34343"/>
<path id="Vector_91" d="M481.488 203.284C481.904 203.284 482.241 202.947 482.241 202.531C482.241 202.115 481.904 201.778 481.488 201.778C481.072 201.778 480.735 202.115 480.735 202.531C480.735 202.947 481.072 203.284 481.488 203.284Z" fill="#A34343"/>
<path id="Vector_92" d="M476.109 213.399C476.525 213.399 476.863 213.062 476.863 212.647C476.863 212.231 476.525 211.894 476.109 211.894C475.693 211.894 475.356 212.231 475.356 212.647C475.356 213.062 475.693 213.399 476.109 213.399Z" fill="#A34343"/>
<path id="Vector_93" d="M531.341 136.014L531.339 136.021C527.25 134.257 524.929 143.142 524.308 145.938L517.884 136.748C517.884 136.748 515.249 140.963 506.738 141.604C498.226 142.243 496.157 135.129 496.157 135.129C494.989 135.039 489.699 144.556 487.779 147.973C487.699 147.837 487.618 147.697 487.532 147.55C486.633 146.001 486.375 143.198 486.366 140.552C486.369 140.542 486.369 140.532 486.366 140.522C486.373 139.908 486.384 139.291 486.398 138.679C486.4 138.654 486.4 138.63 486.4 138.605C486.493 136.098 486.741 134.113 486.741 134.113C495.779 129.483 497.926 134.307 497.926 134.307C511.144 145.678 514.145 131.468 514.145 131.468C521.339 129.011 530.801 135.63 531.341 136.014Z" fill="#6C63FF"/>
<path id="Vector_94" opacity="0.1" d="M481.206 218.579C481.319 218.861 490.809 229.814 494.311 230.379C497.813 230.944 481.206 218.579 481.206 218.579Z" fill="black"/>
<path id="Vector_95" opacity="0.1" d="M488.001 201.778C488.001 201.778 488.097 209.501 485.725 211.245C483.352 212.989 488.001 201.778 488.001 201.778Z" fill="black"/>
<path id="Vector_96" opacity="0.1" d="M492.39 204.52C492.39 204.52 492.164 213.61 495.553 215.756C495.553 215.756 489.34 209.714 492.39 204.52Z" fill="black"/>
<path id="Vector_97" d="M486.857 107.367C485.494 108.515 485.985 110.898 487.377 112.01C488.77 113.122 490.674 113.293 492.456 113.338C495.885 113.427 499.371 113.228 502.696 114.071C504.163 114.375 505.52 115.07 506.624 116.083C507.647 117.235 508.351 118.634 508.666 120.142C509.248 122.361 509.484 124.656 509.364 126.947C509.283 128.487 509.042 130.036 509.263 131.562C509.538 132.994 510.023 134.378 510.704 135.668C513.32 141.215 516.233 146.617 519.431 151.85C519.684 152.364 520.079 152.796 520.568 153.094C521.384 153.487 522.343 153.088 523.158 152.692C522.683 151.099 522.414 149.451 522.359 147.789C522.782 147.9 523.229 147.883 523.642 147.739C524.055 147.595 524.415 147.33 524.677 146.979C525.187 146.268 525.546 145.461 525.733 144.606L527.253 139.371C527.723 137.752 528.42 135.894 530.038 135.418C530.618 135.335 531.19 135.202 531.746 135.02C532.113 134.802 532.408 134.483 532.596 134.1C532.783 133.718 532.855 133.289 532.801 132.866C532.679 132.02 532.326 131.225 531.782 130.567C529.495 127.491 525.681 125.667 523.896 122.276C522.363 119.363 522.629 115.859 523.135 112.607C523.64 109.355 524.344 106.012 523.566 102.814C522.778 99.8968 520.996 97.3456 518.528 95.6009C516.066 93.8768 513.251 92.7202 510.288 92.2146C508.92 91.8668 507.486 91.8765 506.123 92.2428C505.096 92.5898 504.216 93.2748 503.214 93.6874C500.936 94.6247 498.31 94.0648 495.92 94.6615C493.723 95.292 491.815 96.6699 490.526 98.5573C489.253 100.436 488.299 102.51 487.701 104.698C487.261 106.134 487.966 106.709 486.683 107.489" fill="#3F3D56"/>
<path id="Vector_98" d="M485.442 168.893C485.442 168.893 495.779 162.005 498.717 166.239C501.654 170.474 489.622 175.668 489.622 175.668L485.442 168.893Z" fill="#FBBEBE"/>
<path id="Vector_99" opacity="0.1" d="M490.801 179.959C490.801 179.959 492.184 182.105 499.179 183.008C506.173 183.912 490.801 179.959 490.801 179.959Z" fill="black"/>
<path id="Vector_100" opacity="0.1" d="M488.285 187.977C488.285 187.977 494.577 193.51 504.668 191.477C514.759 189.445 488.285 187.977 488.285 187.977Z" fill="black"/>
<path id="Vector_101" d="M521.763 133.322L515.437 137.162L505.043 145.066C505.043 145.066 494.311 139.42 497.022 136.145C497.527 135.498 497.868 134.738 498.014 133.93C498.83 130.158 497.022 124.74 497.022 124.74C497.022 124.74 511.162 105.654 510.353 120.449C510.028 126.393 511.806 129.639 514.05 131.396C517.391 134.011 521.763 133.322 521.763 133.322Z" fill="#FBBEBE"/>
<path id="Vector_102" opacity="0.1" d="M502.353 130.205C509.579 130.205 515.437 124.002 515.437 116.35C515.437 108.698 509.579 102.494 502.353 102.494C495.127 102.494 489.269 108.698 489.269 116.35C489.269 124.002 495.127 130.205 502.353 130.205Z" fill="black"/>
<path id="Vector_103" d="M529.984 134.99C529.975 134.986 531.348 136.023 531.339 136.021C527.25 134.257 524.929 143.142 524.308 145.938C524.192 146.453 524.136 146.76 524.136 146.76C524.136 146.76 524.208 147.51 524.299 148.702C524.604 152.695 525.128 161.636 523.91 163.811C523.785 164.041 523.687 164.284 523.618 164.536C523.234 165.857 523.28 167.843 523.478 169.771C523.698 171.754 524.031 173.723 524.475 175.668C524.475 175.668 527.186 182.556 526.056 187.073C525.684 188.754 525.573 190.481 525.727 192.195C525.843 193.769 526.083 195.332 526.443 196.868C526.549 197.318 526.621 197.575 526.621 197.575C524.918 198.158 523.252 198.641 521.626 199.025C518.457 199.784 515.22 200.223 511.964 200.333C496.688 200.818 486.516 193.501 484.114 191.507C483.924 191.349 483.782 191.224 483.691 191.139C482.11 189.671 485.16 188.541 484.821 187.525C484.482 186.509 486.366 184.25 486.366 184.25C486.366 184.25 485.951 180.524 487.645 179.733C489.34 178.943 490.583 176.233 491.538 173.974C492.492 171.716 491.373 165.844 491.486 163.021C491.599 160.198 491.599 159.859 490.696 158.278C489.792 156.697 489.905 155.455 490.018 153.422C490.126 151.476 489.611 151.083 487.779 147.973C487.699 147.837 487.618 147.697 487.532 147.55C486.633 146.001 488.034 143.332 488.025 140.685C488.028 140.676 488.546 140.695 488.543 140.685C488.541 140.055 487.485 139.206 487.507 138.614C487.51 138.59 486.989 138.122 486.989 138.097C487.066 136.764 486.982 135.426 486.741 134.113C495.779 129.483 497.926 134.307 497.926 134.307C511.144 145.678 514.145 131.468 514.145 131.468C521.339 129.011 530.801 135.63 531.341 136.014C531.357 136.026 529.984 134.99 529.984 134.99Z" fill="#FBFBFF"/>
<path id="Vector_104" opacity="0.1" d="M486.631 107.818C485.268 108.966 485.759 111.349 487.151 112.461C488.544 113.573 490.448 113.744 492.23 113.79C495.659 113.879 499.145 113.68 502.47 114.523C503.937 114.827 505.294 115.522 506.398 116.534C507.421 117.686 508.125 119.086 508.44 120.594C509.023 122.812 509.258 125.108 509.138 127.399C509.057 128.938 508.816 130.488 509.037 132.014C509.312 133.446 509.797 134.829 510.478 136.119C513.094 141.666 516.007 147.068 519.205 152.302C519.458 152.816 519.853 153.247 520.342 153.545C521.158 153.939 522.117 153.54 522.932 153.144C522.457 151.551 522.188 149.902 522.133 148.24C522.556 148.352 523.003 148.335 523.416 148.19C523.829 148.046 524.19 147.782 524.451 147.431C524.961 146.72 525.32 145.913 525.507 145.058L527.027 139.823C527.497 138.204 528.194 136.346 529.812 135.869C530.392 135.786 530.964 135.653 531.52 135.471C531.887 135.254 532.182 134.935 532.37 134.552C532.557 134.169 532.629 133.74 532.576 133.318C532.453 132.472 532.1 131.677 531.556 131.018C529.269 127.943 525.455 126.119 523.67 122.727C522.137 119.815 522.403 116.31 522.909 113.059C523.414 109.807 524.118 106.464 523.34 103.266C522.552 100.348 520.77 97.7973 518.302 96.0526C515.84 94.3285 513.025 93.1719 510.062 92.6662C508.694 92.3184 507.26 92.3281 505.897 92.6944C504.87 93.0414 503.99 93.7264 502.988 94.139C500.71 95.0764 498.084 94.5165 495.694 95.1132C493.497 95.7437 491.589 97.1216 490.3 99.009C489.027 100.887 488.073 102.962 487.475 105.15C487.035 106.586 487.74 107.16 486.457 107.941" fill="black"/>
<path id="Vector_105" d="M488.821 136.16C488.783 136.824 488.656 137.638 488.285 137.758C489.25 137.735 490.201 138.445 491.158 138.233C491.871 138.075 492.541 137.384 492.971 136.364C493.014 136.211 493.098 136.073 493.214 135.965C493.315 135.906 493.424 135.965 493.524 136.024C495.394 137.14 497.138 138.456 498.724 139.947C499.254 140.44 499.842 140.975 500.422 140.717C500.449 138.847 500.07 136.994 499.312 135.284C498.701 133.913 497.662 132.777 496.351 132.045C495.263 131.514 494.078 131.206 492.869 131.139C492.347 131.129 491.834 131.001 491.368 130.766C490.854 130.465 489.215 128.506 488.846 129.932C488.669 130.621 488.898 132.088 488.903 132.849C488.911 133.954 488.884 135.06 488.821 136.16Z" fill="#3F3D56"/>
</g>
<path id="Vector_106" d="M460.053 317.244L563.654 301.193" stroke="#3F3D56" stroke-miterlimit="10"/>
<g id="wordpress_logo">
<path id="Vector_107" d="M111.314 118.734C117.991 108.306 130.632 101.271 145.127 101.271C166.584 101.271 183.978 116.686 183.978 135.702C183.978 147.86 176.868 158.546 166.131 164.673" stroke="#3F3D56" stroke-miterlimit="10"/>
<path id="Vector_108" d="M97.9198 142.95C97.9198 156.48 106.813 168.172 119.709 173.713L101.267 129.039C99.0725 133.348 97.9257 138.114 97.9198 142.95ZM162.68 141.225C162.68 137 160.964 134.075 159.492 131.798C157.532 128.982 155.696 126.598 155.696 123.782C155.696 120.64 158.391 117.715 162.187 117.715C162.359 117.715 162.521 117.734 162.689 117.743C155.269 111.856 146.054 108.689 136.581 108.77C123.075 108.77 111.192 114.896 104.279 124.176C105.186 124.2 106.041 124.217 106.767 124.217C110.811 124.217 117.07 123.783 117.07 123.783C119.154 123.674 119.4 126.381 117.319 126.598C117.319 126.598 115.224 126.816 112.893 126.924L126.972 163.949L135.433 141.514L129.409 126.924C127.327 126.816 125.355 126.598 125.355 126.598C123.272 126.49 123.516 123.674 125.599 123.782C125.599 123.782 131.984 124.216 135.783 124.216C139.826 124.216 146.086 123.782 146.086 123.782C148.172 123.674 148.417 126.38 146.334 126.598C146.334 126.598 144.235 126.816 141.909 126.924L155.881 163.668L159.736 152.275C161.408 147.547 162.68 144.151 162.68 141.225H162.68Z" fill="white"/>
<path id="Vector_109" d="M137.259 145.94L125.66 175.74C133.477 177.767 141.704 177.579 149.42 175.196C149.313 175.048 149.221 174.89 149.144 174.725L137.259 145.94ZM170.505 126.551C170.68 127.714 170.767 128.889 170.765 130.065C170.765 133.534 170.032 137.433 167.825 142.309L156.016 172.496C167.51 166.57 175.241 155.561 175.241 142.95C175.231 137.148 173.59 131.465 170.505 126.551L170.505 126.551Z" fill="white"/>
</g>
</g>
<defs>
<filter id="filter0_d_104_141" x="0" y="0.5" width="585" height="325" filterUnits="userSpaceOnUse" color-interpolation-filters="sRGB">
<feFlood flood-opacity="0" result="BackgroundImageFix"/>
<feColorMatrix in="SourceAlpha" type="matrix" values="0 0 0 0 0 0 0 0 0 0 0 0 0 0 0 0 0 0 127 0" result="hardAlpha"/>
<feOffset dy="4"/>
<feGaussianBlur stdDeviation="2"/>
<feComposite in2="hardAlpha" operator="out"/>
<feColorMatrix type="matrix" values="0 0 0 0 0 0 0 0 0 0 0 0 0 0 0 0 0 0 0.25 0"/>
<feBlend mode="normal" in2="BackgroundImageFix" result="effect1_dropShadow_104_141"/>
<feBlend mode="normal" in="SourceGraphic" in2="effect1_dropShadow_104_141" result="shape"/>
</filter>
<clipPath id="clip0_104_141">
<rect width="577" height="317" fill="white" transform="translate(4 0.5)"/>
</clipPath>
</defs>
</svg>
